<mxfile host="65bd71144e" pages="2">
    <diagram name="Page-1" id="F296jT60ALVq-qLIb5a-">
        <mxGraphModel dx="1729" dy="1497" grid="1" gridSize="10" guides="1" tooltips="1" connect="1" arrows="1" fold="1" page="1" pageScale="1" pageWidth="1100" pageHeight="850" math="0" shadow="0">
            <root>
                <mxCell id="0"/>
                <mxCell id="1" parent="0"/>
                <mxCell id="yc3m5w_ezIkJ8CxKZsT--1" style="vsdxID=1;fillColor=none;gradientColor=none;strokeColor=none;strokeWidth=2;spacingTop=-3;spacingBottom=-3;spacingLeft=-3;spacingRight=-3;labelBackgroundColor=none;rounded=1;html=1;whiteSpace=wrap;fontColor=#000000;" parent="1" vertex="1">
                    <mxGeometry x="530" y="224" width="38.1" height="38" as="geometry"/>
                </mxCell>
                <mxCell id="yc3m5w_ezIkJ8CxKZsT--2" style="vsdxID=2;fillColor=#FFFFFF;gradientColor=none;shape=stencil(hVJbEoIwDDxNf5mQDOKv4+MCnoCRKh0RnAIKnt5COkIraL+SdJPdZFbQtsqSuxQIVa3Lq3yqtM4E7QSiKjKpVW0iQXtB23Op5UWXTZFyfk8MEmGoyJR7wh6NkOjTUb0k1yCgMI74gztv5aNnbG0PAH92nEecHhh7ajSDQx9tC3EcrOz0FsfS2qLQa2vJYYGOXMBAC5sZZsSA0OUep1oacFmn2shF0Peys6zetr2ICMYXuvxTja6kpb3/8U9v6Upq/dN2+Fsj+filG5h4MBfbTuU5e/PjCRP4ZjQlNjLt3w==);strokeColor=#5e5e5e;strokeWidth=2;spacingTop=-3;spacingBottom=-3;spacingLeft=-3;spacingRight=-3;labelBackgroundColor=none;rounded=1;html=1;whiteSpace=wrap;fontColor=#000000;" parent="yc3m5w_ezIkJ8CxKZsT--1" vertex="1">
                    <mxGeometry width="38" height="38" as="geometry"/>
                </mxCell>
                <mxCell id="yc3m5w_ezIkJ8CxKZsT--3" value="&lt;div style=&quot;font-size: 1px&quot;&gt;&lt;p style=&quot;align:center;margin-left:0;margin-right:0;margin-top:0px;margin-bottom:0px;text-indent:0;valign:middle;direction:ltr;&quot;&gt;&lt;font style=&quot;font-size: 14.11px; font-family: Arial; direction: ltr; letter-spacing: 0px; line-height: 100%; opacity: 1;&quot;&gt;Start&lt;/font&gt;&lt;/p&gt;&lt;/div&gt;" style="text;vsdxID=1;fillColor=none;gradientColor=none;strokeColor=none;strokeWidth=2;spacingTop=-3;spacingBottom=-3;spacingLeft=-3;spacingRight=-3;labelBackgroundColor=none;rounded=1;html=1;whiteSpace=wrap;verticalAlign=middle;align=center;;html=1;fontColor=#000000;" parent="yc3m5w_ezIkJ8CxKZsT--1" vertex="1">
                    <mxGeometry y="12.65" width="38.1" height="12.7" as="geometry"/>
                </mxCell>
                <mxCell id="yc3m5w_ezIkJ8CxKZsT--4" style="vsdxID=3;fillColor=none;gradientColor=none;strokeColor=none;strokeWidth=2;spacingTop=-3;spacingBottom=-3;spacingLeft=-3;spacingRight=-3;labelBackgroundColor=none;rounded=1;html=1;whiteSpace=wrap;fontColor=#000000;" parent="1" vertex="1">
                    <mxGeometry x="597" y="205" width="101.6" height="76.1" as="geometry"/>
                </mxCell>
                <mxCell id="yc3m5w_ezIkJ8CxKZsT--5" style="vsdxID=4;fillColor=#FFFFFF;gradientColor=none;shape=stencil(fZNbEoIwDEVX018mNOODT8fHBlwBA1U6IjgVFVy9hbTSFvSvaW4mJ7cNw+29SG+Ccbg3qr6Il8ybguGOcS6rQijZ6BPDPcPtqVbirOpHlVN8S7WSw3AjcqqJezWHVGVH+RZ0BxHGqwUlqPJaP/uOrclTqqOIhAcSZg9FytiXmpBHRg4tN/2jZWI03CtpkUKMLEqHrmBoCBvds5SVA5csvz26iX4KmKz1sD4kBIQAPqAzBIYSnHgygzjKDcNfC0e1RV59LbGM7hQhtoV0jQm4f4E63s8UzKCOjxnCt/7rWkp3FvQVODVnBvHPX9SH4cfTLsiypIVx8+GG6CvaLtx/AA==);strokeColor=#5e5e5e;strokeWidth=2;spacingTop=-3;spacingBottom=-3;spacingLeft=-3;spacingRight=-3;labelBackgroundColor=none;rounded=1;html=1;whiteSpace=wrap;fontColor=#000000;" parent="yc3m5w_ezIkJ8CxKZsT--4" vertex="1">
                    <mxGeometry width="101" height="76" as="geometry"/>
                </mxCell>
                <mxCell id="yc3m5w_ezIkJ8CxKZsT--6" value="&lt;div style=&quot;font-size: 1px&quot;&gt;&lt;p style=&quot;align:center;margin-left:0;margin-right:0;margin-top:0px;margin-bottom:0px;text-indent:0;valign:middle;direction:ltr;&quot;&gt;&lt;font style=&quot;font-size: 11.29px; font-family: Arial; direction: ltr; letter-spacing: 0px; line-height: 100%; opacity: 1;&quot;&gt;Capture&lt;/font&gt;&lt;/p&gt;&lt;/div&gt;" style="text;vsdxID=3;fillColor=none;gradientColor=none;strokeColor=none;strokeWidth=2;spacingTop=-3;spacingBottom=-3;spacingLeft=-3;spacingRight=-3;labelBackgroundColor=none;rounded=1;html=1;whiteSpace=wrap;verticalAlign=middle;align=center;;html=1;fontColor=#000000;" parent="yc3m5w_ezIkJ8CxKZsT--4" vertex="1">
                    <mxGeometry y="-0.10000000000000142" width="101.6" height="76.2" as="geometry"/>
                </mxCell>
                <mxCell id="yc3m5w_ezIkJ8CxKZsT--7" style="vsdxID=5;fillColor=none;gradientColor=none;strokeColor=none;strokeWidth=2;spacingTop=-3;spacingBottom=-3;spacingLeft=-3;spacingRight=-3;labelBackgroundColor=none;rounded=1;html=1;whiteSpace=wrap;fontColor=#000000;" parent="1" vertex="1">
                    <mxGeometry x="1147" y="316" width="101" height="92" as="geometry"/>
                </mxCell>
                <mxCell id="yc3m5w_ezIkJ8CxKZsT--8" style="vsdxID=6;fillColor=#FFFFFF;gradientColor=none;shape=stencil(hVNBcoMwDHyNrx4hQQzHTpp+IC9ggls8pZBxSEPy+hDLTG1PSDnZq5V2WYSg7amtj1ognEY7fOuLacZW0LtANH2rrRnnk6CdoO3nYPWXHc59w/djPTMRHKIb7skebITaHvbmphkDSZkquMCdP8PvQ3HyPQBcvPo7yrxyyAfTD2fL/Cxt8EAhi7L6e0ruhgm5rJTckO/wkB8wkR+wDKSw7OTh7YkDREkq9gCxJsR6aw4pZtPTBJyFzvRBZnFiFbyKKwmrymWOsdnwdTDJeC2ihbAeUhh7+uWmVGbRDd1RyvFAqWSBL+P5d6Xmg1tfXmzTdbz9YT1d9xniX4V2dw==);strokeColor=#5e5e5e;strokeWidth=2;spacingTop=-3;spacingBottom=-3;spacingLeft=-3;spacingRight=-3;labelBackgroundColor=none;rounded=1;html=1;whiteSpace=wrap;fontColor=#000000;" parent="yc3m5w_ezIkJ8CxKZsT--7" vertex="1">
                    <mxGeometry width="101" height="92" as="geometry"/>
                </mxCell>
                <mxCell id="yc3m5w_ezIkJ8CxKZsT--9" style="vsdxID=7;fillColor=#FFFFFF;gradientColor=none;shape=stencil(rVTRboMwDPyavEbGJlAep679gX0BKtmI1pUqpWu7r1/AqRoQFGUaT8n5jI87ZEHrU10etUA4tbb51BdTtbWgV4FoDrW2pnUnQRtB6/fG6g/bnA8V34+lYyL0iK64J+nYCKXdvZkfzRhISnLFBe78ar67iVffA8DFm7+jTIse2TJ9d7bMT8YNd6CQxB1wRYbyXGbkWR5CJYGK4EHfQlxX97fSg58+dMDLhBRESflQzOwYLwOGqkLtNGTQpB+9jkgHn9MRo9zGTKa46DYtuEsYby09tzIUNmNlIdV4bow3/2v7ShZZlPNEzpLw11LLMbghOQRPthBLx/9DMnNjppOa/ZDp2LpgV3Gxjb11h35f8SYz+z2vu7A+3m8O4t1Im18=);strokeColor=#5e5e5e;strokeWidth=2;spacingTop=-3;spacingBottom=-3;spacingLeft=-3;spacingRight=-3;labelBackgroundColor=none;rounded=1;html=1;whiteSpace=wrap;fontColor=#000000;" parent="yc3m5w_ezIkJ8CxKZsT--7" vertex="1">
                    <mxGeometry width="101" height="92" as="geometry"/>
                </mxCell>
                <mxCell id="yc3m5w_ezIkJ8CxKZsT--10" value="&lt;div style=&quot;font-size: 1px&quot;&gt;&lt;p style=&quot;align:center;margin-left:0;margin-right:0;margin-top:0px;margin-bottom:0px;text-indent:0;valign:middle;direction:ltr;&quot;&gt;&lt;span style=&quot;font-family: Arial; font-size: 14.11px; letter-spacing: 0px; background-color: initial;&quot;&gt;Data Store&lt;/span&gt;&lt;br&gt;&lt;/p&gt;&lt;/div&gt;" style="text;vsdxID=5;fillColor=none;gradientColor=none;strokeColor=none;strokeWidth=2;spacingTop=-3;spacingBottom=-3;spacingLeft=-3;spacingRight=-3;labelBackgroundColor=none;rounded=1;html=1;whiteSpace=wrap;verticalAlign=middle;align=center;;html=1;fontColor=#000000;" parent="yc3m5w_ezIkJ8CxKZsT--7" vertex="1">
                    <mxGeometry y="25.32" width="101.6" height="60.33" as="geometry"/>
                </mxCell>
                <mxCell id="yc3m5w_ezIkJ8CxKZsT--14" style="vsdxID=11;fillColor=none;gradientColor=none;strokeColor=none;strokeWidth=2;spacingTop=-3;spacingBottom=-3;spacingLeft=-3;spacingRight=-3;labelBackgroundColor=none;rounded=1;html=1;whiteSpace=wrap;fontColor=#000000;" parent="1" vertex="1">
                    <mxGeometry x="1386.3" y="205" width="101.3" height="76" as="geometry"/>
                </mxCell>
                <mxCell id="yc3m5w_ezIkJ8CxKZsT--15" style="vsdxID=12;fillColor=#FFFFFF;gradientColor=none;shape=stencil(fZNbEoIwDEVX018mNOODT8fHBlwBA1U6IjgVFVy9hbTSFvSvaW4mJ7cNw+29SG+Ccbg3qr6Il8ybguGOcS6rQijZ6BPDPcPtqVbirOpHlVN8S7WSw3AjcqqJezWHVGVH+RZ0BxHGqwUlqPJaP/uOrclTqqOIhAcSZg9FytiXmpBHRg4tN/2jZWI03CtpkUKMLEqHrmBoCBvds5SVA5csvz26iX4KmKz1sD4kBIQAPqAzBIYSnHgygzjKDcNfC0e1RV59LbGM7hQhtoV0jQm4f4E63s8UzKCOjxnCt/7rWkp3FvQVODVnBvHPX9SH4cfTLsiypIVx8+GG6CvaLtx/AA==);strokeColor=#5e5e5e;strokeWidth=2;spacingTop=-3;spacingBottom=-3;spacingLeft=-3;spacingRight=-3;labelBackgroundColor=none;rounded=1;html=1;whiteSpace=wrap;fontColor=#000000;" parent="yc3m5w_ezIkJ8CxKZsT--14" vertex="1">
                    <mxGeometry width="101" height="76" as="geometry"/>
                </mxCell>
                <mxCell id="yc3m5w_ezIkJ8CxKZsT--16" value="&lt;div style=&quot;font-size: 1px&quot;&gt;&lt;p style=&quot;align:center;margin-left:0;margin-right:0;margin-top:0px;margin-bottom:0px;text-indent:0;valign:middle;direction:ltr;&quot;&gt;&lt;font style=&quot;font-size: 14.11px; font-family: Arial; direction: ltr; letter-spacing: 0px; line-height: 100%; opacity: 1;&quot;&gt;Analyze&lt;/font&gt;&lt;/p&gt;&lt;/div&gt;" style="text;vsdxID=11;fillColor=none;gradientColor=none;strokeColor=none;strokeWidth=2;spacingTop=-3;spacingBottom=-3;spacingLeft=-3;spacingRight=-3;labelBackgroundColor=none;rounded=1;html=1;whiteSpace=wrap;verticalAlign=middle;align=center;;html=1;fontColor=#000000;" parent="yc3m5w_ezIkJ8CxKZsT--14" vertex="1">
                    <mxGeometry x="-0.29999999999999716" y="-0.2" width="101.6" height="76.2" as="geometry"/>
                </mxCell>
                <mxCell id="yc3m5w_ezIkJ8CxKZsT--17" style="vsdxID=14;fillColor=none;gradientColor=none;strokeColor=none;strokeWidth=2;spacingTop=-3;spacingBottom=-3;spacingLeft=-3;spacingRight=-3;labelBackgroundColor=none;rounded=1;html=1;whiteSpace=wrap;fontColor=#000000;" parent="1" vertex="1">
                    <mxGeometry x="1521.3" y="205" width="101" height="76" as="geometry"/>
                </mxCell>
                <mxCell id="yc3m5w_ezIkJ8CxKZsT--18" style="vsdxID=15;fillColor=#FFFFFF;gradientColor=none;shape=stencil(fZNbEoIwDEVX018mNOODT8fHBlwBA1U6IjgVFVy9hbTSFvSvaW4mJ7cNw+29SG+Ccbg3qr6Il8ybguGOcS6rQijZ6BPDPcPtqVbirOpHlVN8S7WSw3AjcqqJezWHVGVH+RZ0BxHGqwUlqPJaP/uOrclTqqOIhAcSZg9FytiXmpBHRg4tN/2jZWI03CtpkUKMLEqHrmBoCBvds5SVA5csvz26iX4KmKz1sD4kBIQAPqAzBIYSnHgygzjKDcNfC0e1RV59LbGM7hQhtoV0jQm4f4E63s8UzKCOjxnCt/7rWkp3FvQVODVnBvHPX9SH4cfTLsiypIVx8+GG6CvaLtx/AA==);strokeColor=#5e5e5e;strokeWidth=2;spacingTop=-3;spacingBottom=-3;spacingLeft=-3;spacingRight=-3;labelBackgroundColor=none;rounded=1;html=1;whiteSpace=wrap;fontColor=#000000;" parent="yc3m5w_ezIkJ8CxKZsT--17" vertex="1">
                    <mxGeometry width="101" height="76" as="geometry"/>
                </mxCell>
                <mxCell id="yc3m5w_ezIkJ8CxKZsT--19" value="&lt;div style=&quot;font-size: 1px&quot;&gt;&lt;p style=&quot;align:center;margin-left:0;margin-right:0;margin-top:0px;margin-bottom:0px;text-indent:0;valign:middle;direction:ltr;&quot;&gt;&lt;font style=&quot;font-size: 14.11px; font-family: Arial; direction: ltr; letter-spacing: 0px; line-height: 100%; opacity: 1;&quot;&gt;Visualize&lt;/font&gt;&lt;/p&gt;&lt;/div&gt;" style="text;vsdxID=14;fillColor=none;gradientColor=none;strokeColor=none;strokeWidth=2;spacingTop=-3;spacingBottom=-3;spacingLeft=-3;spacingRight=-3;labelBackgroundColor=none;rounded=1;html=1;whiteSpace=wrap;verticalAlign=middle;align=center;;html=1;fontColor=#000000;" parent="yc3m5w_ezIkJ8CxKZsT--17" vertex="1">
                    <mxGeometry y="-0.2" width="101.6" height="76.2" as="geometry"/>
                </mxCell>
                <mxCell id="yc3m5w_ezIkJ8CxKZsT--26" style="vsdxID=25;edgeStyle=none;startArrow=none;endArrow=block;startSize=5;endSize=5;strokeColor=#5E5E5E;spacingTop=-3;spacingBottom=-3;spacingLeft=-3;spacingRight=-3;verticalAlign=middle;html=1;labelBackgroundColor=none;rounded=1;entryX=0;entryY=0.5;entryDx=0;entryDy=0;fontColor=#000000;" parent="1" source="yc3m5w_ezIkJ8CxKZsT--57" target="yc3m5w_ezIkJ8CxKZsT--36" edge="1">
                    <mxGeometry relative="1" as="geometry">
                        <mxPoint as="offset"/>
                        <Array as="points"/>
                        <mxPoint x="823" y="243" as="sourcePoint"/>
                        <mxPoint x="855" y="243" as="targetPoint"/>
                    </mxGeometry>
                </mxCell>
                <mxCell id="yc3m5w_ezIkJ8CxKZsT--27" style="vsdxID=28;fillColor=none;gradientColor=none;strokeColor=none;strokeWidth=2;spacingTop=-3;spacingBottom=-3;spacingLeft=-3;spacingRight=-3;labelBackgroundColor=none;rounded=1;html=1;whiteSpace=wrap;fontColor=#000000;" parent="1" vertex="1">
                    <mxGeometry x="1386.3" y="332" width="101.3" height="76" as="geometry"/>
                </mxCell>
                <mxCell id="yc3m5w_ezIkJ8CxKZsT--28" style="vsdxID=29;fillColor=#FFFFFF;gradientColor=none;shape=stencil(fZNbEoIwDEVX018mNOODT8fHBlwBA1U6IjgVFVy9hbTSFvSvaW4mJ7cNw+29SG+Ccbg3qr6Il8ybguGOcS6rQijZ6BPDPcPtqVbirOpHlVN8S7WSw3AjcqqJezWHVGVH+RZ0BxHGqwUlqPJaP/uOrclTqqOIhAcSZg9FytiXmpBHRg4tN/2jZWI03CtpkUKMLEqHrmBoCBvds5SVA5csvz26iX4KmKz1sD4kBIQAPqAzBIYSnHgygzjKDcNfC0e1RV59LbGM7hQhtoV0jQm4f4E63s8UzKCOjxnCt/7rWkp3FvQVODVnBvHPX9SH4cfTLsiypIVx8+GG6CvaLtx/AA==);strokeColor=#5e5e5e;strokeWidth=2;spacingTop=-3;spacingBottom=-3;spacingLeft=-3;spacingRight=-3;labelBackgroundColor=none;rounded=1;html=1;whiteSpace=wrap;fontColor=#000000;" parent="yc3m5w_ezIkJ8CxKZsT--27" vertex="1">
                    <mxGeometry width="101" height="76" as="geometry"/>
                </mxCell>
                <mxCell id="yc3m5w_ezIkJ8CxKZsT--29" value="&lt;div style=&quot;font-size: 1px&quot;&gt;&lt;p style=&quot;align:center;margin-left:0;margin-right:0;margin-top:0px;margin-bottom:0px;text-indent:0;valign:middle;direction:ltr;&quot;&gt;&lt;font style=&quot;font-size: 14.11px; font-family: Arial; direction: ltr; letter-spacing: 0px; line-height: 100%; opacity: 1;&quot;&gt;Analyze for Tabular Report &lt;/font&gt;&lt;/p&gt;&lt;/div&gt;" style="text;vsdxID=28;fillColor=none;gradientColor=none;strokeColor=none;strokeWidth=2;spacingTop=-3;spacingBottom=-3;spacingLeft=-3;spacingRight=-3;labelBackgroundColor=none;rounded=1;html=1;whiteSpace=wrap;verticalAlign=middle;align=center;;html=1;fontColor=#000000;" parent="yc3m5w_ezIkJ8CxKZsT--27" vertex="1">
                    <mxGeometry x="-0.29999999999999716" y="-0.2" width="101.6" height="76.2" as="geometry"/>
                </mxCell>
                <mxCell id="yc3m5w_ezIkJ8CxKZsT--30" style="vsdxID=30;edgeStyle=none;startArrow=none;endArrow=block;startSize=5;endSize=5;strokeColor=#5E5E5E;spacingTop=-3;spacingBottom=-3;spacingLeft=-3;spacingRight=-3;verticalAlign=middle;html=1;labelBackgroundColor=none;rounded=1;fontColor=#000000;" parent="1" edge="1">
                    <mxGeometry relative="1" as="geometry">
                        <mxPoint as="offset"/>
                        <Array as="points"/>
                        <mxPoint x="1488.3" y="370" as="sourcePoint"/>
                        <mxPoint x="1520.3" y="370" as="targetPoint"/>
                    </mxGeometry>
                </mxCell>
                <mxCell id="yc3m5w_ezIkJ8CxKZsT--31" style="vsdxID=31;fillColor=none;gradientColor=none;strokeColor=none;strokeWidth=2;spacingTop=-3;spacingBottom=-3;spacingLeft=-3;spacingRight=-3;labelBackgroundColor=none;rounded=1;html=1;whiteSpace=wrap;fontColor=#000000;" parent="1" vertex="1">
                    <mxGeometry x="1520.3" y="332" width="101" height="76" as="geometry"/>
                </mxCell>
                <mxCell id="yc3m5w_ezIkJ8CxKZsT--32" style="vsdxID=32;fillColor=#FFFFFF;gradientColor=none;shape=stencil(fZNbEoIwDEVX018mNOODT8fHBlwBA1U6IjgVFVy9hbTSFvSvaW4mJ7cNw+29SG+Ccbg3qr6Il8ybguGOcS6rQijZ6BPDPcPtqVbirOpHlVN8S7WSw3AjcqqJezWHVGVH+RZ0BxHGqwUlqPJaP/uOrclTqqOIhAcSZg9FytiXmpBHRg4tN/2jZWI03CtpkUKMLEqHrmBoCBvds5SVA5csvz26iX4KmKz1sD4kBIQAPqAzBIYSnHgygzjKDcNfC0e1RV59LbGM7hQhtoV0jQm4f4E63s8UzKCOjxnCt/7rWkp3FvQVODVnBvHPX9SH4cfTLsiypIVx8+GG6CvaLtx/AA==);strokeColor=#5e5e5e;strokeWidth=2;spacingTop=-3;spacingBottom=-3;spacingLeft=-3;spacingRight=-3;labelBackgroundColor=none;rounded=1;html=1;whiteSpace=wrap;fontColor=#000000;" parent="yc3m5w_ezIkJ8CxKZsT--31" vertex="1">
                    <mxGeometry width="101" height="76" as="geometry"/>
                </mxCell>
                <mxCell id="yc3m5w_ezIkJ8CxKZsT--33" value="&lt;div style=&quot;font-size: 1px&quot;&gt;&lt;p style=&quot;align:center;margin-left:0;margin-right:0;margin-top:0px;margin-bottom:0px;text-indent:0;valign:middle;direction:ltr;&quot;&gt;&lt;font style=&quot;font-size: 14.11px; font-family: Arial; direction: ltr; letter-spacing: 0px; line-height: 100%; opacity: 1;&quot;&gt;View&amp;nbsp;&lt;/font&gt;&lt;/p&gt;&lt;p style=&quot;align:center;margin-left:0;margin-right:0;margin-top:0px;margin-bottom:0px;text-indent:0;valign:middle;direction:ltr;&quot;&gt;&lt;font style=&quot;font-size: 14.11px; font-family: Arial; direction: ltr; letter-spacing: 0px; line-height: 100%; opacity: 1;&quot;&gt;Analysis&amp;nbsp;&lt;/font&gt;&lt;/p&gt;&lt;p style=&quot;align:center;margin-left:0;margin-right:0;margin-top:0px;margin-bottom:0px;text-indent:0;valign:middle;direction:ltr;&quot;&gt;&lt;font style=&quot;font-size: 14.11px; font-family: Arial; direction: ltr; letter-spacing: 0px; line-height: 100%; opacity: 1;&quot;&gt;Results&amp;nbsp;&lt;/font&gt;&lt;/p&gt;&lt;p style=&quot;align:center;margin-left:0;margin-right:0;margin-top:0px;margin-bottom:0px;text-indent:0;valign:middle;direction:ltr;&quot;&gt;&lt;font style=&quot;font-size: 14.11px; font-family: Arial; direction: ltr; letter-spacing: 0px; line-height: 100%; opacity: 1;&quot;&gt;in Table&lt;/font&gt;&lt;/p&gt;&lt;/div&gt;" style="text;vsdxID=31;fillColor=none;gradientColor=none;strokeColor=none;strokeWidth=2;spacingTop=-3;spacingBottom=-3;spacingLeft=-3;spacingRight=-3;labelBackgroundColor=none;rounded=1;html=1;whiteSpace=wrap;verticalAlign=middle;align=center;;html=1;fontColor=#000000;" parent="yc3m5w_ezIkJ8CxKZsT--31" vertex="1">
                    <mxGeometry y="-0.2" width="101.6" height="76.2" as="geometry"/>
                </mxCell>
                <mxCell id="yc3m5w_ezIkJ8CxKZsT--34" style="vsdxID=33;fillColor=none;gradientColor=none;strokeColor=none;strokeWidth=2;spacingTop=-3;spacingBottom=-3;spacingLeft=-3;spacingRight=-3;labelBackgroundColor=none;rounded=1;html=1;whiteSpace=wrap;fontColor=#000000;" parent="1" vertex="1">
                    <mxGeometry x="1160" y="205" width="75" height="76" as="geometry"/>
                </mxCell>
                <mxCell id="yc3m5w_ezIkJ8CxKZsT--35" style="vsdxID=34;fillColor=#FFFFFF;gradientColor=none;shape=stencil(fZNbEoIwDEVX018mNOODT8fHBlwBA1U6IjgVFVy9hbTSFvSvaW4mJ7cNw+29SG+Ccbg3qr6Il8ybguGOcS6rQijZ6BPDPcPtqVbirOpHlVN8S7WSw3AjcqqJezWHVGVH+RZ0BxHGqwUlqPJaP/uOrclTqqOIhAcSZg9FytiXmpBHRg4tN/2jZWI03CtpkUKMLEqHrmBoCBvds5SVA5csvz26iX4KmKz1sD4kBIQAPqAzBIYSnHgygzjKDcNfC0e1RV59LbGM7hQhtoV0jQm4f4E63s8UzKCOjxnCt/7rWkp3FvQVODVnBvHPX9SH4cfTLsiypIVx8+GG6CvaLtx/AA==);strokeColor=#5e5e5e;strokeWidth=2;spacingTop=-3;spacingBottom=-3;spacingLeft=-3;spacingRight=-3;labelBackgroundColor=none;rounded=1;html=1;whiteSpace=wrap;fontColor=#000000;" parent="yc3m5w_ezIkJ8CxKZsT--34" vertex="1">
                    <mxGeometry width="75" height="76" as="geometry"/>
                </mxCell>
                <mxCell id="yc3m5w_ezIkJ8CxKZsT--36" value="&lt;div style=&quot;&quot;&gt;&lt;p style=&quot;margin: 0px; text-indent: 0px; direction: ltr;&quot;&gt;&lt;font face=&quot;Arial&quot;&gt;&lt;span style=&quot;font-size: 11.29px;&quot;&gt;Persist&lt;/span&gt;&lt;/font&gt;&lt;/p&gt;&lt;p style=&quot;margin: 0px; text-indent: 0px; direction: ltr;&quot;&gt;&lt;font face=&quot;Arial&quot;&gt;&lt;span style=&quot;font-size: 11.29px;&quot;&gt;Data&amp;nbsp;&lt;/span&gt;&lt;/font&gt;&lt;span style=&quot;font-size: 11.29px; font-family: Arial; background-color: initial;&quot;&gt;In&amp;nbsp;&lt;/span&gt;&lt;/p&gt;&lt;p style=&quot;margin: 0px; text-indent: 0px; direction: ltr;&quot;&gt;&lt;font face=&quot;Arial&quot;&gt;&lt;span style=&quot;font-size: 11.29px;&quot;&gt;Datastore&lt;/span&gt;&lt;/font&gt;&lt;/p&gt;&lt;/div&gt;" style="text;vsdxID=33;fillColor=none;gradientColor=none;strokeColor=none;strokeWidth=2;spacingTop=-3;spacingBottom=-3;spacingLeft=-3;spacingRight=-3;labelBackgroundColor=none;rounded=1;html=1;whiteSpace=wrap;verticalAlign=middle;align=center;;html=1;fontColor=#000000;" parent="yc3m5w_ezIkJ8CxKZsT--34" vertex="1">
                    <mxGeometry y="-0.2" width="75.44554455445548" height="76.2" as="geometry"/>
                </mxCell>
                <mxCell id="yc3m5w_ezIkJ8CxKZsT--37" value="" style="edgeStyle=orthogonalEdgeStyle;rounded=1;orthogonalLoop=1;jettySize=auto;html=1;fontColor=#000000;" parent="1" source="yc3m5w_ezIkJ8CxKZsT--38" target="yc3m5w_ezIkJ8CxKZsT--45" edge="1">
                    <mxGeometry relative="1" as="geometry"/>
                </mxCell>
                <mxCell id="yc3m5w_ezIkJ8CxKZsT--38" style="vsdxID=38;fillColor=none;gradientColor=none;strokeColor=none;strokeWidth=2;spacingTop=-3;spacingBottom=-3;spacingLeft=-3;spacingRight=-3;labelBackgroundColor=none;rounded=1;html=1;whiteSpace=wrap;fontColor=#000000;" parent="1" vertex="1">
                    <mxGeometry x="1826" y="267.59999999999997" width="101" height="76" as="geometry"/>
                </mxCell>
                <mxCell id="yc3m5w_ezIkJ8CxKZsT--39" style="vsdxID=39;fillColor=#FFFFFF;gradientColor=none;shape=stencil(fZNbEoIwDEVX018mNOODT8fHBlwBA1U6IjgVFVy9hbTSFvSvaW4mJ7cNw+29SG+Ccbg3qr6Il8ybguGOcS6rQijZ6BPDPcPtqVbirOpHlVN8S7WSw3AjcqqJezWHVGVH+RZ0BxHGqwUlqPJaP/uOrclTqqOIhAcSZg9FytiXmpBHRg4tN/2jZWI03CtpkUKMLEqHrmBoCBvds5SVA5csvz26iX4KmKz1sD4kBIQAPqAzBIYSnHgygzjKDcNfC0e1RV59LbGM7hQhtoV0jQm4f4E63s8UzKCOjxnCt/7rWkp3FvQVODVnBvHPX9SH4cfTLsiypIVx8+GG6CvaLtx/AA==);strokeColor=#5e5e5e;strokeWidth=2;spacingTop=-3;spacingBottom=-3;spacingLeft=-3;spacingRight=-3;labelBackgroundColor=none;rounded=1;html=1;whiteSpace=wrap;fontColor=#000000;" parent="yc3m5w_ezIkJ8CxKZsT--38" vertex="1">
                    <mxGeometry width="101" height="76" as="geometry"/>
                </mxCell>
                <mxCell id="yc3m5w_ezIkJ8CxKZsT--40" value="&lt;div style=&quot;font-size: 1px&quot;&gt;&lt;p style=&quot;align:center;margin-left:0;margin-right:0;margin-top:0px;margin-bottom:0px;text-indent:0;valign:middle;direction:ltr;&quot;&gt;&lt;font style=&quot;font-size: 14.11px; font-family: Arial; direction: ltr; letter-spacing: 0px; line-height: 100%; opacity: 1;&quot;&gt;Interim Report&lt;/font&gt;&lt;/p&gt;&lt;/div&gt;" style="text;vsdxID=38;fillColor=none;gradientColor=none;strokeColor=none;strokeWidth=2;spacingTop=-3;spacingBottom=-3;spacingLeft=-3;spacingRight=-3;labelBackgroundColor=none;rounded=1;html=1;whiteSpace=wrap;verticalAlign=middle;align=center;;html=1;fontColor=#000000;" parent="yc3m5w_ezIkJ8CxKZsT--38" vertex="1">
                    <mxGeometry y="-0.2" width="101.6" height="76.2" as="geometry"/>
                </mxCell>
                <mxCell id="yc3m5w_ezIkJ8CxKZsT--41" style="vsdxID=40;fillColor=none;gradientColor=none;strokeColor=none;strokeWidth=2;spacingTop=-3;spacingBottom=-3;spacingLeft=-3;spacingRight=-3;labelBackgroundColor=none;rounded=1;html=1;whiteSpace=wrap;fontColor=#000000;" parent="1" vertex="1">
                    <mxGeometry x="1655.3" y="282" width="47" height="47" as="geometry"/>
                </mxCell>
                <mxCell id="yc3m5w_ezIkJ8CxKZsT--42" style="vsdxID=41;fillColor=#FFFFFF;gradientColor=none;shape=stencil(UzV2Ls5ILEhVNTIoLinKz04tz0wpyVA1dlE1MsrMy0gtyiwBslSNXVWNndPyi1LTi/JL81Ig/IJEkEoQKze/DGRCBUSfAUiHkUElhGcK4bpBVOZk5iGpNEVVikeloQHZpsK0YlWLz1QgA+HFtMycHEgIIcujBwlQCBKcxq4A);strokeColor=#5e5e5e;strokeWidth=2;spacingTop=-3;spacingBottom=-3;spacingLeft=-3;spacingRight=-3;labelBackgroundColor=none;rounded=0;html=1;whiteSpace=wrap;fontColor=#000000;" parent="yc3m5w_ezIkJ8CxKZsT--41" vertex="1">
                    <mxGeometry width="47" height="47" as="geometry"/>
                </mxCell>
                <mxCell id="yc3m5w_ezIkJ8CxKZsT--43" style="vsdxID=45;fillColor=none;gradientColor=none;strokeColor=none;strokeWidth=2;spacingTop=-3;spacingBottom=-3;spacingLeft=-3;spacingRight=-3;labelBackgroundColor=none;rounded=1;html=1;whiteSpace=wrap;fontColor=#000000;" parent="1" vertex="1">
                    <mxGeometry x="1967.7" y="267.59999999999997" width="101" height="76" as="geometry"/>
                </mxCell>
                <mxCell id="yc3m5w_ezIkJ8CxKZsT--44" style="vsdxID=46;fillColor=#FFFFFF;gradientColor=none;shape=stencil(fZNbEoIwDEVX018mNOODT8fHBlwBA1U6IjgVFVy9hbTSFvSvaW4mJ7cNw+29SG+Ccbg3qr6Il8ybguGOcS6rQijZ6BPDPcPtqVbirOpHlVN8S7WSw3AjcqqJezWHVGVH+RZ0BxHGqwUlqPJaP/uOrclTqqOIhAcSZg9FytiXmpBHRg4tN/2jZWI03CtpkUKMLEqHrmBoCBvds5SVA5csvz26iX4KmKz1sD4kBIQAPqAzBIYSnHgygzjKDcNfC0e1RV59LbGM7hQhtoV0jQm4f4E63s8UzKCOjxnCt/7rWkp3FvQVODVnBvHPX9SH4cfTLsiypIVx8+GG6CvaLtx/AA==);strokeColor=#5e5e5e;strokeWidth=2;spacingTop=-3;spacingBottom=-3;spacingLeft=-3;spacingRight=-3;labelBackgroundColor=none;rounded=1;html=1;whiteSpace=wrap;fontColor=#000000;" parent="yc3m5w_ezIkJ8CxKZsT--43" vertex="1">
                    <mxGeometry width="101" height="76" as="geometry"/>
                </mxCell>
                <mxCell id="yc3m5w_ezIkJ8CxKZsT--45" value="&lt;div style=&quot;font-size: 1px&quot;&gt;&lt;p style=&quot;align:center;margin-left:0;margin-right:0;margin-top:0px;margin-bottom:0px;text-indent:0;valign:middle;direction:ltr;&quot;&gt;&lt;font style=&quot;font-size: 14.11px; font-family: Arial; direction: ltr; letter-spacing: 0px; line-height: 100%; opacity: 1;&quot;&gt;Final Report &lt;/font&gt;&lt;/p&gt;&lt;/div&gt;" style="text;vsdxID=45;fillColor=none;gradientColor=none;strokeColor=none;strokeWidth=2;spacingTop=-3;spacingBottom=-3;spacingLeft=-3;spacingRight=-3;labelBackgroundColor=none;rounded=1;html=1;whiteSpace=wrap;verticalAlign=middle;align=center;;html=1;fontColor=#000000;" parent="yc3m5w_ezIkJ8CxKZsT--43" vertex="1">
                    <mxGeometry y="-0.2" width="101.6" height="76.2" as="geometry"/>
                </mxCell>
                <mxCell id="yc3m5w_ezIkJ8CxKZsT--46" style="vsdxID=47;fillColor=none;gradientColor=none;strokeColor=none;strokeWidth=4;spacingTop=-3;spacingBottom=-3;spacingLeft=-3;spacingRight=-3;labelBackgroundColor=none;rounded=1;html=1;whiteSpace=wrap;fontColor=#000000;fontStyle=1" parent="1" vertex="1">
                    <mxGeometry x="2114.2" y="286.59999999999997" width="38" height="38" as="geometry"/>
                </mxCell>
                <mxCell id="yc3m5w_ezIkJ8CxKZsT--47" style="vsdxID=48;fillColor=#FFFFFF;gradientColor=none;shape=stencil(hVJbEoIwDDxNf5mQDOKv4+MCnoCRKh0RnAIKnt5COkIraL+SdJPdZFbQtsqSuxQIVa3Lq3yqtM4E7QSiKjKpVW0iQXtB23Op5UWXTZFyfk8MEmGoyJR7wh6NkOjTUb0k1yCgMI74gztv5aNnbG0PAH92nEecHhh7ajSDQx9tC3EcrOz0FsfS2qLQa2vJYYGOXMBAC5sZZsSA0OUep1oacFmn2shF0Peys6zetr2ICMYXuvxTja6kpb3/8U9v6Upq/dN2+Fsj+filG5h4MBfbTuU5e/PjCRP4ZjQlNjLt3w==);strokeColor=#5e5e5e;strokeWidth=4;spacingTop=-3;spacingBottom=-3;spacingLeft=-3;spacingRight=-3;labelBackgroundColor=none;rounded=1;html=1;whiteSpace=wrap;fontColor=#000000;" parent="yc3m5w_ezIkJ8CxKZsT--46" vertex="1">
                    <mxGeometry width="38" height="38" as="geometry"/>
                </mxCell>
                <mxCell id="yc3m5w_ezIkJ8CxKZsT--48" value="&lt;div style=&quot;font-size: 1px&quot;&gt;&lt;p style=&quot;align:center;margin-left:0;margin-right:0;margin-top:0px;margin-bottom:0px;text-indent:0;valign:middle;direction:ltr;&quot;&gt;&lt;font style=&quot;font-size: 14.11px; font-family: Arial; direction: ltr; letter-spacing: 0px; line-height: 100%; opacity: 1;&quot;&gt;&lt;b&gt;End&lt;/b&gt;&lt;/font&gt;&lt;/p&gt;&lt;/div&gt;" style="text;vsdxID=47;fillColor=none;gradientColor=none;strokeColor=none;strokeWidth=4;spacingTop=-3;spacingBottom=-3;spacingLeft=-3;spacingRight=-3;labelBackgroundColor=none;rounded=1;html=1;whiteSpace=wrap;verticalAlign=middle;align=center;;html=1;fontColor=#000000;" parent="yc3m5w_ezIkJ8CxKZsT--46" vertex="1">
                    <mxGeometry y="39.27" width="38.1" height="12.7" as="geometry"/>
                </mxCell>
                <mxCell id="yc3m5w_ezIkJ8CxKZsT--55" style="vsdxID=54;fillColor=none;gradientColor=none;strokeColor=none;strokeWidth=2;spacingTop=-3;spacingBottom=-3;spacingLeft=-3;spacingRight=-3;labelBackgroundColor=none;rounded=1;html=1;whiteSpace=wrap;fontColor=#000000;" parent="1" vertex="1">
                    <mxGeometry x="790" y="205" width="101" height="76" as="geometry"/>
                </mxCell>
                <mxCell id="yc3m5w_ezIkJ8CxKZsT--56" style="vsdxID=55;fillColor=#FFFFFF;gradientColor=none;shape=stencil(fZNbEoIwDEVX018mNOODT8fHBlwBA1U6IjgVFVy9hbTSFvSvaW4mJ7cNw+29SG+Ccbg3qr6Il8ybguGOcS6rQijZ6BPDPcPtqVbirOpHlVN8S7WSw3AjcqqJezWHVGVH+RZ0BxHGqwUlqPJaP/uOrclTqqOIhAcSZg9FytiXmpBHRg4tN/2jZWI03CtpkUKMLEqHrmBoCBvds5SVA5csvz26iX4KmKz1sD4kBIQAPqAzBIYSnHgygzjKDcNfC0e1RV59LbGM7hQhtoV0jQm4f4E63s8UzKCOjxnCt/7rWkp3FvQVODVnBvHPX9SH4cfTLsiypIVx8+GG6CvaLtx/AA==);strokeColor=#5e5e5e;strokeWidth=2;spacingTop=-3;spacingBottom=-3;spacingLeft=-3;spacingRight=-3;labelBackgroundColor=none;rounded=1;html=1;whiteSpace=wrap;fontColor=#000000;" parent="yc3m5w_ezIkJ8CxKZsT--55" vertex="1">
                    <mxGeometry width="101" height="76" as="geometry"/>
                </mxCell>
                <mxCell id="yc3m5w_ezIkJ8CxKZsT--57" value="&lt;font face=&quot;Arial&quot;&gt;&lt;span style=&quot;font-size: 11.29px;&quot;&gt;Refine &lt;br&gt;Task Data&lt;/span&gt;&lt;/font&gt;" style="text;vsdxID=54;fillColor=none;gradientColor=none;strokeColor=none;strokeWidth=2;spacingTop=-3;spacingBottom=-3;spacingLeft=-3;spacingRight=-3;labelBackgroundColor=none;rounded=1;html=1;whiteSpace=wrap;verticalAlign=middle;align=center;;html=1;fontColor=#000000;" parent="yc3m5w_ezIkJ8CxKZsT--55" vertex="1">
                    <mxGeometry y="-0.2" width="101.6" height="76.2" as="geometry"/>
                </mxCell>
                <mxCell id="yc3m5w_ezIkJ8CxKZsT--61" style="vsdxID=60;fillColor=none;gradientColor=none;fillOpacity=0;strokeOpacity=0;strokeWidth=2;spacingTop=-3;spacingBottom=-3;spacingLeft=-3;spacingRight=-3;labelBackgroundColor=none;rounded=1;strokeColor=none;html=1;whiteSpace=wrap;fontColor=#000000;" parent="1" vertex="1">
                    <mxGeometry x="790" y="133" width="101" height="40" as="geometry"/>
                </mxCell>
                <mxCell id="yc3m5w_ezIkJ8CxKZsT--62" style="vsdxID=61;fillColor=#ffffff;gradientColor=none;fillOpacity=0;strokeOpacity=0;shape=stencil(hZNRkoIwDIZP09dOaATto+PqBTwBI92lsyw4FRU9/VZSlrZblacm+f/pl5Qw3Jzq8qiYgFNvum911VVfM/xgQui2Vkb39sRwy3Dz2Rn1ZbpzW1F8LK1SwJhRFXmyh1pAaQ57fVeUA47ZMqcCOX+6y+PGwdWpdKNI8sVyTOxIezgbEmeh2oULLlB6n7tnEI6HF9IZROAfkELkE9oNfcF4O6wtQKNbD1YWXOQBMLyilSvbfEgMESFACPisI4z1mBpYAnl2OAO8GfFsmLrIebEKsf3GppTkMaw/LYxVz3i9J0laEsDzK2f/WcKH/6P1esJQgck5JUhf/7n2MK4ILY9uGtowvx6vlE3ROuL2Fw==);strokeWidth=2;spacingTop=-3;spacingBottom=-3;spacingLeft=-3;spacingRight=-3;labelBackgroundColor=none;rounded=1;html=1;whiteSpace=wrap;fontColor=#000000;" parent="yc3m5w_ezIkJ8CxKZsT--61" vertex="1">
                    <mxGeometry width="101" height="40" as="geometry"/>
                </mxCell>
                <mxCell id="yc3m5w_ezIkJ8CxKZsT--63" value="&lt;div style=&quot;font-size: 1px&quot;&gt;&lt;p style=&quot;align:center;margin-left:0;margin-right:0;margin-top:0px;margin-bottom:0px;text-indent:0;valign:middle;direction:ltr;&quot;&gt;&lt;font style=&quot;font-size: 14.11px; font-family: Arial; direction: ltr; letter-spacing: 0px; line-height: 100%; opacity: 1;&quot;&gt;&lt;b&gt;Assign Value&lt;/b&gt;&lt;/font&gt;&lt;/p&gt;&lt;p style=&quot;align:center;margin-left:0;margin-right:0;margin-top:0px;margin-bottom:0px;text-indent:0;valign:middle;direction:ltr;&quot;&gt;&lt;font style=&quot;font-size: 14.11px; font-family: Arial; direction: ltr; letter-spacing: 0px; line-height: 100%; opacity: 1;&quot;&gt;&lt;b&gt;Assign Effort&lt;/b&gt;&lt;/font&gt;&lt;/p&gt;&lt;/div&gt;" style="text;vsdxID=60;fillColor=none;gradientColor=none;fillOpacity=0;strokeOpacity=0;strokeWidth=2;spacingTop=-3;spacingBottom=-3;spacingLeft=-3;spacingRight=-3;labelBackgroundColor=none;rounded=1;strokeColor=none;html=1;whiteSpace=wrap;verticalAlign=middle;align=center;;html=1;fontColor=#000000;" parent="yc3m5w_ezIkJ8CxKZsT--61" vertex="1">
                    <mxGeometry x="3.17" y="2.8550000000000004" width="95.25" height="34.29" as="geometry"/>
                </mxCell>
                <mxCell id="yc3m5w_ezIkJ8CxKZsT--64" style="vsdxID=62;fillColor=none;gradientColor=none;fillOpacity=0;strokeOpacity=0;strokeWidth=2;spacingTop=-3;spacingBottom=-3;spacingLeft=-3;spacingRight=-3;labelBackgroundColor=none;rounded=1;strokeColor=none;html=1;whiteSpace=wrap;fontColor=#000000;" parent="1" vertex="1">
                    <mxGeometry x="1108.6" y="134" width="68" height="38" as="geometry"/>
                </mxCell>
                <mxCell id="yc3m5w_ezIkJ8CxKZsT--65" style="vsdxID=63;fillColor=#ffffff;gradientColor=none;fillOpacity=0;strokeOpacity=0;shape=stencil(fZNNjoMwDIVPk22U2ESIZdWfC8wJUElLNAxUKZ2hc/qmOKhxobDC9nv4c4IFbq91ebEC1LX33bf9c1VfC9wJANfW1rs+vAncC9yeOm/Pvru1FcWXMihBjRlbkUc/1aBKf/xy/5ZySqLODRXI+dP9PjsOsU6le/wChQdSHm+epJprY5hJo1XyxC4DUBlkTNyB2Qek0EgzCTAVjM3VJvRvXJuQFpnMcka7Clvk0gAHVhwwwEulOeOnmXDBgvMzW8Bmloi2Cs4M0zBGZgWnT+d7DcRx0yNDrvmEm9zKgmFO+7pl/Q7Br32CTEdBrsD58SwQrv2x4WVcDFoZ1zS0V2n9fZFCipYQ9w8=);strokeWidth=2;spacingTop=-3;spacingBottom=-3;spacingLeft=-3;spacingRight=-3;labelBackgroundColor=none;rounded=1;html=1;whiteSpace=wrap;fontColor=#000000;" parent="yc3m5w_ezIkJ8CxKZsT--64" vertex="1">
                    <mxGeometry width="68" height="38" as="geometry"/>
                </mxCell>
                <mxCell id="yc3m5w_ezIkJ8CxKZsT--66" value="&lt;div style=&quot;font-size: 1px&quot;&gt;&lt;p style=&quot;align:center;margin-left:0;margin-right:0;margin-top:0px;margin-bottom:0px;text-indent:0;valign:middle;direction:ltr;&quot;&gt;&lt;font style=&quot;font-size: 14.11px; font-family: Arial; direction: ltr; letter-spacing: 0px; line-height: 100%; opacity: 1;&quot;&gt;&lt;b&gt;Load&lt;/b&gt;&lt;/font&gt;&lt;/p&gt;&lt;/div&gt;" style="text;vsdxID=62;fillColor=none;gradientColor=none;fillOpacity=0;strokeOpacity=0;strokeWidth=2;spacingTop=-3;spacingBottom=-3;spacingLeft=-3;spacingRight=-3;labelBackgroundColor=none;rounded=1;strokeColor=none;html=1;whiteSpace=wrap;verticalAlign=middle;align=center;;html=1;fontColor=#000000;" parent="yc3m5w_ezIkJ8CxKZsT--64" vertex="1">
                    <mxGeometry x="3.17" y="3.125" width="62.87" height="31.75" as="geometry"/>
                </mxCell>
                <mxCell id="yc3m5w_ezIkJ8CxKZsT--70" style="vsdxID=69;fillColor=none;gradientColor=none;strokeColor=none;strokeWidth=4;spacingTop=-3;spacingBottom=-3;spacingLeft=-3;spacingRight=-3;labelBackgroundColor=none;rounded=1;html=1;whiteSpace=wrap;fontColor=#000000;" parent="1" vertex="1">
                    <mxGeometry x="1715.3" y="215" width="85.5" height="66" as="geometry"/>
                </mxCell>
                <mxCell id="yc3m5w_ezIkJ8CxKZsT--71" style="vsdxID=70;fillColor=#FFFFFF;gradientColor=none;shape=stencil(hZNdcsIgEIBPwyuz7CYqjx2rF+gJMoY2TNvEwdhqT1/MEgMhtTyxy8fy8Sdoe2qqoxEIp9517+bb1n0j6Fkg2rYxzva+J2gnaPvaOfPmunNbc3ysPIkwZEzNc9SNRqjc4cX+GM6R3ICO24ohrvLZfd1WvzBbynUoceUEDNGe2cPZMax4EGW5CbSKcbhgEl5xNFEIUSvKgFOKh3AlNU7Lw5M3+LBtZAuJqvbl1SNdSF31vf7dN9pQyCgACUWqGR0SZdRfrrqQqBPf+aRcWK9lgal04jM5ptLxzmjO0OJpLRhPU5auI7edePXPdWO+vfTBjNbxoVH2IBecH79f3xk+zRjMf5RP8W+k3S8=);strokeColor=#5e5e5e;strokeWidth=4;spacingTop=-3;spacingBottom=-3;spacingLeft=-3;spacingRight=-3;labelBackgroundColor=none;rounded=1;html=1;whiteSpace=wrap;fontColor=#000000;" parent="yc3m5w_ezIkJ8CxKZsT--70" vertex="1">
                    <mxGeometry width="85.5" height="66" as="geometry"/>
                </mxCell>
                <mxCell id="yc3m5w_ezIkJ8CxKZsT--72" style="vsdxID=71;fillColor=#FFFFFF;gradientColor=none;shape=stencil(fVLRUsMgEPwaXm/gDgg8OrX9Ab8g06Bh1KRDU61+vTRHFXQsT9zeLrc7nKDNcewPQaA8Lml+Du9xWEZB9wIxTmNIcck3QVtBm8c5hac0n6aB60OfmShXJAysURc2yj7tH+JnYEwCqc5wg5Wv89tl4rn0ufXBleVyx8yXOFVM1KC7lu1A+VqwPyV+WxVJBwaLpEDWAxJDZ2SIrhT8fla6QqFC0UDX2QWyBgz9DJd3fwwbA1Y1hnWOQLcMmw6889UxrXuNIOuj2iQWAX0bRiswug2TnUvThtEE5G6GcR68F///Vb6sK7EWvE117/f6ZIhXj7Zf);strokeColor=#ababab;strokeWidth=4;spacingTop=-3;spacingBottom=-3;spacingLeft=-3;spacingRight=-3;labelBackgroundColor=none;rounded=1;html=1;whiteSpace=wrap;fontColor=#000000;" parent="yc3m5w_ezIkJ8CxKZsT--70" vertex="1">
                    <mxGeometry width="85.5" height="66" as="geometry"/>
                </mxCell>
                <mxCell id="yc3m5w_ezIkJ8CxKZsT--73" style="vsdxID=72;fillColor=#FFFFFF;gradientColor=none;shape=stencil(fZJBUsMwDEVP463Gtiw5XjKlXIATZBpDMkDScVMonB43cmkMTLOynv639SdSuDn07T4qqw9zml7ix9DNvcJ7Ze0w9jENcz4p3CrcPE0pPqfpOHZS79ustHohsROPOautbtPucfiKwjSg8SQNcb5N7+cXT6UvrU+pmgAhLORBxK/DuBJbBhMqAxEYXht2xyTXm2JpwDbFUhDZH3SygjCjy8UFkQHniwqLikC7oiqIMOe7vq/v/sxMDoKrZmYGf2tk8sBh/XE9PzdAuO7XWdgAmToLeyD9j6OE4BzC1rnYAYabua6/6pLLZFIFy4dlTZZCNmzd+71SGck64vYb);strokeColor=#545454;strokeWidth=4;spacingTop=-3;spacingBottom=-3;spacingLeft=-3;spacingRight=-3;labelBackgroundColor=none;rounded=1;html=1;whiteSpace=wrap;fontColor=#000000;" parent="yc3m5w_ezIkJ8CxKZsT--70" vertex="1">
                    <mxGeometry width="85.5" height="66" as="geometry"/>
                </mxCell>
                <mxCell id="yc3m5w_ezIkJ8CxKZsT--74" style="vsdxID=73;fillColor=#FFFFFF;gradientColor=none;shape=stencil(dZFBEoIwDEVP020nTURk6SBewBMwUKWjAlNAwdNbmi5Axl3//y9NmgpKuypvtUDoetvc9duUfSXoJBBNXWlrencSlAlKr43VN9sMdcm6zR2J4B1dco2aaYTcFhfz0eyBJBVHHHDls3nNHceQczQt1ZnBh6n/gglJpZZwMVi+Vq3xIJO9TJCtEdlCGR0CFBwFIGEXKGIvknF41kQbyveG42ZWh6ym/S2h1B38Br3g5S+z3207i3+Ksi8=);strokeColor=#5e5e5e;strokeWidth=4;spacingTop=-3;spacingBottom=-3;spacingLeft=-3;spacingRight=-3;labelBackgroundColor=none;rounded=1;html=1;whiteSpace=wrap;fontColor=#000000;" parent="yc3m5w_ezIkJ8CxKZsT--70" vertex="1">
                    <mxGeometry width="85.5" height="66" as="geometry"/>
                </mxCell>
                <mxCell id="yc3m5w_ezIkJ8CxKZsT--75" value="&lt;div style=&quot;font-size: 1px&quot;&gt;&lt;p style=&quot;align:center;margin-left:0;margin-right:0;margin-top:0px;margin-bottom:0px;text-indent:0;valign:middle;direction:ltr;&quot;&gt;&lt;font style=&quot;font-size: 9.88px; font-family: Arial; direction: ltr; letter-spacing: 0px; line-height: 100%; opacity: 1;&quot;&gt;Chart&lt;/font&gt;&lt;/p&gt;&lt;/div&gt;" style="text;vsdxID=69;fillColor=none;gradientColor=none;strokeColor=none;strokeWidth=4;spacingTop=-3;spacingBottom=-3;spacingLeft=-3;spacingRight=-3;labelBackgroundColor=none;rounded=1;html=1;whiteSpace=wrap;verticalAlign=middle;align=center;;html=1;fontColor=#000000;" parent="yc3m5w_ezIkJ8CxKZsT--70" vertex="1">
                    <mxGeometry x="8.226136363636362" y="-0.048" width="69.92863636363636" height="9.911999999999999" as="geometry"/>
                </mxCell>
                <mxCell id="yc3m5w_ezIkJ8CxKZsT--76" style="vsdxID=74;fillColor=none;gradientColor=none;strokeColor=none;strokeWidth=2;spacingTop=-3;spacingBottom=-3;spacingLeft=-3;spacingRight=-3;labelBackgroundColor=none;rounded=1;html=1;whiteSpace=wrap;fontColor=#000000;" parent="1" vertex="1">
                    <mxGeometry x="1719.8" y="345" width="76" height="50" as="geometry"/>
                </mxCell>
                <mxCell id="yc3m5w_ezIkJ8CxKZsT--77" style="vsdxID=75;fillColor=#ffffff;gradientColor=none;shape=stencil(UzV2Ls5ILEhVNTIoLinKz04tz0wpyVA1dlE1MsrMy0gtyiwBslSNXVWNndPyi1LTi/JL81Ig/IJEkEoQKze/DGRCBUSfAUiHkUElMs8NojAnMw9JoZEpmSqhXKxKDchUiWI7kIHwXVpmTg6yDHo4AIUgYWjsCgA=);strokeColor=#5e5e5e;strokeWidth=2;spacingTop=-3;spacingBottom=-3;spacingLeft=-3;spacingRight=-3;labelBackgroundColor=none;rounded=0;html=1;whiteSpace=wrap;fontColor=#000000;" parent="yc3m5w_ezIkJ8CxKZsT--76" vertex="1">
                    <mxGeometry width="76" height="50" as="geometry"/>
                </mxCell>
                <mxCell id="yc3m5w_ezIkJ8CxKZsT--78" style="vsdxID=76;fillColor=#ffffff;gradientColor=none;shape=stencil(UzV2Ls5ILEhVNTIoLinKz04tz0wpyVA1dlE1MsrMy0gtyiwBslSNXVWNndPyi1LTi/JL81Ig/IJEkEoQKze/DGRCBUSfkSlIi5FBJYRrAOa5QVTmZOYhqTQ1IFMl1AqsStGsJ0Epiv1ABsKDaZk5Ocgy6EEBFIIEo7ErAA==);strokeColor=#5e5e5e;strokeWidth=2;spacingTop=-3;spacingBottom=-3;spacingLeft=-3;spacingRight=-3;labelBackgroundColor=none;rounded=0;html=1;whiteSpace=wrap;fontColor=#000000;" parent="yc3m5w_ezIkJ8CxKZsT--76" vertex="1">
                    <mxGeometry width="76" height="50" as="geometry"/>
                </mxCell>
                <mxCell id="yc3m5w_ezIkJ8CxKZsT--79" style="vsdxID=77;fillColor=#ffffff;gradientColor=none;shape=stencil(UzV2Ls5ILEhVNTIoLinKz04tz0wpyVA1dlE1MsrMy0gtyiwBslSNXVWNndPyi1LTi/JL81Ig/IJEkEoQKze/DGRCBUSfqQFIi5FBJYQL4blBVOZk5iGpNDclU6WRKW6laNaToBTFfiAD4cG0zJwcZBn0oAAKQYLR2BUA);strokeColor=#5e5e5e;strokeWidth=2;spacingTop=-3;spacingBottom=-3;spacingLeft=-3;spacingRight=-3;labelBackgroundColor=none;rounded=0;html=1;whiteSpace=wrap;fontColor=#000000;" parent="yc3m5w_ezIkJ8CxKZsT--76" vertex="1">
                    <mxGeometry width="76" height="50" as="geometry"/>
                </mxCell>
                <mxCell id="yc3m5w_ezIkJ8CxKZsT--80" style="vsdxID=78;fillColor=#ffffff;gradientColor=none;shape=stencil(UzV2Ls5ILEhVNTIoLinKz04tz0wpyVA1dlE1MsrMy0gtyiwBslSNXVWNndPyi1LTi/JL81Ig/IJEkEoQKze/DGRCBUSfuSlIi5FBJYRrAOa5QVTmZOYhqTQ0MCBXqZEpbrVoDiBBKYoDgAyEF9Myc3KQZdADAygECUhjVwA=);strokeColor=#5e5e5e;strokeWidth=2;spacingTop=-3;spacingBottom=-3;spacingLeft=-3;spacingRight=-3;labelBackgroundColor=none;rounded=0;html=1;whiteSpace=wrap;fontColor=#000000;" parent="yc3m5w_ezIkJ8CxKZsT--76" vertex="1">
                    <mxGeometry width="76" height="50" as="geometry"/>
                </mxCell>
                <mxCell id="yc3m5w_ezIkJ8CxKZsT--81" style="vsdxID=79;fillColor=#ffffff;gradientColor=none;shape=stencil(UzV2Ls5ILEhVNTIoLinKz04tz0wpyVA1dlE1MsrMy0gtyiwBslSNXVWNndPyi1LTi/JL81Ig/IJEkEoQKze/DGRCBUSfAUiHkUElhGdkCua6QVTmZOYhqYTKkaHU1AC3UgMyVaJaD2QgPJiWmZODLIMeFEAhSDAauwIA);strokeColor=#5e5e5e;strokeWidth=2;spacingTop=-3;spacingBottom=-3;spacingLeft=-3;spacingRight=-3;labelBackgroundColor=none;rounded=0;html=1;whiteSpace=wrap;fontColor=#000000;" parent="yc3m5w_ezIkJ8CxKZsT--76" vertex="1">
                    <mxGeometry width="76" height="50" as="geometry"/>
                </mxCell>
                <mxCell id="yc3m5w_ezIkJ8CxKZsT--82" style="vsdxID=80;fillColor=#ffffff;gradientColor=none;shape=stencil(UzV2Ls5ILEhVNTIoLinKz04tz0wpyVA1dlE1MsrMy0gtyiwBslSNXVWNndPyi1LTi/JL81Ig/IJEkEoQKze/DGRCBUSfkSlIi5FBJQrXDaI0JzMPSampAblKoVysStEcQIJSVAcAGQg/pmXm5CDLoIcGUAgSksauAA==);strokeColor=#5e5e5e;strokeWidth=2;spacingTop=-3;spacingBottom=-3;spacingLeft=-3;spacingRight=-3;labelBackgroundColor=none;rounded=0;html=1;whiteSpace=wrap;fontColor=#000000;" parent="yc3m5w_ezIkJ8CxKZsT--76" vertex="1">
                    <mxGeometry width="76" height="50" as="geometry"/>
                </mxCell>
                <mxCell id="yc3m5w_ezIkJ8CxKZsT--83" style="vsdxID=81;fillColor=#ffffff;gradientColor=none;shape=stencil(UzV2Ls5ILEhVNTIoLinKz04tz0wpyVA1dlE1MsrMy0gtyiwBslSNXVWNndPyi1LTi/JL81Ig/IJEkEoQKze/DGRCBUSfqQFIi5FBJYRrZArmukGU5mTmISk1NyVXKdQSrErRHECCUlQHABkIP6Zl5uQgy6CHBlAIEpLGrgA=);strokeColor=#5e5e5e;strokeWidth=2;spacingTop=-3;spacingBottom=-3;spacingLeft=-3;spacingRight=-3;labelBackgroundColor=none;rounded=0;html=1;whiteSpace=wrap;fontColor=#000000;" parent="yc3m5w_ezIkJ8CxKZsT--76" vertex="1">
                    <mxGeometry width="76" height="50" as="geometry"/>
                </mxCell>
                <mxCell id="yc3m5w_ezIkJ8CxKZsT--84" style="vsdxID=82;fillColor=#ffffff;gradientColor=none;shape=stencil(UzV2Ls5ILEhVNTIoLinKz04tz0wpyVA1dlE1MsrMy0gtyiwBslSNXVWNndPyi1LTi/JL81Ig/IJEkEoQKze/DGRCBUSfuSlIi5FBJYRrBOG6QZTmZOYhKTU0MCBbrakBbrVoTiBBKaoLgAyEL9Myc3KQZdDDAygECUtjVwA=);strokeColor=#5e5e5e;strokeWidth=2;spacingTop=-3;spacingBottom=-3;spacingLeft=-3;spacingRight=-3;labelBackgroundColor=none;rounded=0;html=1;whiteSpace=wrap;fontColor=#000000;" parent="yc3m5w_ezIkJ8CxKZsT--76" vertex="1">
                    <mxGeometry width="76" height="50" as="geometry"/>
                </mxCell>
                <mxCell id="yc3m5w_ezIkJ8CxKZsT--85" style="vsdxID=83;fillColor=#ffffff;gradientColor=none;shape=stencil(UzV2Ls5ILEhVNTIoLinKz04tz0wpyVA1dlE1MsrMy0gtyiwBslSNXVWNndPyi1LTi/JL81Ig/IJEkEoQKze/DGRCBUSfAUiHkUElhGcK4bpBVOZk5iGpNDIlV6m5KW6lBmSqRLUeyEB4MC0zJwdZBj0ogEKQYDR2BQA=);strokeColor=#5e5e5e;strokeWidth=2;spacingTop=-3;spacingBottom=-3;spacingLeft=-3;spacingRight=-3;labelBackgroundColor=none;rounded=0;html=1;whiteSpace=wrap;fontColor=#000000;" parent="yc3m5w_ezIkJ8CxKZsT--76" vertex="1">
                    <mxGeometry width="76" height="50" as="geometry"/>
                </mxCell>
                <mxCell id="yc3m5w_ezIkJ8CxKZsT--86" style="vsdxID=84;fillColor=#ffffff;gradientColor=none;shape=stencil(UzV2Ls5ILEhVNTIoLinKz04tz0wpyVA1dlE1MsrMy0gtyiwBslSNXVWNndPyi1LTi/JL81Ig/IJEkEoQKze/DGRCBUSfkSlIi5FBJYRragDmukGU5mTmISmFypGh1NwUt1I0B5CgFNUBQAbCj2mZOTnIMuihARSChKSxKwA=);strokeColor=#5e5e5e;strokeWidth=2;spacingTop=-3;spacingBottom=-3;spacingLeft=-3;spacingRight=-3;labelBackgroundColor=none;rounded=0;html=1;whiteSpace=wrap;fontColor=#000000;" parent="yc3m5w_ezIkJ8CxKZsT--76" vertex="1">
                    <mxGeometry width="76" height="50" as="geometry"/>
                </mxCell>
                <mxCell id="yc3m5w_ezIkJ8CxKZsT--87" style="vsdxID=85;fillColor=#ffffff;gradientColor=none;shape=stencil(UzV2Ls5ILEhVNTIoLinKz04tz0wpyVA1dlE1MsrMy0gtyiwBslSNXVWNndPyi1LTi/JL81Ig/IJEkEoQKze/DGRCBUSfqQFIi5FBJQrXDaI0JzMPSam5KblKoVysStEcQIJSVAcAGQg/pmXm5CDLoIcGUAgSksauAA==);strokeColor=#5e5e5e;strokeWidth=2;spacingTop=-3;spacingBottom=-3;spacingLeft=-3;spacingRight=-3;labelBackgroundColor=none;rounded=0;html=1;whiteSpace=wrap;fontColor=#000000;" parent="yc3m5w_ezIkJ8CxKZsT--76" vertex="1">
                    <mxGeometry width="76" height="50" as="geometry"/>
                </mxCell>
                <mxCell id="yc3m5w_ezIkJ8CxKZsT--88" style="vsdxID=86;fillColor=#ffffff;gradientColor=none;shape=stencil(UzV2Ls5ILEhVNTIoLinKz04tz0wpyVA1dlE1MsrMy0gtyiwBslSNXVWNndPyi1LTi/JL81Ig/IJEkEoQKze/DGRCBUSfuSlIi5FBJYRragDmukGU5mTmISk1NDAgWy3UGqxq0ZxAglJUFwAZCF+mZebkIMughwdQCBKWxq4A);strokeColor=#5e5e5e;strokeWidth=2;spacingTop=-3;spacingBottom=-3;spacingLeft=-3;spacingRight=-3;labelBackgroundColor=none;rounded=0;html=1;whiteSpace=wrap;fontColor=#000000;" parent="yc3m5w_ezIkJ8CxKZsT--76" vertex="1">
                    <mxGeometry width="76" height="50" as="geometry"/>
                </mxCell>
                <mxCell id="yc3m5w_ezIkJ8CxKZsT--89" style="vsdxID=87;fillColor=#ffffff;gradientColor=none;shape=stencil(UzV2Ls5ILEhVNTIoLinKz04tz0wpyVA1dlE1MsrMy0gtyiwBslSNXVWNndPyi1LTi/JL81Ig/IJEkEoQKze/DGRCBUSfAUiHkUElhGduCua6QVTmZOYhqTQyJVepoYEBbrUG5CpFdQCQgfBiWmZODrIMemAAhSABaewKAA==);strokeColor=#5e5e5e;strokeWidth=2;spacingTop=-3;spacingBottom=-3;spacingLeft=-3;spacingRight=-3;labelBackgroundColor=none;rounded=0;html=1;whiteSpace=wrap;fontColor=#000000;" parent="yc3m5w_ezIkJ8CxKZsT--76" vertex="1">
                    <mxGeometry width="76" height="50" as="geometry"/>
                </mxCell>
                <mxCell id="yc3m5w_ezIkJ8CxKZsT--90" style="vsdxID=88;fillColor=#ffffff;gradientColor=none;shape=stencil(UzV2Ls5ILEhVNTIoLinKz04tz0wpyVA1dlE1MsrMy0gtyiwBslSNXVWNndPyi1LTi/JL81Ig/IJEkEoQKze/DGRCBUSfkSlIi5FBJYRrDuG6QZTmZOYhKTU1IFepoYEBbrVoLiBFLaoTgAyEL9Myc3KQZdDDAygECUtjVwA=);strokeColor=#5e5e5e;strokeWidth=2;spacingTop=-3;spacingBottom=-3;spacingLeft=-3;spacingRight=-3;labelBackgroundColor=none;rounded=0;html=1;whiteSpace=wrap;fontColor=#000000;" parent="yc3m5w_ezIkJ8CxKZsT--76" vertex="1">
                    <mxGeometry width="76" height="50" as="geometry"/>
                </mxCell>
                <mxCell id="yc3m5w_ezIkJ8CxKZsT--91" style="vsdxID=89;fillColor=#ffffff;gradientColor=none;shape=stencil(UzV2Ls5ILEhVNTIoLinKz04tz0wpyVA1dlE1MsrMy0gtyiwBslSNXVWNndPyi1LTi/JL81Ig/IJEkEoQKze/DGRCBUSfqQFIi5FBJYRrbgrmukGU5mTmISmFypGh1NDAALdaNBeQohbVCUAGwpdpmTk5yDLo4QEUgoSlsSsA);strokeColor=#5e5e5e;strokeWidth=2;spacingTop=-3;spacingBottom=-3;spacingLeft=-3;spacingRight=-3;labelBackgroundColor=none;rounded=0;html=1;whiteSpace=wrap;fontColor=#000000;" parent="yc3m5w_ezIkJ8CxKZsT--76" vertex="1">
                    <mxGeometry width="76" height="50" as="geometry"/>
                </mxCell>
                <mxCell id="yc3m5w_ezIkJ8CxKZsT--92" style="vsdxID=90;fillColor=#ffffff;gradientColor=none;shape=stencil(UzV2Ls5ILEhVNTIoLinKz04tz0wpyVA1dlE1MsrMy0gtyiwBslSNXVWNndPyi1LTi/JL81Ig/IJEkEoQKze/DGRCBUSfuSlIi5FBJQrXDaI0JzMPSamhgQHZamF8rIrR3ECKWlQ3ABkIf6Zl5uQgy6CHCFAIEprGrgA=);strokeColor=#5e5e5e;strokeWidth=2;spacingTop=-3;spacingBottom=-3;spacingLeft=-3;spacingRight=-3;labelBackgroundColor=none;rounded=0;html=1;whiteSpace=wrap;fontColor=#000000;" parent="yc3m5w_ezIkJ8CxKZsT--76" vertex="1">
                    <mxGeometry width="76" height="50" as="geometry"/>
                </mxCell>
                <mxCell id="yc3m5w_ezIkJ8CxKZsT--93" style="vsdxID=91;fillColor=#ffffff;gradientColor=none;shape=stencil(dY9LDoAgDERP0z1p4wlQ70EiClHBAP5uL6QLiYm7mfZNMwWS0ahNA4qYgp/1aYdkgFpAtM7oYFNWQB2QHH3QU/C7G9hvqpBFrf4oFy7OiZJAcdeuZ3Cx7hfEpiazeO9ztXr37ZJH/Ad1Dw==);strokeColor=#5e5e5e;strokeWidth=2;spacingTop=-3;spacingBottom=-3;spacingLeft=-3;spacingRight=-3;labelBackgroundColor=none;rounded=0;html=1;whiteSpace=wrap;fontColor=#000000;" parent="yc3m5w_ezIkJ8CxKZsT--76" vertex="1">
                    <mxGeometry width="76" height="50" as="geometry"/>
                </mxCell>
                <mxCell id="yc3m5w_ezIkJ8CxKZsT--94" style="vsdxID=92;fillColor=#ffffff;gradientColor=none;shape=stencil(dY9LDoAgDERP0z1p4wn83MMEFKICQfzdXrAmGhN389ppOwUqZ916BSjmGNygNiOjBqoA0VitgolJAdVAZeeC6oNbrGT2bXZmNbk1b9h5Dos8guJgFBc17ByN/XfeeFuTeC5wuHfvmyaV+BOqTw==);strokeColor=#5e5e5e;strokeWidth=2;spacingTop=-3;spacingBottom=-3;spacingLeft=-3;spacingRight=-3;labelBackgroundColor=none;rounded=0;html=1;whiteSpace=wrap;fontColor=#000000;" parent="yc3m5w_ezIkJ8CxKZsT--76" vertex="1">
                    <mxGeometry width="76" height="50" as="geometry"/>
                </mxCell>
                <mxCell id="yc3m5w_ezIkJ8CxKZsT--95" style="vsdxID=93;fillColor=#ffffff;gradientColor=none;shape=stencil(dY9LDoAgDERP0z1p4wlQ70EiClGBAP5uL6QLjYm7mfa1nQLJZFTQgCLl6Gd92CEboBYQrTM62lwUUAckRx/1FP3mBvZBVbKq1e91w8lzjagjKC627HomF+v+SWzeaBHPBQ737n3TlBJ/Qt0N);strokeColor=#5e5e5e;strokeWidth=2;spacingTop=-3;spacingBottom=-3;spacingLeft=-3;spacingRight=-3;labelBackgroundColor=none;rounded=0;html=1;whiteSpace=wrap;fontColor=#000000;" parent="yc3m5w_ezIkJ8CxKZsT--76" vertex="1">
                    <mxGeometry width="76" height="50" as="geometry"/>
                </mxCell>
                <mxCell id="yc3m5w_ezIkJ8CxKZsT--96" style="vsdxID=94;fillColor=#ffffff;gradientColor=none;shape=stencil(dY9LDoAgDERP0z1pYzyAn3uQiEJUIIi/2wt2oTFxN9O+tlOgatHSK0CxxOBGtZsuaqAaEI3VKpiYFFADVPUuqCG41XbsvcxkVrPb8oaD58oij6A42YrbtUxOxv6TWLzRJJ4LHO7d+6ZJJf6Emgs=);strokeColor=#5e5e5e;strokeWidth=2;spacingTop=-3;spacingBottom=-3;spacingLeft=-3;spacingRight=-3;labelBackgroundColor=none;rounded=0;html=1;whiteSpace=wrap;fontColor=#000000;" parent="yc3m5w_ezIkJ8CxKZsT--76" vertex="1">
                    <mxGeometry width="76" height="50" as="geometry"/>
                </mxCell>
                <mxCell id="yc3m5w_ezIkJ8CxKZsT--97" style="vsdxID=95;fillColor=#ffffff;gradientColor=none;shape=stencil(fY9LDoAgDERP0z228QR+7kEiClGBAP5uL6QLjQt3M+1rOwVqopZeAYqYgpvVYYakgVpANFarYFJWQB1QM7qgpuA2O7D3spBFrW4vG06eq4QoMygu9ux6Rhdjf1Cs32wWzw2O9+598+QS/0LdDQ==);strokeColor=#5e5e5e;strokeWidth=2;spacingTop=-3;spacingBottom=-3;spacingLeft=-3;spacingRight=-3;labelBackgroundColor=none;rounded=0;html=1;whiteSpace=wrap;fontColor=#000000;" parent="yc3m5w_ezIkJ8CxKZsT--76" vertex="1">
                    <mxGeometry width="76" height="50" as="geometry"/>
                </mxCell>
                <mxCell id="yc3m5w_ezIkJ8CxKZsT--98" style="vsdxID=96;fillColor=#ffffff;gradientColor=none;shape=stencil(dY9LDoAgDERP0z1p4wkU72EiClHBAP5uL9iFxMTdTPvaToHqoLtVAYoQvZvUYfqogRpANFYrb2JSQBKoHpxXo3eb7dmvXSazWtyeN5w8J/IEiosdVo9tmZyN/SUrUZJJvAc4W9n7hkklfoTkDQ==);strokeColor=#5e5e5e;strokeWidth=2;spacingTop=-3;spacingBottom=-3;spacingLeft=-3;spacingRight=-3;labelBackgroundColor=none;rounded=0;html=1;whiteSpace=wrap;fontColor=#000000;" parent="yc3m5w_ezIkJ8CxKZsT--76" vertex="1">
                    <mxGeometry width="76" height="50" as="geometry"/>
                </mxCell>
                <mxCell id="yc3m5w_ezIkJ8CxKZsT--99" style="vsdxID=97;fillColor=#ffffff;gradientColor=none;shape=stencil(UzV2Ls5ILEhVNTIoLinKz04tz0wpyVA1dlE1MsrMy0gtyiwBslSNXVWNndPyi1LTi/JL81Ig/IJEkEoQKze/DGRCBUSfkSlIi5FBJQrXDaI0JzMPt1JTA2SlQAbCCojrkOXQnQMUgnjF2BUA);strokeColor=#5e5e5e;strokeWidth=2;spacingTop=-3;spacingBottom=-3;spacingLeft=-3;spacingRight=-3;labelBackgroundColor=none;rounded=0;html=1;whiteSpace=wrap;fontColor=#000000;" parent="yc3m5w_ezIkJ8CxKZsT--76" vertex="1">
                    <mxGeometry width="76" height="50" as="geometry"/>
                </mxCell>
                <mxCell id="yc3m5w_ezIkJ8CxKZsT--100" style="vsdxID=98;fillColor=#ffffff;gradientColor=none;shape=stencil(dY9LDoAgDERP0z1pwwn83MNEFKICQfzdXrAmGhN389ppOwUqZt14BSjmGNygNtNGDVQCorFaBROTAqqAis4F1Qe32JbZN9mZ1eTWvGHnOSnyCIqDEeWFNVtHY/+tN97WJJ4TnO7d+8ZJJX6FqhM=);strokeColor=#5e5e5e;strokeWidth=2;spacingTop=-3;spacingBottom=-3;spacingLeft=-3;spacingRight=-3;labelBackgroundColor=none;rounded=0;html=1;whiteSpace=wrap;fontColor=#000000;" parent="yc3m5w_ezIkJ8CxKZsT--76" vertex="1">
                    <mxGeometry width="76" height="50" as="geometry"/>
                </mxCell>
                <mxCell id="yc3m5w_ezIkJ8CxKZsT--101" style="vsdxID=99;fillColor=#ffffff;gradientColor=none;shape=stencil(dY9LDoAgDERP0z1pQzyAn3uQiEJUIIi/2wvpQmPibqZ9badA9WpU0IBiTdFP+rB9MkANIFpndLQpK6AWqB581GP0m+vZB1XIoha/lw0nz1WyjKC42CLbjtHZun9UijeaxXOC07173zi5xK9QewM=);strokeColor=#5e5e5e;strokeWidth=2;spacingTop=-3;spacingBottom=-3;spacingLeft=-3;spacingRight=-3;labelBackgroundColor=none;rounded=0;html=1;whiteSpace=wrap;fontColor=#000000;" parent="yc3m5w_ezIkJ8CxKZsT--76" vertex="1">
                    <mxGeometry width="76" height="50" as="geometry"/>
                </mxCell>
                <mxCell id="yc3m5w_ezIkJ8CxKZsT--102" style="vsdxID=100;fillColor=#ffffff;gradientColor=none;shape=stencil(fY9LDoAwCERPwx4hnsDPPUystlFbU+vv9ray0LhwNwMPGICLRTezAsIleDeo3bRBA5dAZKxW3oSogCvgonNe9d6tthU/N4lManJb2nDIXIaYZghP8ZTfthZ2NPaHzfHNRvEckXzv3jdQLMkzXF0=);strokeColor=#5e5e5e;strokeWidth=2;spacingTop=-3;spacingBottom=-3;spacingLeft=-3;spacingRight=-3;labelBackgroundColor=none;rounded=0;html=1;whiteSpace=wrap;fontColor=#000000;" parent="yc3m5w_ezIkJ8CxKZsT--76" vertex="1">
                    <mxGeometry width="76" height="50" as="geometry"/>
                </mxCell>
                <mxCell id="yc3m5w_ezIkJ8CxKZsT--103" style="vsdxID=101;fillColor=#ffffff;gradientColor=none;shape=stencil(dY9LDoAgDERP0z2hIR7Azz1IQCEqEMDf7YV0oTFxN9O+tlPANhkZNHCWcvSzPqzKBrADzq0zOtpcFGAP2I4+6in6zSnyQVayqtXvdcNJc6xOcHaRE2QHIhfrfslGvMkingOU7d37hiklegT7Gw==);strokeColor=#5e5e5e;strokeWidth=2;spacingTop=-3;spacingBottom=-3;spacingLeft=-3;spacingRight=-3;labelBackgroundColor=none;rounded=0;html=1;whiteSpace=wrap;fontColor=#000000;" parent="yc3m5w_ezIkJ8CxKZsT--76" vertex="1">
                    <mxGeometry width="76" height="50" as="geometry"/>
                </mxCell>
                <mxCell id="yc3m5w_ezIkJ8CxKZsT--104" style="vsdxID=102;fillColor=#ffffff;gradientColor=none;shape=stencil(dY9LDoAgDERP0z1pQzyA4j1MRCEqGMTf7QW70Ji4m2lf2ylQuZhm1oBiicEPerdtNEAVIFpndLAxKSAFVHY+6D741bXs5yaTWU1+yxsOnkOZR1CcbKW4bc3oaN0/Wsg3msRzgtO9e984qcSvkLoA);strokeColor=#5e5e5e;strokeWidth=2;spacingTop=-3;spacingBottom=-3;spacingLeft=-3;spacingRight=-3;labelBackgroundColor=none;rounded=0;html=1;whiteSpace=wrap;fontColor=#000000;" parent="yc3m5w_ezIkJ8CxKZsT--76" vertex="1">
                    <mxGeometry width="76" height="50" as="geometry"/>
                </mxCell>
                <mxCell id="yc3m5w_ezIkJ8CxKZsT--105" style="vsdxID=103;fillColor=#ffffff;gradientColor=none;shape=stencil(UzV2Ls5ILEhVNTIoLinKz04tz0wpyVA1dlE1MsrMy0gtyiwBslSNXVWNndPyi1LTi/JL81Ig/IJEkEoQKze/DGRCBUSfqQFIi5FBJQrXDaI0JzMPt1JzU2SlQAbCCojrkOXQnQMUgnjF2BUA);strokeColor=#5e5e5e;strokeWidth=2;spacingTop=-3;spacingBottom=-3;spacingLeft=-3;spacingRight=-3;labelBackgroundColor=none;rounded=0;html=1;whiteSpace=wrap;fontColor=#000000;" parent="yc3m5w_ezIkJ8CxKZsT--76" vertex="1">
                    <mxGeometry width="76" height="50" as="geometry"/>
                </mxCell>
                <mxCell id="yc3m5w_ezIkJ8CxKZsT--106" style="vsdxID=104;fillColor=#ffffff;gradientColor=none;shape=stencil(UzV2Ls5ILEhVNTIoLinKz04tz0wpyVA1dlE1MsrMy0gtyiwBslSNXVWNndPyi1LTi/JL81Ig/IJEkEoQKze/DGRCBUSfuSlIi5FBJYRragDmukGU5mTm4VYK5UKVAhkIKyCuQ5ZDdw5QCOIVY1cA);strokeColor=#5e5e5e;strokeWidth=2;spacingTop=-3;spacingBottom=-3;spacingLeft=-3;spacingRight=-3;labelBackgroundColor=none;rounded=0;html=1;whiteSpace=wrap;fontColor=#000000;" parent="yc3m5w_ezIkJ8CxKZsT--76" vertex="1">
                    <mxGeometry width="76" height="50" as="geometry"/>
                </mxCell>
                <mxCell id="yc3m5w_ezIkJ8CxKZsT--107" style="vsdxID=105;fillColor=#ffffff;gradientColor=none;shape=stencil(fY9LDoAgDERP0z3SGA+AeA8TUIgKBvB3eyFdaFy4m2lf2ymgiKZfNXAWU/CTPqxKBrAFzq0zOtiUFaAEFIMPegx+c4r82heyqMXvZcNJcxVjZYazi3xNtiN2tu6Hbeo3m8VzhPK9e99AuUTPoLwB);strokeColor=#5e5e5e;strokeWidth=2;spacingTop=-3;spacingBottom=-3;spacingLeft=-3;spacingRight=-3;labelBackgroundColor=none;rounded=0;html=1;whiteSpace=wrap;fontColor=#000000;" parent="yc3m5w_ezIkJ8CxKZsT--76" vertex="1">
                    <mxGeometry width="76" height="50" as="geometry"/>
                </mxCell>
                <mxCell id="yc3m5w_ezIkJ8CxKZsT--108" style="vsdxID=106;fillColor=#ffffff;gradientColor=none;shape=stencil(dY9LDoAgDERP032lMR4A9R4mohAVDOLv9oJdaEzczbSv7RRILrqZFQhcgneD2k0bNFAJQhirlTchKqAKSHbOq9671bbs5yaRSU1uSxsOnsM0IfBkV+S3rZkcjf0lM8Q3GsVzgcO9e980scSfUHUB);strokeColor=#5e5e5e;strokeWidth=2;spacingTop=-3;spacingBottom=-3;spacingLeft=-3;spacingRight=-3;labelBackgroundColor=none;rounded=0;html=1;whiteSpace=wrap;fontColor=#000000;" parent="yc3m5w_ezIkJ8CxKZsT--76" vertex="1">
                    <mxGeometry width="76" height="50" as="geometry"/>
                </mxCell>
                <mxCell id="yc3m5w_ezIkJ8CxKZsT--109" style="vsdxID=107;fillColor=#ffffff;gradientColor=none;shape=stencil(dY9LDoAgDERP0z22MR7Azz1IRCEqEMTf7YV0oTFxN9O+tlOgetXSK0CxxuAmdZg+aqAGEI3VKpiYFFALVA8uqDG4zfbsvcxkVovb84aT57DMIyguthXbjtHZ2H+0EOLNJvHc4Hjv3jdPKvEv1N4=);strokeColor=#5e5e5e;strokeWidth=2;spacingTop=-3;spacingBottom=-3;spacingLeft=-3;spacingRight=-3;labelBackgroundColor=none;rounded=0;html=1;whiteSpace=wrap;fontColor=#000000;" parent="yc3m5w_ezIkJ8CxKZsT--76" vertex="1">
                    <mxGeometry width="76" height="50" as="geometry"/>
                </mxCell>
                <mxCell id="yc3m5w_ezIkJ8CxKZsT--110" style="vsdxID=108;fillColor=#ffffff;gradientColor=none;shape=stencil(dY9LDoAgDERP032lMR4A9R4mohAVDOLv9oJdaEzczbSv7RRILrqZFQhcgneD2k0bNFAJQhirlTchKqAKSHbOq9671bbs5yaRSU1uSxsOnssxjQg82Rb5bWtGR2P/0QzxzUbx3OB47943TyzxL1Rd);strokeColor=#5e5e5e;strokeWidth=2;spacingTop=-3;spacingBottom=-3;spacingLeft=-3;spacingRight=-3;labelBackgroundColor=none;rounded=0;html=1;whiteSpace=wrap;fontColor=#000000;" parent="yc3m5w_ezIkJ8CxKZsT--76" vertex="1">
                    <mxGeometry width="76" height="50" as="geometry"/>
                </mxCell>
                <mxCell id="yc3m5w_ezIkJ8CxKZsT--111" style="vsdxID=109;fillColor=#ffffff;gradientColor=none;shape=stencil(UzV2Ls5ILEhVNTIoLinKz04tz0wpyVA1dlE1MsrMy0gtyiwBslSNXVWNndPyi1LTi/JL81Ig/IJEkEoQKze/DGRCBUSfuSlIi5FBJQrXDaI0JzMPt1JDAwNktUAGwg6I85Dl0N0DFIL4xdgVAA==);strokeColor=#5e5e5e;strokeWidth=2;spacingTop=-3;spacingBottom=-3;spacingLeft=-3;spacingRight=-3;labelBackgroundColor=none;rounded=0;html=1;whiteSpace=wrap;fontColor=#000000;" parent="yc3m5w_ezIkJ8CxKZsT--76" vertex="1">
                    <mxGeometry width="76" height="50" as="geometry"/>
                </mxCell>
                <mxCell id="yc3m5w_ezIkJ8CxKZsT--112" style="vsdxID=110;fillColor=#ffffff;gradientColor=none;shape=stencil(UzV2Ls5ILEhVNTIoLinKz04tz0wpyVA1dlE1MsrMy0gtyiwBslSNXVWNndPyi1LTi/JL81Ig/IJEkEoQKze/DGRCBUSfoYEBSI+RQSWEb24K5rpB1OZk5uFRC+NDFQMZCFsgDkSWQ3cRUAjiG2NXAA==);strokeColor=#5e5e5e;strokeWidth=2;spacingTop=-3;spacingBottom=-3;spacingLeft=-3;spacingRight=-3;labelBackgroundColor=none;rounded=0;html=1;whiteSpace=wrap;fontColor=#000000;" parent="yc3m5w_ezIkJ8CxKZsT--76" vertex="1">
                    <mxGeometry width="76" height="50" as="geometry"/>
                </mxCell>
                <mxCell id="yc3m5w_ezIkJ8CxKZsT--113" style="vsdxID=111;fillColor=#ffffff;gradientColor=none;shape=stencil(dY9LDoAgDERP0z1p4wlQ70EiClHBAP5uL6QLiYm7mfZNMwWS0ahNA4qYgp/1aYdkgFpAtM7oYFNWQB2QHH3QU/C7G9hvqpBFrf4oFy7OiZJAcdeuZ3CxrgKx+SezeO9ztXr37ZJH/Ad1Dw==);strokeColor=#5e5e5e;strokeWidth=2;spacingTop=-3;spacingBottom=-3;spacingLeft=-3;spacingRight=-3;labelBackgroundColor=none;rounded=0;html=1;whiteSpace=wrap;fontColor=#000000;" parent="yc3m5w_ezIkJ8CxKZsT--76" vertex="1">
                    <mxGeometry width="76" height="50" as="geometry"/>
                </mxCell>
                <mxCell id="yc3m5w_ezIkJ8CxKZsT--114" style="vsdxID=112;fillColor=#ffffff;gradientColor=none;shape=stencil(dY9LDoAgDERP0z1p4wkU72EiClHBAP5uL9iFxMTdTPvaToHqoLtVAYoQvZvUYfqogRpANFYrb2JSQBKoHpxXo3eb7dmvXSazWtyeN5w8h1UeQXGxFY9rmZyNLchK/JNJvAc4W9n7hkklfoTkDQ==);strokeColor=#5e5e5e;strokeWidth=2;spacingTop=-3;spacingBottom=-3;spacingLeft=-3;spacingRight=-3;labelBackgroundColor=none;rounded=0;html=1;whiteSpace=wrap;fontColor=#000000;" parent="yc3m5w_ezIkJ8CxKZsT--76" vertex="1">
                    <mxGeometry width="76" height="50" as="geometry"/>
                </mxCell>
                <mxCell id="yc3m5w_ezIkJ8CxKZsT--115" style="vsdxID=113;fillColor=#ffffff;gradientColor=none;shape=stencil(dY9LDoAgDERP0z2hIR7Azz1IQCEqEMDf7YV0oTFxN9O+tlPANhkZNHCWcvSzPqzKBrADzq0zOtpcFGAP2I4+6in6zSnyQVayqtXvdcNJc4LVEc4usuQGIhfrXmQj/skingOU7d37hiklegT7Gw==);strokeColor=#5e5e5e;strokeWidth=2;spacingTop=-3;spacingBottom=-3;spacingLeft=-3;spacingRight=-3;labelBackgroundColor=none;rounded=0;html=1;whiteSpace=wrap;fontColor=#000000;" parent="yc3m5w_ezIkJ8CxKZsT--76" vertex="1">
                    <mxGeometry width="76" height="50" as="geometry"/>
                </mxCell>
                <mxCell id="yc3m5w_ezIkJ8CxKZsT--116" style="vsdxID=114;fillColor=#ffffff;gradientColor=none;shape=stencil(dY9LDoAgDERP032lMR4A9R4mohAVDOLv9oJdaEzczbSv7RRILrqZFQhcgneD2k0bNFAJQhirlTchKqAKSHbOq9671bbs5yaRSU1uSxsOnivyNCLwZIu3q5kcjX2RGeI/GsVzgcO9e980scSfUHUB);strokeColor=#5e5e5e;strokeWidth=2;spacingTop=-3;spacingBottom=-3;spacingLeft=-3;spacingRight=-3;labelBackgroundColor=none;rounded=0;html=1;whiteSpace=wrap;fontColor=#000000;" parent="yc3m5w_ezIkJ8CxKZsT--76" vertex="1">
                    <mxGeometry width="76" height="50" as="geometry"/>
                </mxCell>
                <mxCell id="yc3m5w_ezIkJ8CxKZsT--117" style="vsdxID=115;fillColor=#ffffff;gradientColor=none;shape=stencil(bU9bDoAgDDvN/skWT+DjHiagEBUI4uv2gjPRGP/atd06oHLWrVeAYo7BDWozMmqgChCN1SqYmBBQDVR2Lqg+uMVK5r7Nzowmt+YNO+dETqA4mGFx0Yado7Ev5639WxN4LnC5t/Ztk0b8CdUn);strokeColor=#5e5e5e;strokeWidth=2;spacingTop=-3;spacingBottom=-3;spacingLeft=-3;spacingRight=-3;labelBackgroundColor=none;rounded=0;html=1;whiteSpace=wrap;fontColor=#000000;" parent="yc3m5w_ezIkJ8CxKZsT--76" vertex="1">
                    <mxGeometry width="76" height="50" as="geometry"/>
                </mxCell>
                <mxCell id="yc3m5w_ezIkJ8CxKZsT--118" style="vsdxID=116;fillColor=#ffffff;gradientColor=none;shape=stencil(UzV2Ls5ILEhVNTIoLinKz04tz0wpyVA1dlE1MsrMy0gtyiwBslSNXVWNndPyi1LTi/JL81Ig/IJEkEoQKze/DGRCBUSfkSlIi5FBJQrXDaI0JzMPSampAR6lQAbCCojrkOXQnQMUgnjF2BUA);strokeColor=#5e5e5e;strokeWidth=2;spacingTop=-3;spacingBottom=-3;spacingLeft=-3;spacingRight=-3;labelBackgroundColor=none;rounded=0;html=1;whiteSpace=wrap;fontColor=#000000;" parent="yc3m5w_ezIkJ8CxKZsT--76" vertex="1">
                    <mxGeometry width="76" height="50" as="geometry"/>
                </mxCell>
                <mxCell id="yc3m5w_ezIkJ8CxKZsT--119" style="vsdxID=117;fillColor=#ffffff;gradientColor=none;shape=stencil(fY9LDoAgDERP0z1pQzyA4j1MRCEqGMTf7QW70LhwN9O+tlOgcjHNrAHFEoMf9G7baIAqQLTO6GBjUkAKqOx80H3wq2vZz00ms5r8ljccPCdFHkFxskV525rR0boXWsgfNInnBKd7975xUolfIXUB);strokeColor=#5e5e5e;strokeWidth=2;spacingTop=-3;spacingBottom=-3;spacingLeft=-3;spacingRight=-3;labelBackgroundColor=none;rounded=0;html=1;whiteSpace=wrap;fontColor=#000000;" parent="yc3m5w_ezIkJ8CxKZsT--76" vertex="1">
                    <mxGeometry width="76" height="50" as="geometry"/>
                </mxCell>
                <mxCell id="yc3m5w_ezIkJ8CxKZsT--120" style="vsdxID=118;fillColor=#ffffff;gradientColor=none;shape=stencil(fY9LDoAgDERP0z22MR7Azz1IRCEqEMTf7YV0oXHhbqZ9badA9aqlV4BijcFN6jB91EANIBqrVTAxKaAWqB5cUGNwm+3Ze5nJrBa35w0nz1VlHkFxsUW2HaOzsS+0EOKHTeK5wfHevW+eVOJfqL0B);strokeColor=#5e5e5e;strokeWidth=2;spacingTop=-3;spacingBottom=-3;spacingLeft=-3;spacingRight=-3;labelBackgroundColor=none;rounded=0;html=1;whiteSpace=wrap;fontColor=#000000;" parent="yc3m5w_ezIkJ8CxKZsT--76" vertex="1">
                    <mxGeometry width="76" height="50" as="geometry"/>
                </mxCell>
                <mxCell id="yc3m5w_ezIkJ8CxKZsT--121" style="vsdxID=119;fillColor=#ffffff;gradientColor=none;shape=stencil(fY9LDoAgDERP0z1p4wlQ70EiClGBAP5uL6QLjQt3M+1rOwWSyaigAUXK0c/6sEM2QC0gWmd0tLkooA5Ijj7qKfrNDeyDqmRVq9/rhpPnRJ1AcbFr2PZMLta9SGx+0CKeCxzu3fumKSX+hLob);strokeColor=#5e5e5e;strokeWidth=2;spacingTop=-3;spacingBottom=-3;spacingLeft=-3;spacingRight=-3;labelBackgroundColor=none;rounded=0;html=1;whiteSpace=wrap;fontColor=#000000;" parent="yc3m5w_ezIkJ8CxKZsT--76" vertex="1">
                    <mxGeometry width="76" height="50" as="geometry"/>
                </mxCell>
                <mxCell id="yc3m5w_ezIkJ8CxKZsT--122" style="vsdxID=120;fillColor=#ffffff;gradientColor=none;shape=stencil(bU9bDoAgDDvN/skWTuDjHiaiEBUI4uv2gjPRGP/atd06oGLWjVeAYo7BDWozbdRAJSAaq1UwMSGgCqjoXFB9cIttmfsmOzOa3Jo37JxDmSMoDqZSXLRm62jsy3pr/9YEnhPc7q1966QRv0LVCQ==);strokeColor=#5e5e5e;strokeWidth=2;spacingTop=-3;spacingBottom=-3;spacingLeft=-3;spacingRight=-3;labelBackgroundColor=none;rounded=0;html=1;whiteSpace=wrap;fontColor=#000000;" parent="yc3m5w_ezIkJ8CxKZsT--76" vertex="1">
                    <mxGeometry width="76" height="50" as="geometry"/>
                </mxCell>
                <mxCell id="yc3m5w_ezIkJ8CxKZsT--123" style="vsdxID=121;fillColor=#ffffff;gradientColor=none;shape=stencil(UzV2Ls5ILEhVNTIoLinKz04tz0wpyVA1dlE1MsrMy0gtyiwBslSNXVWNndPyi1LTi/JL81Ig/IJEkEoQKze/DGRCBUSfqQFIi5FBJQrXDaI0JzMPSam5KR6lQAbCCojrkOXQnQMUgnjF2BUA);strokeColor=#5e5e5e;strokeWidth=2;spacingTop=-3;spacingBottom=-3;spacingLeft=-3;spacingRight=-3;labelBackgroundColor=none;rounded=0;html=1;whiteSpace=wrap;fontColor=#000000;" parent="yc3m5w_ezIkJ8CxKZsT--76" vertex="1">
                    <mxGeometry width="76" height="50" as="geometry"/>
                </mxCell>
                <mxCell id="yc3m5w_ezIkJ8CxKZsT--124" style="vsdxID=122;fillColor=#ffffff;gradientColor=none;shape=stencil(fY9LDoAgDERP032lMR4A9R4mohAVDOLv9oJdaFy4m2lf2ymQXHQzKxC4BO8GtZs2aKAShDBWK29CVEAVkOycV713q23Zz00ik5rcljYcPFfkaUTgyTbH29aMjsa+0Azxh43iucHx3r1vnljiX6i6AA==);strokeColor=#5e5e5e;strokeWidth=2;spacingTop=-3;spacingBottom=-3;spacingLeft=-3;spacingRight=-3;labelBackgroundColor=none;rounded=0;html=1;whiteSpace=wrap;fontColor=#000000;" parent="yc3m5w_ezIkJ8CxKZsT--76" vertex="1">
                    <mxGeometry width="76" height="50" as="geometry"/>
                </mxCell>
                <mxCell id="yc3m5w_ezIkJ8CxKZsT--125" style="vsdxID=123;fillColor=#ffffff;gradientColor=none;shape=stencil(fY9LDoAgDERP0z1pYzyAn3uQiEJUIIi/2wt2oXHhbqZ9badA1aKlV4BiicGNajdd1EA1IBqrVTAxKaAGqOpdUENwq+3Ye5nJrGa35Q0Hz4k8geJkVxa3bZmcjH2RWPygSTwXONy7902TSvwJNRc=);strokeColor=#5e5e5e;strokeWidth=2;spacingTop=-3;spacingBottom=-3;spacingLeft=-3;spacingRight=-3;labelBackgroundColor=none;rounded=0;html=1;whiteSpace=wrap;fontColor=#000000;" parent="yc3m5w_ezIkJ8CxKZsT--76" vertex="1">
                    <mxGeometry width="76" height="50" as="geometry"/>
                </mxCell>
                <mxCell id="yc3m5w_ezIkJ8CxKZsT--126" style="vsdxID=124;fillColor=#ffffff;gradientColor=none;shape=stencil(fY9LDoAgDERP0z228QR+7kEiClGBAP5uL6QLjQt3M+1rOwVqopZeAYqYgpvVYYakgVpANFarYFJWQB1QM7qgpuA2O7D3spBFrW4vG06eE2UCxcWuEux7RhdjXyjWf2wWzw2O9+598+QS/0LdDQ==);strokeColor=#5e5e5e;strokeWidth=2;spacingTop=-3;spacingBottom=-3;spacingLeft=-3;spacingRight=-3;labelBackgroundColor=none;rounded=0;html=1;whiteSpace=wrap;fontColor=#000000;" parent="yc3m5w_ezIkJ8CxKZsT--76" vertex="1">
                    <mxGeometry width="76" height="50" as="geometry"/>
                </mxCell>
                <mxCell id="yc3m5w_ezIkJ8CxKZsT--127" style="vsdxID=125;fillColor=#ffffff;gradientColor=none;shape=stencil(fY9LDoAgDERP0z1pQzyAn3uQiEJUIIi/2wvpQuPC3Uz72k6B6tWooAHFmqKf9GH7ZIAaQLTO6GhTVkAtUD34qMfoN9ezD6qQRS1+LxtOnkNZRlBcbCu2HaOzdS9Uih80i+cEp3v3vnFyiV+h9gY=);strokeColor=#5e5e5e;strokeWidth=2;spacingTop=-3;spacingBottom=-3;spacingLeft=-3;spacingRight=-3;labelBackgroundColor=none;rounded=0;html=1;whiteSpace=wrap;fontColor=#000000;" parent="yc3m5w_ezIkJ8CxKZsT--76" vertex="1">
                    <mxGeometry width="76" height="50" as="geometry"/>
                </mxCell>
                <mxCell id="yc3m5w_ezIkJ8CxKZsT--128" style="vsdxID=126;fillColor=#ffffff;gradientColor=none;shape=stencil(fY9LDoAwCERPwx4hnsDPPUystlFbU+vv9ray0LhwNwMPGICLRTezAsIleDeo3bRBA5dAZKxW3oSogCvgonNe9d6tthU/N4lManJb2nDIHOVphPAUmyHevhZ2NPbF5vjHRvEckXzv3jdQLMkzXF0=);strokeColor=#5e5e5e;strokeWidth=2;spacingTop=-3;spacingBottom=-3;spacingLeft=-3;spacingRight=-3;labelBackgroundColor=none;rounded=0;html=1;whiteSpace=wrap;fontColor=#000000;" parent="yc3m5w_ezIkJ8CxKZsT--76" vertex="1">
                    <mxGeometry width="76" height="50" as="geometry"/>
                </mxCell>
                <mxCell id="yc3m5w_ezIkJ8CxKZsT--129" style="vsdxID=127;fillColor=#ffffff;gradientColor=none;shape=stencil(bU9bDoAgDDvN/gmL8QA+7mECClHBAL5uLzgTifGvXdutA6y86hYJnPng7Ch3LYICrIFzbZR0OkQE2ABWvXVycHY1gvjSJWdCs93ShoNyBUsRzk6iZXHTlqyTNpn10f6tEbwnqF2ufevEEb2CzQU=);strokeColor=#5e5e5e;strokeWidth=2;spacingTop=-3;spacingBottom=-3;spacingLeft=-3;spacingRight=-3;labelBackgroundColor=none;rounded=0;html=1;whiteSpace=wrap;fontColor=#000000;" parent="yc3m5w_ezIkJ8CxKZsT--76" vertex="1">
                    <mxGeometry width="76" height="50" as="geometry"/>
                </mxCell>
                <mxCell id="yc3m5w_ezIkJ8CxKZsT--130" style="vsdxID=128;fillColor=#ffffff;gradientColor=none;shape=stencil(fY9LDoAgDERP0z3SGA+AeA8TUIgKBvB3eyFdaFy4m2lf2ymgiKZfNXAWU/CTPqxKBrAFzq0zOtiUFaAEFIMPegx+c4r82heyqMXvZcNJczUrI5xdZCtGviN2tu7FNvUfm8VzhPK9e99AuUTPoLwB);strokeColor=#5e5e5e;strokeWidth=2;spacingTop=-3;spacingBottom=-3;spacingLeft=-3;spacingRight=-3;labelBackgroundColor=none;rounded=0;html=1;whiteSpace=wrap;fontColor=#000000;" parent="yc3m5w_ezIkJ8CxKZsT--76" vertex="1">
                    <mxGeometry width="76" height="50" as="geometry"/>
                </mxCell>
                <mxCell id="yc3m5w_ezIkJ8CxKZsT--131" style="vsdxID=129;fillColor=#ffffff;gradientColor=none;shape=stencil(UzV2Ls5ILEhVNTIoLinKz04tz0wpyVA1dlE1MsrMy0gtyiwBslSNXVWNndPyi1LTi/JL81Ig/IJEkEoQKze/DGRCBUSfuSlIi5FBJQrXDaI0JzMPSamhgQEetUAGwg6I85Dl0N0DFIL4xdgVAA==);strokeColor=#5e5e5e;strokeWidth=2;spacingTop=-3;spacingBottom=-3;spacingLeft=-3;spacingRight=-3;labelBackgroundColor=none;rounded=0;html=1;whiteSpace=wrap;fontColor=#000000;" parent="yc3m5w_ezIkJ8CxKZsT--76" vertex="1">
                    <mxGeometry width="76" height="50" as="geometry"/>
                </mxCell>
                <mxCell id="yc3m5w_ezIkJ8CxKZsT--132" style="vsdxID=130;fillColor=#ffffff;gradientColor=none;shape=stencil(dU9bDoAgDDvN/pHFeAAf9yARhahAEF+3F1yMxsS/dm23DrCclXASOJuDt4PcdBsUYAWca6Ok1yEiwBqw7KyXvbeLaYk7kZwJTXZNG3bKFXmKcHYQzRi7eEPeUZuX9xZ/zBE8V6jgW/s2iiP6BusT);strokeColor=#5e5e5e;strokeWidth=2;spacingTop=-3;spacingBottom=-3;spacingLeft=-3;spacingRight=-3;labelBackgroundColor=none;rounded=0;html=1;whiteSpace=wrap;fontColor=#000000;" parent="yc3m5w_ezIkJ8CxKZsT--76" vertex="1">
                    <mxGeometry width="76" height="50" as="geometry"/>
                </mxCell>
                <mxCell id="yc3m5w_ezIkJ8CxKZsT--133" style="vsdxID=131;fillColor=none;gradientColor=none;fillOpacity=0;strokeOpacity=0;strokeWidth=2;spacingTop=-3;spacingBottom=-3;spacingLeft=-3;spacingRight=-3;labelBackgroundColor=none;rounded=1;strokeColor=none;html=1;whiteSpace=wrap;fontColor=#000000;" parent="1" vertex="1">
                    <mxGeometry x="1405.8" y="134" width="62" height="38" as="geometry"/>
                </mxCell>
                <mxCell id="yc3m5w_ezIkJ8CxKZsT--134" style="vsdxID=132;fillColor=#ffffff;gradientColor=none;fillOpacity=0;strokeOpacity=0;shape=stencil(fZNRboMwDIZPk9cosUsrHqeuvcBOgEo2ojGoUrpCT78UB80uFJ7i+P/jzwlWuL9UxdkpMJcutN/u5suuUviuAHxTueC7uFJ4ULj/bIP7Cu21KSk+F1EJZtxxJXnsQw2mCKcPf3e0ZzTaXUYJcv60v4+KfcpTakgnUHgk5ekaSGqlNoUbnVnDvlSlB0qDnuoOIPw9UrjVNhEPyAVjdfMWAWrfMNQcdW4F7iptvtOwlcRGEkZ6bUAyvmoKFyw4v7QFbGFJaKvgwjA1k+lNLul5f/8NSVx+ZSg1r3DZqywY5rTsme0zhXz3iZL3glKB8/tZQFz7Z+NiHA0aGl/XNFk8/zxKcYvGEA9/);strokeWidth=2;spacingTop=-3;spacingBottom=-3;spacingLeft=-3;spacingRight=-3;labelBackgroundColor=none;rounded=1;html=1;whiteSpace=wrap;fontColor=#000000;" parent="yc3m5w_ezIkJ8CxKZsT--133" vertex="1">
                    <mxGeometry width="62" height="38" as="geometry"/>
                </mxCell>
                <mxCell id="yc3m5w_ezIkJ8CxKZsT--135" value="&lt;div style=&quot;font-size: 1px&quot;&gt;&lt;p style=&quot;align:center;margin-left:0;margin-right:0;margin-top:0px;margin-bottom:0px;text-indent:0;valign:middle;direction:ltr;&quot;&gt;&lt;font style=&quot;font-size: 14.11px; font-family: Arial; direction: ltr; letter-spacing: 0px; line-height: 100%; opacity: 1;&quot;&gt;&lt;b&gt;Analyze&lt;/b&gt;&lt;/font&gt;&lt;/p&gt;&lt;/div&gt;" style="text;vsdxID=131;fillColor=none;gradientColor=none;fillOpacity=0;strokeOpacity=0;strokeWidth=2;spacingTop=-3;spacingBottom=-3;spacingLeft=-3;spacingRight=-3;labelBackgroundColor=none;rounded=1;strokeColor=none;html=1;whiteSpace=wrap;verticalAlign=middle;align=center;;html=1;fontColor=#000000;" parent="yc3m5w_ezIkJ8CxKZsT--133" vertex="1">
                    <mxGeometry x="2.7399999999999984" y="3.125" width="56.52" height="31.75" as="geometry"/>
                </mxCell>
                <mxCell id="yc3m5w_ezIkJ8CxKZsT--136" style="vsdxID=133;fillColor=none;gradientColor=none;fillOpacity=0;strokeOpacity=0;strokeWidth=2;spacingTop=-3;spacingBottom=-3;spacingLeft=-3;spacingRight=-3;labelBackgroundColor=none;rounded=1;strokeColor=none;html=1;whiteSpace=wrap;fontColor=#000000;" parent="1" vertex="1">
                    <mxGeometry x="1566.3" y="136" width="162" height="34" as="geometry"/>
                </mxCell>
                <mxCell id="yc3m5w_ezIkJ8CxKZsT--137" style="vsdxID=134;fillColor=#ffffff;gradientColor=none;fillOpacity=0;strokeOpacity=0;shape=stencil(hVNBcoMwDHyNrx4hJYCPnTT5QF/ABLd4SiHjkJb29SXIaSzGoZwsaVfeFZai3bmpTlYhnAffv9svVw+NomeF6LrGejdMJ0V7RbvX3ts331+6muNTNSER5oytmZNd0QiVP764H8s50JQVWy4w86P/vN44hjqXvkMH0Ia7HBh8vHhGZxIewo02CNGHXB4xtNOQBwIK/kgcoqZNAFAMmG+Hp0lA67pIrSl0XgjFsKbWlNrkkbxMqoeFWgD9B8F1g5SgUHKGCReCxanSaDBrVgTnZm+roZQeHjm+W5QG4oGSxDxSH/2zBCGh/P4IsqUK+SpuKmNfJBGUHFdC5T/vejrMG8S75dqWFzCuLzduSvG20v4X);strokeWidth=2;spacingTop=-3;spacingBottom=-3;spacingLeft=-3;spacingRight=-3;labelBackgroundColor=none;rounded=1;html=1;whiteSpace=wrap;fontColor=#000000;" parent="yc3m5w_ezIkJ8CxKZsT--136" vertex="1">
                    <mxGeometry width="162" height="34" as="geometry"/>
                </mxCell>
                <mxCell id="yc3m5w_ezIkJ8CxKZsT--138" value="&lt;div style=&quot;font-size: 1px&quot;&gt;&lt;p style=&quot;align:center;margin-left:0;margin-right:0;margin-top:0px;margin-bottom:0px;text-indent:0;valign:middle;direction:ltr;&quot;&gt;&lt;font style=&quot;font-size: 14.11px; font-family: Arial; direction: ltr; letter-spacing: 0px; line-height: 100%; opacity: 1;&quot;&gt;&lt;b&gt;Graph and Visualize&lt;/b&gt;&lt;/font&gt;&lt;/p&gt;&lt;/div&gt;" style="text;vsdxID=133;fillColor=none;gradientColor=none;fillOpacity=0;strokeOpacity=0;strokeWidth=2;spacingTop=-3;spacingBottom=-3;spacingLeft=-3;spacingRight=-3;labelBackgroundColor=none;rounded=1;strokeColor=none;html=1;whiteSpace=wrap;verticalAlign=middle;align=center;;html=1;fontColor=#000000;" parent="yc3m5w_ezIkJ8CxKZsT--136" vertex="1">
                    <mxGeometry x="3.17" y="2.710000000000001" width="156.85" height="28.58" as="geometry"/>
                </mxCell>
                <mxCell id="yc3m5w_ezIkJ8CxKZsT--139" style="vsdxID=135;fillColor=none;gradientColor=none;fillOpacity=0;strokeOpacity=0;strokeWidth=2;spacingTop=-3;spacingBottom=-3;spacingLeft=-3;spacingRight=-3;labelBackgroundColor=none;rounded=1;strokeColor=none;html=1;whiteSpace=wrap;fontColor=#000000;" parent="1" vertex="1">
                    <mxGeometry x="571.8" y="134" width="152" height="38" as="geometry"/>
                </mxCell>
                <mxCell id="yc3m5w_ezIkJ8CxKZsT--140" style="vsdxID=136;fillColor=#ffffff;gradientColor=none;fillOpacity=0;strokeOpacity=0;shape=stencil(fZNRboMwDIZPk9fIsYsoj1PXXmAnQCUb0RhUKV1pT78Uh5EEWp5i+3f82cGCdue6PGmBcO5t962vpuprQe8C0bS1tqZ3J0F7QbvPzuov213aiu1T6ZQIo0dXnKMeaoTSHj/MXbMPJKk84wBn/nS/j4qDj3Po5m9g88DK48WyVMVab25kpiD4fJUB/V1SkU/AKH8gNlH6jBuF8bE4vLn6jWkD0iL/1y/kS9ZiK7d5zAsJH0CM96wfSvW0HNYK76z3RC95Z/XUQCY3RUwc9pQ2MVEGU0q4n3FiMtZIvwI6P2uKPsTvPDGGnVCsoOVoVghf/aPuMK4CL4lpGt6kMJ6ujnPx2tH+Dw==);strokeWidth=2;spacingTop=-3;spacingBottom=-3;spacingLeft=-3;spacingRight=-3;labelBackgroundColor=none;rounded=1;html=1;whiteSpace=wrap;fontColor=#000000;" parent="yc3m5w_ezIkJ8CxKZsT--139" vertex="1">
                    <mxGeometry width="152" height="38" as="geometry"/>
                </mxCell>
                <mxCell id="yc3m5w_ezIkJ8CxKZsT--141" value="&lt;div style=&quot;font-size: 1px&quot;&gt;&lt;p style=&quot;align:center;margin-left:0;margin-right:0;margin-top:0px;margin-bottom:0px;text-indent:0;valign:middle;direction:ltr;&quot;&gt;&lt;font style=&quot;font-size: 14.11px; font-family: Arial; direction: ltr; letter-spacing: 0px; line-height: 100%; opacity: 1;&quot;&gt;&lt;b&gt;Retrieve or Capture&lt;/b&gt;&lt;/font&gt;&lt;/p&gt;&lt;p style=&quot;align:center;margin-left:0;margin-right:0;margin-top:0px;margin-bottom:0px;text-indent:0;valign:middle;direction:ltr;&quot;&gt;&lt;font style=&quot;font-size: 14.11px; font-family: Arial; direction: ltr; letter-spacing: 0px; line-height: 100%; opacity: 1;&quot;&gt;&lt;b&gt;TASK&lt;/b&gt;&lt;/font&gt;&lt;/p&gt;&lt;/div&gt;" style="text;vsdxID=135;fillColor=none;gradientColor=none;fillOpacity=0;strokeOpacity=0;strokeWidth=2;spacingTop=-3;spacingBottom=-3;spacingLeft=-3;spacingRight=-3;labelBackgroundColor=none;rounded=1;strokeColor=none;html=1;whiteSpace=wrap;verticalAlign=middle;align=center;;html=1;fontColor=#000000;" parent="yc3m5w_ezIkJ8CxKZsT--139" vertex="1">
                    <mxGeometry x="3.17" y="3.125" width="146.05" height="31.75" as="geometry"/>
                </mxCell>
                <mxCell id="yc3m5w_ezIkJ8CxKZsT--142" style="edgeStyle=orthogonalEdgeStyle;rounded=1;orthogonalLoop=1;jettySize=auto;html=1;fontColor=#000000;" parent="1" source="yc3m5w_ezIkJ8CxKZsT--45" target="yc3m5w_ezIkJ8CxKZsT--47" edge="1">
                    <mxGeometry relative="1" as="geometry"/>
                </mxCell>
                <mxCell id="yc3m5w_ezIkJ8CxKZsT--143" value="" style="edgeStyle=orthogonalEdgeStyle;rounded=1;orthogonalLoop=1;jettySize=auto;html=1;fontColor=#000000;" parent="1" source="yc3m5w_ezIkJ8CxKZsT--29" target="yc3m5w_ezIkJ8CxKZsT--33" edge="1">
                    <mxGeometry relative="1" as="geometry"/>
                </mxCell>
                <mxCell id="yc3m5w_ezIkJ8CxKZsT--144" value="" style="edgeStyle=orthogonalEdgeStyle;rounded=1;orthogonalLoop=1;jettySize=auto;html=1;fontColor=#000000;" parent="1" source="yc3m5w_ezIkJ8CxKZsT--16" target="yc3m5w_ezIkJ8CxKZsT--29" edge="1">
                    <mxGeometry relative="1" as="geometry"/>
                </mxCell>
                <mxCell id="yc3m5w_ezIkJ8CxKZsT--145" style="edgeStyle=orthogonalEdgeStyle;rounded=1;orthogonalLoop=1;jettySize=auto;html=1;fontColor=#000000;" parent="1" source="yc3m5w_ezIkJ8CxKZsT--19" target="yc3m5w_ezIkJ8CxKZsT--42" edge="1">
                    <mxGeometry relative="1" as="geometry"/>
                </mxCell>
                <mxCell id="yc3m5w_ezIkJ8CxKZsT--146" style="edgeStyle=orthogonalEdgeStyle;rounded=1;orthogonalLoop=1;jettySize=auto;html=1;entryX=0.5;entryY=1;entryDx=0;entryDy=0;fontColor=#000000;" parent="1" source="yc3m5w_ezIkJ8CxKZsT--33" target="yc3m5w_ezIkJ8CxKZsT--41" edge="1">
                    <mxGeometry relative="1" as="geometry"/>
                </mxCell>
                <mxCell id="yc3m5w_ezIkJ8CxKZsT--147" value="" style="edgeStyle=orthogonalEdgeStyle;rounded=1;orthogonalLoop=1;jettySize=auto;html=1;fontColor=#000000;" parent="1" source="yc3m5w_ezIkJ8CxKZsT--57" target="yc3m5w_ezIkJ8CxKZsT--36" edge="1">
                    <mxGeometry relative="1" as="geometry"/>
                </mxCell>
                <mxCell id="yc3m5w_ezIkJ8CxKZsT--150" value="" style="edgeStyle=orthogonalEdgeStyle;rounded=1;orthogonalLoop=1;jettySize=auto;html=1;fontColor=#000000;" parent="1" source="yc3m5w_ezIkJ8CxKZsT--16" target="yc3m5w_ezIkJ8CxKZsT--19" edge="1">
                    <mxGeometry relative="1" as="geometry"/>
                </mxCell>
                <mxCell id="yc3m5w_ezIkJ8CxKZsT--151" style="edgeStyle=orthogonalEdgeStyle;rounded=1;orthogonalLoop=1;jettySize=auto;html=1;fontColor=#000000;" parent="1" source="yc3m5w_ezIkJ8CxKZsT--10" edge="1">
                    <mxGeometry relative="1" as="geometry">
                        <mxPoint x="1333.7647058823532" y="281" as="targetPoint"/>
                    </mxGeometry>
                </mxCell>
                <mxCell id="yc3m5w_ezIkJ8CxKZsT--152" value="" style="edgeStyle=orthogonalEdgeStyle;rounded=1;orthogonalLoop=1;jettySize=auto;html=1;fontColor=#000000;" parent="1" source="yc3m5w_ezIkJ8CxKZsT--36" target="yc3m5w_ezIkJ8CxKZsT--9" edge="1">
                    <mxGeometry relative="1" as="geometry">
                        <mxPoint x="1198" y="323" as="targetPoint"/>
                    </mxGeometry>
                </mxCell>
                <mxCell id="yc3m5w_ezIkJ8CxKZsT--155" style="edgeStyle=orthogonalEdgeStyle;rounded=0;orthogonalLoop=1;jettySize=auto;html=1;entryX=0;entryY=0.5;entryDx=0;entryDy=0;" parent="1" source="yc3m5w_ezIkJ8CxKZsT--42" target="yc3m5w_ezIkJ8CxKZsT--40" edge="1">
                    <mxGeometry relative="1" as="geometry"/>
                </mxCell>
                <mxCell id="yc3m5w_ezIkJ8CxKZsT--156" value="" style="edgeStyle=orthogonalEdgeStyle;rounded=0;orthogonalLoop=1;jettySize=auto;html=1;" parent="1" source="yc3m5w_ezIkJ8CxKZsT--6" target="yc3m5w_ezIkJ8CxKZsT--57" edge="1">
                    <mxGeometry relative="1" as="geometry"/>
                </mxCell>
                <mxCell id="yc3m5w_ezIkJ8CxKZsT--157" value="" style="edgeStyle=orthogonalEdgeStyle;rounded=0;orthogonalLoop=1;jettySize=auto;html=1;" parent="1" source="yc3m5w_ezIkJ8CxKZsT--3" target="yc3m5w_ezIkJ8CxKZsT--6" edge="1">
                    <mxGeometry relative="1" as="geometry">
                        <mxPoint x="596" y="242.9000000000001" as="targetPoint"/>
                    </mxGeometry>
                </mxCell>
                <mxCell id="ejWeoxtuRlTHWmaXD7aN-2" style="edgeStyle=orthogonalEdgeStyle;rounded=0;orthogonalLoop=1;jettySize=auto;html=1;entryX=0.5;entryY=1;entryDx=0;entryDy=0;" parent="1" source="ejWeoxtuRlTHWmaXD7aN-1" target="yc3m5w_ezIkJ8CxKZsT--6" edge="1">
                    <mxGeometry relative="1" as="geometry"/>
                </mxCell>
                <mxCell id="ejWeoxtuRlTHWmaXD7aN-1" value="Text Notes&lt;br&gt;(File)" style="shape=document;whiteSpace=wrap;html=1;boundedLbl=1;" parent="1" vertex="1">
                    <mxGeometry x="587.8" y="690" width="120" height="80" as="geometry"/>
                </mxCell>
                <mxCell id="ejWeoxtuRlTHWmaXD7aN-29" style="edgeStyle=orthogonalEdgeStyle;rounded=0;orthogonalLoop=1;jettySize=auto;html=1;entryX=0.25;entryY=1;entryDx=0;entryDy=0;" parent="1" source="ejWeoxtuRlTHWmaXD7aN-16" target="yc3m5w_ezIkJ8CxKZsT--6" edge="1">
                    <mxGeometry relative="1" as="geometry"/>
                </mxCell>
                <mxCell id="ejWeoxtuRlTHWmaXD7aN-16" value="Spreadsheet (CSV, XLSX)" style="shape=table;startSize=30;container=1;collapsible=0;childLayout=tableLayout;strokeColor=default;fontSize=12;fontStyle=1" parent="1" vertex="1">
                    <mxGeometry x="400" y="530" width="180" height="150" as="geometry"/>
                </mxCell>
                <mxCell id="ejWeoxtuRlTHWmaXD7aN-17" value="" style="shape=tableRow;horizontal=0;startSize=0;swimlaneHead=0;swimlaneBody=0;strokeColor=inherit;top=0;left=0;bottom=0;right=0;collapsible=0;dropTarget=0;fillColor=none;points=[[0,0.5],[1,0.5]];portConstraint=eastwest;fontSize=16;" parent="ejWeoxtuRlTHWmaXD7aN-16" vertex="1">
                    <mxGeometry y="30" width="180" height="40" as="geometry"/>
                </mxCell>
                <mxCell id="ejWeoxtuRlTHWmaXD7aN-18" value="" style="shape=partialRectangle;html=1;whiteSpace=wrap;connectable=0;strokeColor=inherit;overflow=hidden;fillColor=none;top=0;left=0;bottom=0;right=0;pointerEvents=1;fontSize=16;" parent="ejWeoxtuRlTHWmaXD7aN-17" vertex="1">
                    <mxGeometry width="60" height="40" as="geometry">
                        <mxRectangle width="60" height="40" as="alternateBounds"/>
                    </mxGeometry>
                </mxCell>
                <mxCell id="ejWeoxtuRlTHWmaXD7aN-19" value="" style="shape=partialRectangle;html=1;whiteSpace=wrap;connectable=0;strokeColor=inherit;overflow=hidden;fillColor=none;top=0;left=0;bottom=0;right=0;pointerEvents=1;fontSize=16;" parent="ejWeoxtuRlTHWmaXD7aN-17" vertex="1">
                    <mxGeometry x="60" width="60" height="40" as="geometry">
                        <mxRectangle width="60" height="40" as="alternateBounds"/>
                    </mxGeometry>
                </mxCell>
                <mxCell id="ejWeoxtuRlTHWmaXD7aN-20" value="" style="shape=partialRectangle;html=1;whiteSpace=wrap;connectable=0;strokeColor=inherit;overflow=hidden;fillColor=none;top=0;left=0;bottom=0;right=0;pointerEvents=1;fontSize=16;" parent="ejWeoxtuRlTHWmaXD7aN-17" vertex="1">
                    <mxGeometry x="120" width="60" height="40" as="geometry">
                        <mxRectangle width="60" height="40" as="alternateBounds"/>
                    </mxGeometry>
                </mxCell>
                <mxCell id="ejWeoxtuRlTHWmaXD7aN-21" value="" style="shape=tableRow;horizontal=0;startSize=0;swimlaneHead=0;swimlaneBody=0;strokeColor=inherit;top=0;left=0;bottom=0;right=0;collapsible=0;dropTarget=0;fillColor=none;points=[[0,0.5],[1,0.5]];portConstraint=eastwest;fontSize=16;" parent="ejWeoxtuRlTHWmaXD7aN-16" vertex="1">
                    <mxGeometry y="70" width="180" height="40" as="geometry"/>
                </mxCell>
                <mxCell id="ejWeoxtuRlTHWmaXD7aN-22" value="" style="shape=partialRectangle;html=1;whiteSpace=wrap;connectable=0;strokeColor=inherit;overflow=hidden;fillColor=none;top=0;left=0;bottom=0;right=0;pointerEvents=1;fontSize=16;" parent="ejWeoxtuRlTHWmaXD7aN-21" vertex="1">
                    <mxGeometry width="60" height="40" as="geometry">
                        <mxRectangle width="60" height="40" as="alternateBounds"/>
                    </mxGeometry>
                </mxCell>
                <mxCell id="ejWeoxtuRlTHWmaXD7aN-23" value="" style="shape=partialRectangle;html=1;whiteSpace=wrap;connectable=0;strokeColor=inherit;overflow=hidden;fillColor=none;top=0;left=0;bottom=0;right=0;pointerEvents=1;fontSize=16;" parent="ejWeoxtuRlTHWmaXD7aN-21" vertex="1">
                    <mxGeometry x="60" width="60" height="40" as="geometry">
                        <mxRectangle width="60" height="40" as="alternateBounds"/>
                    </mxGeometry>
                </mxCell>
                <mxCell id="ejWeoxtuRlTHWmaXD7aN-24" value="" style="shape=partialRectangle;html=1;whiteSpace=wrap;connectable=0;strokeColor=inherit;overflow=hidden;fillColor=none;top=0;left=0;bottom=0;right=0;pointerEvents=1;fontSize=16;" parent="ejWeoxtuRlTHWmaXD7aN-21" vertex="1">
                    <mxGeometry x="120" width="60" height="40" as="geometry">
                        <mxRectangle width="60" height="40" as="alternateBounds"/>
                    </mxGeometry>
                </mxCell>
                <mxCell id="ejWeoxtuRlTHWmaXD7aN-25" value="" style="shape=tableRow;horizontal=0;startSize=0;swimlaneHead=0;swimlaneBody=0;strokeColor=inherit;top=0;left=0;bottom=0;right=0;collapsible=0;dropTarget=0;fillColor=none;points=[[0,0.5],[1,0.5]];portConstraint=eastwest;fontSize=16;" parent="ejWeoxtuRlTHWmaXD7aN-16" vertex="1">
                    <mxGeometry y="110" width="180" height="40" as="geometry"/>
                </mxCell>
                <mxCell id="ejWeoxtuRlTHWmaXD7aN-26" value="" style="shape=partialRectangle;html=1;whiteSpace=wrap;connectable=0;strokeColor=inherit;overflow=hidden;fillColor=none;top=0;left=0;bottom=0;right=0;pointerEvents=1;fontSize=16;" parent="ejWeoxtuRlTHWmaXD7aN-25" vertex="1">
                    <mxGeometry width="60" height="40" as="geometry">
                        <mxRectangle width="60" height="40" as="alternateBounds"/>
                    </mxGeometry>
                </mxCell>
                <mxCell id="ejWeoxtuRlTHWmaXD7aN-27" value="" style="shape=partialRectangle;html=1;whiteSpace=wrap;connectable=0;strokeColor=inherit;overflow=hidden;fillColor=none;top=0;left=0;bottom=0;right=0;pointerEvents=1;fontSize=16;" parent="ejWeoxtuRlTHWmaXD7aN-25" vertex="1">
                    <mxGeometry x="60" width="60" height="40" as="geometry">
                        <mxRectangle width="60" height="40" as="alternateBounds"/>
                    </mxGeometry>
                </mxCell>
                <mxCell id="ejWeoxtuRlTHWmaXD7aN-28" value="" style="shape=partialRectangle;html=1;whiteSpace=wrap;connectable=0;strokeColor=inherit;overflow=hidden;fillColor=none;top=0;left=0;bottom=0;right=0;pointerEvents=1;fontSize=16;" parent="ejWeoxtuRlTHWmaXD7aN-25" vertex="1">
                    <mxGeometry x="120" width="60" height="40" as="geometry">
                        <mxRectangle width="60" height="40" as="alternateBounds"/>
                    </mxGeometry>
                </mxCell>
                <mxCell id="ejWeoxtuRlTHWmaXD7aN-35" style="edgeStyle=orthogonalEdgeStyle;rounded=0;orthogonalLoop=1;jettySize=auto;html=1;entryX=0.75;entryY=1;entryDx=0;entryDy=0;fontSize=12;" parent="1" source="ejWeoxtuRlTHWmaXD7aN-31" target="yc3m5w_ezIkJ8CxKZsT--6" edge="1">
                    <mxGeometry relative="1" as="geometry"/>
                </mxCell>
                <mxCell id="ejWeoxtuRlTHWmaXD7aN-31" value="&lt;b&gt;Data Entry Form&lt;/b&gt;" style="swimlane;fontStyle=0;childLayout=stackLayout;horizontal=1;startSize=30;horizontalStack=0;resizeParent=1;resizeParentMax=0;resizeLast=0;collapsible=1;marginBottom=0;whiteSpace=wrap;html=1;fontSize=12;" parent="1" vertex="1">
                    <mxGeometry x="716" y="545" width="140" height="120" as="geometry"/>
                </mxCell>
                <mxCell id="ejWeoxtuRlTHWmaXD7aN-32" value="Task&amp;nbsp;1" style="text;strokeColor=none;fillColor=none;align=left;verticalAlign=middle;spacingLeft=4;spacingRight=4;overflow=hidden;points=[[0,0.5],[1,0.5]];portConstraint=eastwest;rotatable=0;whiteSpace=wrap;html=1;fontSize=12;" parent="ejWeoxtuRlTHWmaXD7aN-31" vertex="1">
                    <mxGeometry y="30" width="140" height="30" as="geometry"/>
                </mxCell>
                <mxCell id="ejWeoxtuRlTHWmaXD7aN-33" value="Task 2" style="text;strokeColor=none;fillColor=none;align=left;verticalAlign=middle;spacingLeft=4;spacingRight=4;overflow=hidden;points=[[0,0.5],[1,0.5]];portConstraint=eastwest;rotatable=0;whiteSpace=wrap;html=1;fontSize=12;" parent="ejWeoxtuRlTHWmaXD7aN-31" vertex="1">
                    <mxGeometry y="60" width="140" height="30" as="geometry"/>
                </mxCell>
                <mxCell id="ejWeoxtuRlTHWmaXD7aN-34" value="Task 3" style="text;strokeColor=none;fillColor=none;align=left;verticalAlign=middle;spacingLeft=4;spacingRight=4;overflow=hidden;points=[[0,0.5],[1,0.5]];portConstraint=eastwest;rotatable=0;whiteSpace=wrap;html=1;fontSize=12;" parent="ejWeoxtuRlTHWmaXD7aN-31" vertex="1">
                    <mxGeometry y="90" width="140" height="30" as="geometry"/>
                </mxCell>
                <mxCell id="ejWeoxtuRlTHWmaXD7aN-37" style="edgeStyle=orthogonalEdgeStyle;rounded=0;orthogonalLoop=1;jettySize=auto;html=1;entryX=0;entryY=1;entryDx=0;entryDy=0;fontSize=12;" parent="1" source="ejWeoxtuRlTHWmaXD7aN-36" target="yc3m5w_ezIkJ8CxKZsT--6" edge="1">
                    <mxGeometry relative="1" as="geometry"/>
                </mxCell>
                <mxCell id="ejWeoxtuRlTHWmaXD7aN-36" value="Task DB" style="shape=cylinder3;whiteSpace=wrap;html=1;boundedLbl=1;backgroundOutline=1;size=15;fontSize=12;" parent="1" vertex="1">
                    <mxGeometry x="400" y="408" width="60" height="80" as="geometry"/>
                </mxCell>
                <mxCell id="zh6JlAkq9VDc3pki78OX-1" value="Text Notes&lt;br&gt;(File)" style="shape=document;whiteSpace=wrap;html=1;boundedLbl=1;" parent="1" vertex="1">
                    <mxGeometry x="587.8" y="30" width="120" height="80" as="geometry"/>
                </mxCell>
                <mxCell id="zh6JlAkq9VDc3pki78OX-2" value="" style="endArrow=classic;html=1;rounded=0;fontSize=12;entryX=0;entryY=1;entryDx=0;entryDy=0;" parent="1" target="yc3m5w_ezIkJ8CxKZsT--6" edge="1">
                    <mxGeometry relative="1" as="geometry">
                        <mxPoint x="440" y="390" as="sourcePoint"/>
                        <mxPoint x="560" y="370" as="targetPoint"/>
                        <Array as="points">
                            <mxPoint x="530" y="390"/>
                        </Array>
                    </mxGeometry>
                </mxCell>
                <mxCell id="zh6JlAkq9VDc3pki78OX-3" value="" style="shape=message;html=1;outlineConnect=0;fontSize=12;" parent="zh6JlAkq9VDc3pki78OX-2" vertex="1">
                    <mxGeometry width="20" height="14" relative="1" as="geometry">
                        <mxPoint x="-10" y="-7" as="offset"/>
                    </mxGeometry>
                </mxCell>
                <mxCell id="zh6JlAkq9VDc3pki78OX-16" value="" style="edgeStyle=orthogonalEdgeStyle;rounded=0;orthogonalLoop=1;jettySize=auto;html=1;fontSize=12;startArrow=none;" parent="1" source="uuuJedV01FXUV6uYnoM6-1" target="zh6JlAkq9VDc3pki78OX-15" edge="1">
                    <mxGeometry relative="1" as="geometry"/>
                </mxCell>
                <mxCell id="zh6JlAkq9VDc3pki78OX-7" style="vsdxID=54;fillColor=none;gradientColor=none;strokeColor=none;strokeWidth=2;spacingTop=-3;spacingBottom=-3;spacingLeft=-3;spacingRight=-3;labelBackgroundColor=none;rounded=1;html=1;whiteSpace=wrap;fontColor=#000000;" parent="1" vertex="1">
                    <mxGeometry x="966" y="-110" width="101.6" height="130" as="geometry"/>
                </mxCell>
                <mxCell id="zh6JlAkq9VDc3pki78OX-8" style="vsdxID=55;fillColor=#FFFFFF;gradientColor=none;shape=stencil(fZNbEoIwDEVX018mNOODT8fHBlwBA1U6IjgVFVy9hbTSFvSvaW4mJ7cNw+29SG+Ccbg3qr6Il8ybguGOcS6rQijZ6BPDPcPtqVbirOpHlVN8S7WSw3AjcqqJezWHVGVH+RZ0BxHGqwUlqPJaP/uOrclTqqOIhAcSZg9FytiXmpBHRg4tN/2jZWI03CtpkUKMLEqHrmBoCBvds5SVA5csvz26iX4KmKz1sD4kBIQAPqAzBIYSnHgygzjKDcNfC0e1RV59LbGM7hQhtoV0jQm4f4E63s8UzKCOjxnCt/7rWkp3FvQVODVnBvHPX9SH4cfTLsiypIVx8+GG6CvaLtx/AA==);strokeColor=#5e5e5e;strokeWidth=2;spacingTop=-3;spacingBottom=-3;spacingLeft=-3;spacingRight=-3;labelBackgroundColor=none;rounded=1;html=1;whiteSpace=wrap;fontColor=#000000;" parent="zh6JlAkq9VDc3pki78OX-7" vertex="1">
                    <mxGeometry y="1.4444444444444444" width="101" height="54.88888888888889" as="geometry"/>
                </mxCell>
                <mxCell id="zh6JlAkq9VDc3pki78OX-9" value="&lt;div style=&quot;font-size: 1px&quot;&gt;&lt;p style=&quot;align:center;margin-left:0;margin-right:0;margin-top:0px;margin-bottom:0px;text-indent:0;valign:middle;direction:ltr;&quot;&gt;&lt;font style=&quot;font-size: 11.29px; font-family: Arial; direction: ltr; letter-spacing: 0px; line-height: 100%; opacity: 1;&quot;&gt;Calculate Value/Effort&lt;/font&gt;&lt;/p&gt;&lt;/div&gt;" style="text;vsdxID=54;fillColor=none;gradientColor=none;strokeColor=none;strokeWidth=2;spacingTop=-3;spacingBottom=-3;spacingLeft=-3;spacingRight=-3;labelBackgroundColor=none;rounded=1;html=1;whiteSpace=wrap;verticalAlign=middle;align=center;;html=1;fontColor=#000000;" parent="zh6JlAkq9VDc3pki78OX-7" vertex="1">
                    <mxGeometry y="1.3722222222222213" width="101.6" height="55.03333333333334" as="geometry"/>
                </mxCell>
                <mxCell id="zh6JlAkq9VDc3pki78OX-13" value="" style="edgeStyle=orthogonalEdgeStyle;rounded=0;orthogonalLoop=1;jettySize=auto;html=1;fontSize=12;" parent="1" source="zh6JlAkq9VDc3pki78OX-10" target="zh6JlAkq9VDc3pki78OX-12" edge="1">
                    <mxGeometry relative="1" as="geometry"/>
                </mxCell>
                <mxCell id="pVKQgHNcuQJQBDode_di-1" style="edgeStyle=orthogonalEdgeStyle;rounded=0;orthogonalLoop=1;jettySize=auto;html=1;entryX=0.5;entryY=0;entryDx=0;entryDy=0;fontSize=12;" parent="1" source="zh6JlAkq9VDc3pki78OX-10" target="yc3m5w_ezIkJ8CxKZsT--36" edge="1">
                    <mxGeometry relative="1" as="geometry"/>
                </mxCell>
                <mxCell id="zh6JlAkq9VDc3pki78OX-10" value="Rank &lt;br&gt;Tasks by&amp;nbsp;&lt;br&gt;Value/Effort" style="rounded=1;whiteSpace=wrap;html=1;fontSize=12;" parent="1" vertex="1">
                    <mxGeometry x="1138.4" y="-110" width="120" height="60" as="geometry"/>
                </mxCell>
                <mxCell id="zh6JlAkq9VDc3pki78OX-11" value="" style="edgeStyle=orthogonalEdgeStyle;rounded=0;orthogonalLoop=1;jettySize=auto;html=1;fontSize=12;" parent="1" source="zh6JlAkq9VDc3pki78OX-9" target="zh6JlAkq9VDc3pki78OX-10" edge="1">
                    <mxGeometry relative="1" as="geometry"/>
                </mxCell>
                <mxCell id="uuuJedV01FXUV6uYnoM6-36" value="" style="edgeStyle=orthogonalEdgeStyle;rounded=0;orthogonalLoop=1;jettySize=auto;html=1;" parent="1" source="zh6JlAkq9VDc3pki78OX-12" target="uuuJedV01FXUV6uYnoM6-35" edge="1">
                    <mxGeometry relative="1" as="geometry"/>
                </mxCell>
                <mxCell id="zh6JlAkq9VDc3pki78OX-12" value="Display &lt;br&gt;Ranked Tasks by&amp;nbsp;&lt;br&gt;Value/Effort" style="rounded=1;whiteSpace=wrap;html=1;fontSize=12;" parent="1" vertex="1">
                    <mxGeometry x="1292.3000000000002" y="-110" width="120" height="60" as="geometry"/>
                </mxCell>
                <mxCell id="zh6JlAkq9VDc3pki78OX-18" value="" style="edgeStyle=orthogonalEdgeStyle;rounded=0;orthogonalLoop=1;jettySize=auto;html=1;fontSize=12;" parent="1" source="zh6JlAkq9VDc3pki78OX-14" target="zh6JlAkq9VDc3pki78OX-9" edge="1">
                    <mxGeometry relative="1" as="geometry"/>
                </mxCell>
                <mxCell id="zh6JlAkq9VDc3pki78OX-14" value="Task Raw Data&lt;br style=&quot;border-color: var(--border-color);&quot;&gt;&lt;span style=&quot;&quot;&gt;+ Cust Value&lt;/span&gt;&lt;br style=&quot;border-color: var(--border-color);&quot;&gt;&lt;span style=&quot;&quot;&gt;+ Est. Effort&lt;/span&gt;" style="shape=document;whiteSpace=wrap;html=1;boundedLbl=1;fontSize=12;" parent="1" vertex="1">
                    <mxGeometry x="800" y="-220" width="120" height="80" as="geometry"/>
                </mxCell>
                <mxCell id="zh6JlAkq9VDc3pki78OX-17" value="" style="edgeStyle=orthogonalEdgeStyle;rounded=0;orthogonalLoop=1;jettySize=auto;html=1;fontSize=12;entryX=0;entryY=0.5;entryDx=0;entryDy=0;exitX=0.5;exitY=0;exitDx=0;exitDy=0;" parent="1" source="zh6JlAkq9VDc3pki78OX-15" target="zh6JlAkq9VDc3pki78OX-14" edge="1">
                    <mxGeometry relative="1" as="geometry"/>
                </mxCell>
                <mxCell id="uuuJedV01FXUV6uYnoM6-2" value="" style="edgeStyle=orthogonalEdgeStyle;rounded=0;orthogonalLoop=1;jettySize=auto;html=1;" parent="1" source="zh6JlAkq9VDc3pki78OX-15" target="uuuJedV01FXUV6uYnoM6-1" edge="1">
                    <mxGeometry relative="1" as="geometry"/>
                </mxCell>
                <mxCell id="zh6JlAkq9VDc3pki78OX-15" value="Assign&lt;br&gt;Cust. Value&lt;br&gt;Est. Effort" style="rounded=1;whiteSpace=wrap;html=1;fontSize=12;" parent="1" vertex="1">
                    <mxGeometry x="665.0000000000001" y="-110" width="120" height="60" as="geometry"/>
                </mxCell>
                <mxCell id="pVKQgHNcuQJQBDode_di-2" value="" style="shape=curlyBracket;whiteSpace=wrap;html=1;rounded=1;flipH=1;labelPosition=right;verticalLabelPosition=middle;align=left;verticalAlign=middle;fontSize=12;rotation=-90;" parent="1" vertex="1">
                    <mxGeometry x="715" y="-175" width="20" height="310" as="geometry"/>
                </mxCell>
                <mxCell id="uuuJedV01FXUV6uYnoM6-37" style="edgeStyle=orthogonalEdgeStyle;rounded=0;orthogonalLoop=1;jettySize=auto;html=1;entryX=1;entryY=1;entryDx=0;entryDy=0;" parent="1" source="CbIGhx0lqM554FLyAYgv-1" target="yc3m5w_ezIkJ8CxKZsT--6" edge="1">
                    <mxGeometry relative="1" as="geometry"/>
                </mxCell>
                <mxCell id="CbIGhx0lqM554FLyAYgv-1" style="vsdxID=74;fillColor=none;gradientColor=none;strokeColor=none;strokeWidth=2;spacingTop=-3;spacingBottom=-3;spacingLeft=-3;spacingRight=-3;labelBackgroundColor=none;rounded=1;html=1;whiteSpace=wrap;fontColor=#000000;" parent="1" vertex="1">
                    <mxGeometry x="800" y="380" width="155" height="105" as="geometry"/>
                </mxCell>
                <mxCell id="CbIGhx0lqM554FLyAYgv-2" style="vsdxID=75;fillColor=#ffffff;gradientColor=none;shape=stencil(UzV2Ls5ILEhVNTIoLinKz04tz0wpyVA1dlE1MsrMy0gtyiwBslSNXVWNndPyi1LTi/JL81Ig/IJEkEoQKze/DGRCBUSfAUiHkUElMs8NojAnMw9JoZEpmSqhXKxKDchUiWI7kIHwXVpmTg6yDHo4AIUgYWjsCgA=);strokeColor=#5e5e5e;strokeWidth=2;spacingTop=-3;spacingBottom=-3;spacingLeft=-3;spacingRight=-3;labelBackgroundColor=none;rounded=0;html=1;whiteSpace=wrap;fontColor=#000000;" parent="CbIGhx0lqM554FLyAYgv-1" vertex="1">
                    <mxGeometry width="155" height="105" as="geometry"/>
                </mxCell>
                <mxCell id="CbIGhx0lqM554FLyAYgv-3" style="vsdxID=76;fillColor=#ffffff;gradientColor=none;shape=stencil(UzV2Ls5ILEhVNTIoLinKz04tz0wpyVA1dlE1MsrMy0gtyiwBslSNXVWNndPyi1LTi/JL81Ig/IJEkEoQKze/DGRCBUSfkSlIi5FBJYRrAOa5QVTmZOYhqTQ1IFMl1AqsStGsJ0Epiv1ABsKDaZk5Ocgy6EEBFIIEo7ErAA==);strokeColor=#5e5e5e;strokeWidth=2;spacingTop=-3;spacingBottom=-3;spacingLeft=-3;spacingRight=-3;labelBackgroundColor=none;rounded=0;html=1;whiteSpace=wrap;fontColor=#000000;" parent="CbIGhx0lqM554FLyAYgv-1" vertex="1">
                    <mxGeometry width="155" height="105" as="geometry"/>
                </mxCell>
                <mxCell id="CbIGhx0lqM554FLyAYgv-4" style="vsdxID=77;fillColor=#ffffff;gradientColor=none;shape=stencil(UzV2Ls5ILEhVNTIoLinKz04tz0wpyVA1dlE1MsrMy0gtyiwBslSNXVWNndPyi1LTi/JL81Ig/IJEkEoQKze/DGRCBUSfqQFIi5FBJYQL4blBVOZk5iGpNDclU6WRKW6laNaToBTFfiAD4cG0zJwcZBn0oAAKQYLR2BUA);strokeColor=#5e5e5e;strokeWidth=2;spacingTop=-3;spacingBottom=-3;spacingLeft=-3;spacingRight=-3;labelBackgroundColor=none;rounded=0;html=1;whiteSpace=wrap;fontColor=#000000;" parent="CbIGhx0lqM554FLyAYgv-1" vertex="1">
                    <mxGeometry width="155" height="105" as="geometry"/>
                </mxCell>
                <mxCell id="CbIGhx0lqM554FLyAYgv-5" style="vsdxID=78;fillColor=#ffffff;gradientColor=none;shape=stencil(UzV2Ls5ILEhVNTIoLinKz04tz0wpyVA1dlE1MsrMy0gtyiwBslSNXVWNndPyi1LTi/JL81Ig/IJEkEoQKze/DGRCBUSfuSlIi5FBJYRrAOa5QVTmZOYhqTQ0MCBXqZEpbrVoDiBBKYoDgAyEF9Myc3KQZdADAygECUhjVwA=);strokeColor=#5e5e5e;strokeWidth=2;spacingTop=-3;spacingBottom=-3;spacingLeft=-3;spacingRight=-3;labelBackgroundColor=none;rounded=0;html=1;whiteSpace=wrap;fontColor=#000000;" parent="CbIGhx0lqM554FLyAYgv-1" vertex="1">
                    <mxGeometry width="155" height="105" as="geometry"/>
                </mxCell>
                <mxCell id="CbIGhx0lqM554FLyAYgv-6" style="vsdxID=79;fillColor=#ffffff;gradientColor=none;shape=stencil(UzV2Ls5ILEhVNTIoLinKz04tz0wpyVA1dlE1MsrMy0gtyiwBslSNXVWNndPyi1LTi/JL81Ig/IJEkEoQKze/DGRCBUSfAUiHkUElhGdkCua6QVTmZOYhqYTKkaHU1AC3UgMyVaJaD2QgPJiWmZODLIMeFEAhSDAauwIA);strokeColor=#5e5e5e;strokeWidth=2;spacingTop=-3;spacingBottom=-3;spacingLeft=-3;spacingRight=-3;labelBackgroundColor=none;rounded=0;html=1;whiteSpace=wrap;fontColor=#000000;" parent="CbIGhx0lqM554FLyAYgv-1" vertex="1">
                    <mxGeometry width="155" height="105" as="geometry"/>
                </mxCell>
                <mxCell id="CbIGhx0lqM554FLyAYgv-7" style="vsdxID=80;fillColor=#ffffff;gradientColor=none;shape=stencil(UzV2Ls5ILEhVNTIoLinKz04tz0wpyVA1dlE1MsrMy0gtyiwBslSNXVWNndPyi1LTi/JL81Ig/IJEkEoQKze/DGRCBUSfkSlIi5FBJQrXDaI0JzMPSampAblKoVysStEcQIJSVAcAGQg/pmXm5CDLoIcGUAgSksauAA==);strokeColor=#5e5e5e;strokeWidth=2;spacingTop=-3;spacingBottom=-3;spacingLeft=-3;spacingRight=-3;labelBackgroundColor=none;rounded=0;html=1;whiteSpace=wrap;fontColor=#000000;" parent="CbIGhx0lqM554FLyAYgv-1" vertex="1">
                    <mxGeometry width="155" height="105" as="geometry"/>
                </mxCell>
                <mxCell id="CbIGhx0lqM554FLyAYgv-8" style="vsdxID=81;fillColor=#ffffff;gradientColor=none;shape=stencil(UzV2Ls5ILEhVNTIoLinKz04tz0wpyVA1dlE1MsrMy0gtyiwBslSNXVWNndPyi1LTi/JL81Ig/IJEkEoQKze/DGRCBUSfqQFIi5FBJYRrZArmukGU5mTmISk1NyVXKdQSrErRHECCUlQHABkIP6Zl5uQgy6CHBlAIEpLGrgA=);strokeColor=#5e5e5e;strokeWidth=2;spacingTop=-3;spacingBottom=-3;spacingLeft=-3;spacingRight=-3;labelBackgroundColor=none;rounded=0;html=1;whiteSpace=wrap;fontColor=#000000;" parent="CbIGhx0lqM554FLyAYgv-1" vertex="1">
                    <mxGeometry width="155" height="105" as="geometry"/>
                </mxCell>
                <mxCell id="CbIGhx0lqM554FLyAYgv-9" style="vsdxID=82;fillColor=#ffffff;gradientColor=none;shape=stencil(UzV2Ls5ILEhVNTIoLinKz04tz0wpyVA1dlE1MsrMy0gtyiwBslSNXVWNndPyi1LTi/JL81Ig/IJEkEoQKze/DGRCBUSfuSlIi5FBJYRrBOG6QZTmZOYhKTU0MCBbrakBbrVoTiBBKaoLgAyEL9Myc3KQZdDDAygECUtjVwA=);strokeColor=#5e5e5e;strokeWidth=2;spacingTop=-3;spacingBottom=-3;spacingLeft=-3;spacingRight=-3;labelBackgroundColor=none;rounded=0;html=1;whiteSpace=wrap;fontColor=#000000;" parent="CbIGhx0lqM554FLyAYgv-1" vertex="1">
                    <mxGeometry width="155" height="105" as="geometry"/>
                </mxCell>
                <mxCell id="CbIGhx0lqM554FLyAYgv-10" style="vsdxID=83;fillColor=#ffffff;gradientColor=none;shape=stencil(UzV2Ls5ILEhVNTIoLinKz04tz0wpyVA1dlE1MsrMy0gtyiwBslSNXVWNndPyi1LTi/JL81Ig/IJEkEoQKze/DGRCBUSfAUiHkUElhGcK4bpBVOZk5iGpNDIlV6m5KW6lBmSqRLUeyEB4MC0zJwdZBj0ogEKQYDR2BQA=);strokeColor=#5e5e5e;strokeWidth=2;spacingTop=-3;spacingBottom=-3;spacingLeft=-3;spacingRight=-3;labelBackgroundColor=none;rounded=0;html=1;whiteSpace=wrap;fontColor=#000000;" parent="CbIGhx0lqM554FLyAYgv-1" vertex="1">
                    <mxGeometry width="155" height="105" as="geometry"/>
                </mxCell>
                <mxCell id="CbIGhx0lqM554FLyAYgv-11" style="vsdxID=84;fillColor=#ffffff;gradientColor=none;shape=stencil(UzV2Ls5ILEhVNTIoLinKz04tz0wpyVA1dlE1MsrMy0gtyiwBslSNXVWNndPyi1LTi/JL81Ig/IJEkEoQKze/DGRCBUSfkSlIi5FBJYRragDmukGU5mTmISmFypGh1NwUt1I0B5CgFNUBQAbCj2mZOTnIMuihARSChKSxKwA=);strokeColor=#5e5e5e;strokeWidth=2;spacingTop=-3;spacingBottom=-3;spacingLeft=-3;spacingRight=-3;labelBackgroundColor=none;rounded=0;html=1;whiteSpace=wrap;fontColor=#000000;" parent="CbIGhx0lqM554FLyAYgv-1" vertex="1">
                    <mxGeometry width="155" height="105" as="geometry"/>
                </mxCell>
                <mxCell id="CbIGhx0lqM554FLyAYgv-12" style="vsdxID=85;fillColor=#ffffff;gradientColor=none;shape=stencil(UzV2Ls5ILEhVNTIoLinKz04tz0wpyVA1dlE1MsrMy0gtyiwBslSNXVWNndPyi1LTi/JL81Ig/IJEkEoQKze/DGRCBUSfqQFIi5FBJQrXDaI0JzMPSam5KblKoVysStEcQIJSVAcAGQg/pmXm5CDLoIcGUAgSksauAA==);strokeColor=#5e5e5e;strokeWidth=2;spacingTop=-3;spacingBottom=-3;spacingLeft=-3;spacingRight=-3;labelBackgroundColor=none;rounded=0;html=1;whiteSpace=wrap;fontColor=#000000;" parent="CbIGhx0lqM554FLyAYgv-1" vertex="1">
                    <mxGeometry width="155" height="105" as="geometry"/>
                </mxCell>
                <mxCell id="CbIGhx0lqM554FLyAYgv-13" style="vsdxID=86;fillColor=#ffffff;gradientColor=none;shape=stencil(UzV2Ls5ILEhVNTIoLinKz04tz0wpyVA1dlE1MsrMy0gtyiwBslSNXVWNndPyi1LTi/JL81Ig/IJEkEoQKze/DGRCBUSfuSlIi5FBJYRragDmukGU5mTmISk1NDAgWy3UGqxq0ZxAglJUFwAZCF+mZebkIMughwdQCBKWxq4A);strokeColor=#5e5e5e;strokeWidth=2;spacingTop=-3;spacingBottom=-3;spacingLeft=-3;spacingRight=-3;labelBackgroundColor=none;rounded=0;html=1;whiteSpace=wrap;fontColor=#000000;" parent="CbIGhx0lqM554FLyAYgv-1" vertex="1">
                    <mxGeometry width="155" height="105" as="geometry"/>
                </mxCell>
                <mxCell id="CbIGhx0lqM554FLyAYgv-14" style="vsdxID=87;fillColor=#ffffff;gradientColor=none;shape=stencil(UzV2Ls5ILEhVNTIoLinKz04tz0wpyVA1dlE1MsrMy0gtyiwBslSNXVWNndPyi1LTi/JL81Ig/IJEkEoQKze/DGRCBUSfAUiHkUElhGduCua6QVTmZOYhqTQyJVepoYEBbrUG5CpFdQCQgfBiWmZODrIMemAAhSABaewKAA==);strokeColor=#5e5e5e;strokeWidth=2;spacingTop=-3;spacingBottom=-3;spacingLeft=-3;spacingRight=-3;labelBackgroundColor=none;rounded=0;html=1;whiteSpace=wrap;fontColor=#000000;" parent="CbIGhx0lqM554FLyAYgv-1" vertex="1">
                    <mxGeometry width="155" height="105" as="geometry"/>
                </mxCell>
                <mxCell id="CbIGhx0lqM554FLyAYgv-15" style="vsdxID=88;fillColor=#ffffff;gradientColor=none;shape=stencil(UzV2Ls5ILEhVNTIoLinKz04tz0wpyVA1dlE1MsrMy0gtyiwBslSNXVWNndPyi1LTi/JL81Ig/IJEkEoQKze/DGRCBUSfkSlIi5FBJYRrDuG6QZTmZOYhKTU1IFepoYEBbrVoLiBFLaoTgAyEL9Myc3KQZdDDAygECUtjVwA=);strokeColor=#5e5e5e;strokeWidth=2;spacingTop=-3;spacingBottom=-3;spacingLeft=-3;spacingRight=-3;labelBackgroundColor=none;rounded=0;html=1;whiteSpace=wrap;fontColor=#000000;" parent="CbIGhx0lqM554FLyAYgv-1" vertex="1">
                    <mxGeometry width="155" height="105" as="geometry"/>
                </mxCell>
                <mxCell id="CbIGhx0lqM554FLyAYgv-16" style="vsdxID=89;fillColor=#ffffff;gradientColor=none;shape=stencil(UzV2Ls5ILEhVNTIoLinKz04tz0wpyVA1dlE1MsrMy0gtyiwBslSNXVWNndPyi1LTi/JL81Ig/IJEkEoQKze/DGRCBUSfqQFIi5FBJYRrbgrmukGU5mTmISmFypGh1NDAALdaNBeQohbVCUAGwpdpmTk5yDLo4QEUgoSlsSsA);strokeColor=#5e5e5e;strokeWidth=2;spacingTop=-3;spacingBottom=-3;spacingLeft=-3;spacingRight=-3;labelBackgroundColor=none;rounded=0;html=1;whiteSpace=wrap;fontColor=#000000;" parent="CbIGhx0lqM554FLyAYgv-1" vertex="1">
                    <mxGeometry width="155" height="105" as="geometry"/>
                </mxCell>
                <mxCell id="CbIGhx0lqM554FLyAYgv-17" style="vsdxID=90;fillColor=#ffffff;gradientColor=none;shape=stencil(UzV2Ls5ILEhVNTIoLinKz04tz0wpyVA1dlE1MsrMy0gtyiwBslSNXVWNndPyi1LTi/JL81Ig/IJEkEoQKze/DGRCBUSfuSlIi5FBJQrXDaI0JzMPSamhgQHZamF8rIrR3ECKWlQ3ABkIf6Zl5uQgy6CHCFAIEprGrgA=);strokeColor=#5e5e5e;strokeWidth=2;spacingTop=-3;spacingBottom=-3;spacingLeft=-3;spacingRight=-3;labelBackgroundColor=none;rounded=0;html=1;whiteSpace=wrap;fontColor=#000000;" parent="CbIGhx0lqM554FLyAYgv-1" vertex="1">
                    <mxGeometry width="155" height="105" as="geometry"/>
                </mxCell>
                <mxCell id="CbIGhx0lqM554FLyAYgv-18" style="vsdxID=91;fillColor=#ffffff;gradientColor=none;shape=stencil(dY9LDoAgDERP0z1p4wlQ70EiClHBAP5uL6QLiYm7mfZNMwWS0ahNA4qYgp/1aYdkgFpAtM7oYFNWQB2QHH3QU/C7G9hvqpBFrf4oFy7OiZJAcdeuZ3Cx7hfEpiazeO9ztXr37ZJH/Ad1Dw==);strokeColor=#5e5e5e;strokeWidth=2;spacingTop=-3;spacingBottom=-3;spacingLeft=-3;spacingRight=-3;labelBackgroundColor=none;rounded=0;html=1;whiteSpace=wrap;fontColor=#000000;" parent="CbIGhx0lqM554FLyAYgv-1" vertex="1">
                    <mxGeometry width="155" height="105" as="geometry"/>
                </mxCell>
                <mxCell id="CbIGhx0lqM554FLyAYgv-19" style="vsdxID=92;fillColor=#ffffff;gradientColor=none;shape=stencil(dY9LDoAgDERP0z1p4wn83MMEFKICQfzdXrAmGhN389ppOwUqZ916BSjmGNygNiOjBqoA0VitgolJAdVAZeeC6oNbrGT2bXZmNbk1b9h5Dos8guJgFBc17ByN/XfeeFuTeC5wuHfvmyaV+BOqTw==);strokeColor=#5e5e5e;strokeWidth=2;spacingTop=-3;spacingBottom=-3;spacingLeft=-3;spacingRight=-3;labelBackgroundColor=none;rounded=0;html=1;whiteSpace=wrap;fontColor=#000000;" parent="CbIGhx0lqM554FLyAYgv-1" vertex="1">
                    <mxGeometry width="155" height="105" as="geometry"/>
                </mxCell>
                <mxCell id="CbIGhx0lqM554FLyAYgv-20" style="vsdxID=93;fillColor=#ffffff;gradientColor=none;shape=stencil(dY9LDoAgDERP0z1p4wlQ70EiClGBAP5uL6QLjYm7mfa1nQLJZFTQgCLl6Gd92CEboBYQrTM62lwUUAckRx/1FP3mBvZBVbKq1e91w8lzjagjKC627HomF+v+SWzeaBHPBQ737n3TlBJ/Qt0N);strokeColor=#5e5e5e;strokeWidth=2;spacingTop=-3;spacingBottom=-3;spacingLeft=-3;spacingRight=-3;labelBackgroundColor=none;rounded=0;html=1;whiteSpace=wrap;fontColor=#000000;" parent="CbIGhx0lqM554FLyAYgv-1" vertex="1">
                    <mxGeometry width="155" height="105" as="geometry"/>
                </mxCell>
                <mxCell id="CbIGhx0lqM554FLyAYgv-21" style="vsdxID=94;fillColor=#ffffff;gradientColor=none;shape=stencil(dY9LDoAgDERP0z1pYzyAn3uQiEJUIIi/2wt2oTFxN9O+tlOgatHSK0CxxOBGtZsuaqAaEI3VKpiYFFADVPUuqCG41XbsvcxkVrPb8oaD58oij6A42YrbtUxOxv6TWLzRJJ4LHO7d+6ZJJf6Emgs=);strokeColor=#5e5e5e;strokeWidth=2;spacingTop=-3;spacingBottom=-3;spacingLeft=-3;spacingRight=-3;labelBackgroundColor=none;rounded=0;html=1;whiteSpace=wrap;fontColor=#000000;" parent="CbIGhx0lqM554FLyAYgv-1" vertex="1">
                    <mxGeometry width="155" height="105" as="geometry"/>
                </mxCell>
                <mxCell id="CbIGhx0lqM554FLyAYgv-22" style="vsdxID=95;fillColor=#ffffff;gradientColor=none;shape=stencil(fY9LDoAgDERP0z228QR+7kEiClGBAP5uL6QLjQt3M+1rOwVqopZeAYqYgpvVYYakgVpANFarYFJWQB1QM7qgpuA2O7D3spBFrW4vG06eq4QoMygu9ux6Rhdjf1Cs32wWzw2O9+598+QS/0LdDQ==);strokeColor=#5e5e5e;strokeWidth=2;spacingTop=-3;spacingBottom=-3;spacingLeft=-3;spacingRight=-3;labelBackgroundColor=none;rounded=0;html=1;whiteSpace=wrap;fontColor=#000000;" parent="CbIGhx0lqM554FLyAYgv-1" vertex="1">
                    <mxGeometry width="155" height="105" as="geometry"/>
                </mxCell>
                <mxCell id="CbIGhx0lqM554FLyAYgv-23" style="vsdxID=96;fillColor=#ffffff;gradientColor=none;shape=stencil(dY9LDoAgDERP0z1p4wkU72EiClHBAP5uL9iFxMTdTPvaToHqoLtVAYoQvZvUYfqogRpANFYrb2JSQBKoHpxXo3eb7dmvXSazWtyeN5w8J/IEiosdVo9tmZyN/SUrUZJJvAc4W9n7hkklfoTkDQ==);strokeColor=#5e5e5e;strokeWidth=2;spacingTop=-3;spacingBottom=-3;spacingLeft=-3;spacingRight=-3;labelBackgroundColor=none;rounded=0;html=1;whiteSpace=wrap;fontColor=#000000;" parent="CbIGhx0lqM554FLyAYgv-1" vertex="1">
                    <mxGeometry width="155" height="105" as="geometry"/>
                </mxCell>
                <mxCell id="CbIGhx0lqM554FLyAYgv-24" style="vsdxID=97;fillColor=#ffffff;gradientColor=none;shape=stencil(UzV2Ls5ILEhVNTIoLinKz04tz0wpyVA1dlE1MsrMy0gtyiwBslSNXVWNndPyi1LTi/JL81Ig/IJEkEoQKze/DGRCBUSfkSlIi5FBJQrXDaI0JzMPt1JTA2SlQAbCCojrkOXQnQMUgnjF2BUA);strokeColor=#5e5e5e;strokeWidth=2;spacingTop=-3;spacingBottom=-3;spacingLeft=-3;spacingRight=-3;labelBackgroundColor=none;rounded=0;html=1;whiteSpace=wrap;fontColor=#000000;" parent="CbIGhx0lqM554FLyAYgv-1" vertex="1">
                    <mxGeometry width="155" height="105" as="geometry"/>
                </mxCell>
                <mxCell id="CbIGhx0lqM554FLyAYgv-25" style="vsdxID=98;fillColor=#ffffff;gradientColor=none;shape=stencil(dY9LDoAgDERP0z1pwwn83MNEFKICQfzdXrAmGhN389ppOwUqZt14BSjmGNygNtNGDVQCorFaBROTAqqAis4F1Qe32JbZN9mZ1eTWvGHnOSnyCIqDEeWFNVtHY/+tN97WJJ4TnO7d+8ZJJX6FqhM=);strokeColor=#5e5e5e;strokeWidth=2;spacingTop=-3;spacingBottom=-3;spacingLeft=-3;spacingRight=-3;labelBackgroundColor=none;rounded=0;html=1;whiteSpace=wrap;fontColor=#000000;" parent="CbIGhx0lqM554FLyAYgv-1" vertex="1">
                    <mxGeometry width="155" height="105" as="geometry"/>
                </mxCell>
                <mxCell id="CbIGhx0lqM554FLyAYgv-26" style="vsdxID=99;fillColor=#ffffff;gradientColor=none;shape=stencil(dY9LDoAgDERP0z1pQzyAn3uQiEJUIIi/2wvpQmPibqZ9badA9WpU0IBiTdFP+rB9MkANIFpndLQpK6AWqB581GP0m+vZB1XIoha/lw0nz1WyjKC42CLbjtHZun9UijeaxXOC07173zi5xK9QewM=);strokeColor=#5e5e5e;strokeWidth=2;spacingTop=-3;spacingBottom=-3;spacingLeft=-3;spacingRight=-3;labelBackgroundColor=none;rounded=0;html=1;whiteSpace=wrap;fontColor=#000000;" parent="CbIGhx0lqM554FLyAYgv-1" vertex="1">
                    <mxGeometry width="155" height="105" as="geometry"/>
                </mxCell>
                <mxCell id="CbIGhx0lqM554FLyAYgv-27" style="vsdxID=100;fillColor=#ffffff;gradientColor=none;shape=stencil(fY9LDoAwCERPwx4hnsDPPUystlFbU+vv9ray0LhwNwMPGICLRTezAsIleDeo3bRBA5dAZKxW3oSogCvgonNe9d6tthU/N4lManJb2nDIXIaYZghP8ZTfthZ2NPaHzfHNRvEckXzv3jdQLMkzXF0=);strokeColor=#5e5e5e;strokeWidth=2;spacingTop=-3;spacingBottom=-3;spacingLeft=-3;spacingRight=-3;labelBackgroundColor=none;rounded=0;html=1;whiteSpace=wrap;fontColor=#000000;" parent="CbIGhx0lqM554FLyAYgv-1" vertex="1">
                    <mxGeometry width="155" height="105" as="geometry"/>
                </mxCell>
                <mxCell id="CbIGhx0lqM554FLyAYgv-28" style="vsdxID=101;fillColor=#ffffff;gradientColor=none;shape=stencil(dY9LDoAgDERP0z2hIR7Azz1IQCEqEMDf7YV0oTFxN9O+tlPANhkZNHCWcvSzPqzKBrADzq0zOtpcFGAP2I4+6in6zSnyQVayqtXvdcNJc6xOcHaRE2QHIhfrfslGvMkingOU7d37hiklegT7Gw==);strokeColor=#5e5e5e;strokeWidth=2;spacingTop=-3;spacingBottom=-3;spacingLeft=-3;spacingRight=-3;labelBackgroundColor=none;rounded=0;html=1;whiteSpace=wrap;fontColor=#000000;" parent="CbIGhx0lqM554FLyAYgv-1" vertex="1">
                    <mxGeometry width="155" height="105" as="geometry"/>
                </mxCell>
                <mxCell id="CbIGhx0lqM554FLyAYgv-29" style="vsdxID=102;fillColor=#ffffff;gradientColor=none;shape=stencil(dY9LDoAgDERP0z1pQzyA4j1MRCEqGMTf7QW70Ji4m2lf2ylQuZhm1oBiicEPerdtNEAVIFpndLAxKSAFVHY+6D741bXs5yaTWU1+yxsOnkOZR1CcbKW4bc3oaN0/Wsg3msRzgtO9e984qcSvkLoA);strokeColor=#5e5e5e;strokeWidth=2;spacingTop=-3;spacingBottom=-3;spacingLeft=-3;spacingRight=-3;labelBackgroundColor=none;rounded=0;html=1;whiteSpace=wrap;fontColor=#000000;" parent="CbIGhx0lqM554FLyAYgv-1" vertex="1">
                    <mxGeometry width="155" height="105" as="geometry"/>
                </mxCell>
                <mxCell id="CbIGhx0lqM554FLyAYgv-30" style="vsdxID=103;fillColor=#ffffff;gradientColor=none;shape=stencil(UzV2Ls5ILEhVNTIoLinKz04tz0wpyVA1dlE1MsrMy0gtyiwBslSNXVWNndPyi1LTi/JL81Ig/IJEkEoQKze/DGRCBUSfqQFIi5FBJQrXDaI0JzMPt1JzU2SlQAbCCojrkOXQnQMUgnjF2BUA);strokeColor=#5e5e5e;strokeWidth=2;spacingTop=-3;spacingBottom=-3;spacingLeft=-3;spacingRight=-3;labelBackgroundColor=none;rounded=0;html=1;whiteSpace=wrap;fontColor=#000000;" parent="CbIGhx0lqM554FLyAYgv-1" vertex="1">
                    <mxGeometry width="155" height="105" as="geometry"/>
                </mxCell>
                <mxCell id="CbIGhx0lqM554FLyAYgv-31" style="vsdxID=104;fillColor=#ffffff;gradientColor=none;shape=stencil(UzV2Ls5ILEhVNTIoLinKz04tz0wpyVA1dlE1MsrMy0gtyiwBslSNXVWNndPyi1LTi/JL81Ig/IJEkEoQKze/DGRCBUSfuSlIi5FBJYRragDmukGU5mTm4VYK5UKVAhkIKyCuQ5ZDdw5QCOIVY1cA);strokeColor=#5e5e5e;strokeWidth=2;spacingTop=-3;spacingBottom=-3;spacingLeft=-3;spacingRight=-3;labelBackgroundColor=none;rounded=0;html=1;whiteSpace=wrap;fontColor=#000000;" parent="CbIGhx0lqM554FLyAYgv-1" vertex="1">
                    <mxGeometry width="155" height="105" as="geometry"/>
                </mxCell>
                <mxCell id="CbIGhx0lqM554FLyAYgv-32" style="vsdxID=105;fillColor=#ffffff;gradientColor=none;shape=stencil(fY9LDoAgDERP0z3SGA+AeA8TUIgKBvB3eyFdaFy4m2lf2ymgiKZfNXAWU/CTPqxKBrAFzq0zOtiUFaAEFIMPegx+c4r82heyqMXvZcNJcxVjZYazi3xNtiN2tu6Hbeo3m8VzhPK9e99AuUTPoLwB);strokeColor=#5e5e5e;strokeWidth=2;spacingTop=-3;spacingBottom=-3;spacingLeft=-3;spacingRight=-3;labelBackgroundColor=none;rounded=0;html=1;whiteSpace=wrap;fontColor=#000000;" parent="CbIGhx0lqM554FLyAYgv-1" vertex="1">
                    <mxGeometry width="155" height="105" as="geometry"/>
                </mxCell>
                <mxCell id="CbIGhx0lqM554FLyAYgv-33" style="vsdxID=106;fillColor=#ffffff;gradientColor=none;shape=stencil(dY9LDoAgDERP032lMR4A9R4mohAVDOLv9oJdaEzczbSv7RRILrqZFQhcgneD2k0bNFAJQhirlTchKqAKSHbOq9671bbs5yaRSU1uSxsOnsM0IfBkV+S3rZkcjf0lM8Q3GsVzgcO9e980scSfUHUB);strokeColor=#5e5e5e;strokeWidth=2;spacingTop=-3;spacingBottom=-3;spacingLeft=-3;spacingRight=-3;labelBackgroundColor=none;rounded=0;html=1;whiteSpace=wrap;fontColor=#000000;" parent="CbIGhx0lqM554FLyAYgv-1" vertex="1">
                    <mxGeometry width="155" height="105" as="geometry"/>
                </mxCell>
                <mxCell id="CbIGhx0lqM554FLyAYgv-34" style="vsdxID=107;fillColor=#ffffff;gradientColor=none;shape=stencil(dY9LDoAgDERP0z22MR7Azz1IRCEqEMTf7YV0oTFxN9O+tlOgetXSK0CxxuAmdZg+aqAGEI3VKpiYFFALVA8uqDG4zfbsvcxkVovb84aT57DMIyguthXbjtHZ2H+0EOLNJvHc4Hjv3jdPKvEv1N4=);strokeColor=#5e5e5e;strokeWidth=2;spacingTop=-3;spacingBottom=-3;spacingLeft=-3;spacingRight=-3;labelBackgroundColor=none;rounded=0;html=1;whiteSpace=wrap;fontColor=#000000;" parent="CbIGhx0lqM554FLyAYgv-1" vertex="1">
                    <mxGeometry width="155" height="105" as="geometry"/>
                </mxCell>
                <mxCell id="CbIGhx0lqM554FLyAYgv-35" style="vsdxID=108;fillColor=#ffffff;gradientColor=none;shape=stencil(dY9LDoAgDERP032lMR4A9R4mohAVDOLv9oJdaEzczbSv7RRILrqZFQhcgneD2k0bNFAJQhirlTchKqAKSHbOq9671bbs5yaRSU1uSxsOnssxjQg82Rb5bWtGR2P/0QzxzUbx3OB47943TyzxL1Rd);strokeColor=#5e5e5e;strokeWidth=2;spacingTop=-3;spacingBottom=-3;spacingLeft=-3;spacingRight=-3;labelBackgroundColor=none;rounded=0;html=1;whiteSpace=wrap;fontColor=#000000;" parent="CbIGhx0lqM554FLyAYgv-1" vertex="1">
                    <mxGeometry width="155" height="105" as="geometry"/>
                </mxCell>
                <mxCell id="CbIGhx0lqM554FLyAYgv-36" style="vsdxID=109;fillColor=#ffffff;gradientColor=none;shape=stencil(UzV2Ls5ILEhVNTIoLinKz04tz0wpyVA1dlE1MsrMy0gtyiwBslSNXVWNndPyi1LTi/JL81Ig/IJEkEoQKze/DGRCBUSfuSlIi5FBJQrXDaI0JzMPt1JDAwNktUAGwg6I85Dl0N0DFIL4xdgVAA==);strokeColor=#5e5e5e;strokeWidth=2;spacingTop=-3;spacingBottom=-3;spacingLeft=-3;spacingRight=-3;labelBackgroundColor=none;rounded=0;html=1;whiteSpace=wrap;fontColor=#000000;" parent="CbIGhx0lqM554FLyAYgv-1" vertex="1">
                    <mxGeometry width="155" height="105" as="geometry"/>
                </mxCell>
                <mxCell id="CbIGhx0lqM554FLyAYgv-37" style="vsdxID=110;fillColor=#ffffff;gradientColor=none;shape=stencil(UzV2Ls5ILEhVNTIoLinKz04tz0wpyVA1dlE1MsrMy0gtyiwBslSNXVWNndPyi1LTi/JL81Ig/IJEkEoQKze/DGRCBUSfoYEBSI+RQSWEb24K5rpB1OZk5uFRC+NDFQMZCFsgDkSWQ3cRUAjiG2NXAA==);strokeColor=#5e5e5e;strokeWidth=2;spacingTop=-3;spacingBottom=-3;spacingLeft=-3;spacingRight=-3;labelBackgroundColor=none;rounded=0;html=1;whiteSpace=wrap;fontColor=#000000;" parent="CbIGhx0lqM554FLyAYgv-1" vertex="1">
                    <mxGeometry width="155" height="105" as="geometry"/>
                </mxCell>
                <mxCell id="CbIGhx0lqM554FLyAYgv-38" style="vsdxID=111;fillColor=#ffffff;gradientColor=none;shape=stencil(dY9LDoAgDERP0z1p4wlQ70EiClHBAP5uL6QLiYm7mfZNMwWS0ahNA4qYgp/1aYdkgFpAtM7oYFNWQB2QHH3QU/C7G9hvqpBFrf4oFy7OiZJAcdeuZ3CxrgKx+SezeO9ztXr37ZJH/Ad1Dw==);strokeColor=#5e5e5e;strokeWidth=2;spacingTop=-3;spacingBottom=-3;spacingLeft=-3;spacingRight=-3;labelBackgroundColor=none;rounded=0;html=1;whiteSpace=wrap;fontColor=#000000;" parent="CbIGhx0lqM554FLyAYgv-1" vertex="1">
                    <mxGeometry width="155" height="105" as="geometry"/>
                </mxCell>
                <mxCell id="CbIGhx0lqM554FLyAYgv-39" style="vsdxID=112;fillColor=#ffffff;gradientColor=none;shape=stencil(dY9LDoAgDERP0z1p4wkU72EiClHBAP5uL9iFxMTdTPvaToHqoLtVAYoQvZvUYfqogRpANFYrb2JSQBKoHpxXo3eb7dmvXSazWtyeN5w8h1UeQXGxFY9rmZyNLchK/JNJvAc4W9n7hkklfoTkDQ==);strokeColor=#5e5e5e;strokeWidth=2;spacingTop=-3;spacingBottom=-3;spacingLeft=-3;spacingRight=-3;labelBackgroundColor=none;rounded=0;html=1;whiteSpace=wrap;fontColor=#000000;" parent="CbIGhx0lqM554FLyAYgv-1" vertex="1">
                    <mxGeometry width="155" height="105" as="geometry"/>
                </mxCell>
                <mxCell id="CbIGhx0lqM554FLyAYgv-40" style="vsdxID=113;fillColor=#ffffff;gradientColor=none;shape=stencil(dY9LDoAgDERP0z2hIR7Azz1IQCEqEMDf7YV0oTFxN9O+tlPANhkZNHCWcvSzPqzKBrADzq0zOtpcFGAP2I4+6in6zSnyQVayqtXvdcNJc4LVEc4usuQGIhfrXmQj/skingOU7d37hiklegT7Gw==);strokeColor=#5e5e5e;strokeWidth=2;spacingTop=-3;spacingBottom=-3;spacingLeft=-3;spacingRight=-3;labelBackgroundColor=none;rounded=0;html=1;whiteSpace=wrap;fontColor=#000000;" parent="CbIGhx0lqM554FLyAYgv-1" vertex="1">
                    <mxGeometry width="155" height="105" as="geometry"/>
                </mxCell>
                <mxCell id="CbIGhx0lqM554FLyAYgv-41" style="vsdxID=114;fillColor=#ffffff;gradientColor=none;shape=stencil(dY9LDoAgDERP032lMR4A9R4mohAVDOLv9oJdaEzczbSv7RRILrqZFQhcgneD2k0bNFAJQhirlTchKqAKSHbOq9671bbs5yaRSU1uSxsOnivyNCLwZIu3q5kcjX2RGeI/GsVzgcO9e980scSfUHUB);strokeColor=#5e5e5e;strokeWidth=2;spacingTop=-3;spacingBottom=-3;spacingLeft=-3;spacingRight=-3;labelBackgroundColor=none;rounded=0;html=1;whiteSpace=wrap;fontColor=#000000;" parent="CbIGhx0lqM554FLyAYgv-1" vertex="1">
                    <mxGeometry width="155" height="105" as="geometry"/>
                </mxCell>
                <mxCell id="CbIGhx0lqM554FLyAYgv-42" style="vsdxID=115;fillColor=#ffffff;gradientColor=none;shape=stencil(bU9bDoAgDDvN/skWT+DjHiagEBUI4uv2gjPRGP/atd06oHLWrVeAYo7BDWozMmqgChCN1SqYmBBQDVR2Lqg+uMVK5r7Nzowmt+YNO+dETqA4mGFx0Yado7Ev5639WxN4LnC5t/Ztk0b8CdUn);strokeColor=#5e5e5e;strokeWidth=2;spacingTop=-3;spacingBottom=-3;spacingLeft=-3;spacingRight=-3;labelBackgroundColor=none;rounded=0;html=1;whiteSpace=wrap;fontColor=#000000;" parent="CbIGhx0lqM554FLyAYgv-1" vertex="1">
                    <mxGeometry width="155" height="105" as="geometry"/>
                </mxCell>
                <mxCell id="CbIGhx0lqM554FLyAYgv-43" style="vsdxID=116;fillColor=#ffffff;gradientColor=none;shape=stencil(UzV2Ls5ILEhVNTIoLinKz04tz0wpyVA1dlE1MsrMy0gtyiwBslSNXVWNndPyi1LTi/JL81Ig/IJEkEoQKze/DGRCBUSfkSlIi5FBJQrXDaI0JzMPSampAR6lQAbCCojrkOXQnQMUgnjF2BUA);strokeColor=#5e5e5e;strokeWidth=2;spacingTop=-3;spacingBottom=-3;spacingLeft=-3;spacingRight=-3;labelBackgroundColor=none;rounded=0;html=1;whiteSpace=wrap;fontColor=#000000;" parent="CbIGhx0lqM554FLyAYgv-1" vertex="1">
                    <mxGeometry width="155" height="105" as="geometry"/>
                </mxCell>
                <mxCell id="CbIGhx0lqM554FLyAYgv-44" style="vsdxID=117;fillColor=#ffffff;gradientColor=none;shape=stencil(fY9LDoAgDERP0z1pQzyA4j1MRCEqGMTf7QW70LhwN9O+tlOgcjHNrAHFEoMf9G7baIAqQLTO6GBjUkAKqOx80H3wq2vZz00ms5r8ljccPCdFHkFxskV525rR0boXWsgfNInnBKd7975xUolfIXUB);strokeColor=#5e5e5e;strokeWidth=2;spacingTop=-3;spacingBottom=-3;spacingLeft=-3;spacingRight=-3;labelBackgroundColor=none;rounded=0;html=1;whiteSpace=wrap;fontColor=#000000;" parent="CbIGhx0lqM554FLyAYgv-1" vertex="1">
                    <mxGeometry width="155" height="105" as="geometry"/>
                </mxCell>
                <mxCell id="CbIGhx0lqM554FLyAYgv-45" style="vsdxID=118;fillColor=#ffffff;gradientColor=none;shape=stencil(fY9LDoAgDERP0z22MR7Azz1IRCEqEMTf7YV0oXHhbqZ9badA9aqlV4BijcFN6jB91EANIBqrVTAxKaAWqB5cUGNwm+3Ze5nJrBa35w0nz1VlHkFxsUW2HaOzsS+0EOKHTeK5wfHevW+eVOJfqL0B);strokeColor=#5e5e5e;strokeWidth=2;spacingTop=-3;spacingBottom=-3;spacingLeft=-3;spacingRight=-3;labelBackgroundColor=none;rounded=0;html=1;whiteSpace=wrap;fontColor=#000000;" parent="CbIGhx0lqM554FLyAYgv-1" vertex="1">
                    <mxGeometry width="155" height="105" as="geometry"/>
                </mxCell>
                <mxCell id="CbIGhx0lqM554FLyAYgv-46" style="vsdxID=119;fillColor=#ffffff;gradientColor=none;shape=stencil(fY9LDoAgDERP0z1p4wlQ70EiClGBAP5uL6QLjQt3M+1rOwWSyaigAUXK0c/6sEM2QC0gWmd0tLkooA5Ijj7qKfrNDeyDqmRVq9/rhpPnRJ1AcbFr2PZMLta9SGx+0CKeCxzu3fumKSX+hLob);strokeColor=#5e5e5e;strokeWidth=2;spacingTop=-3;spacingBottom=-3;spacingLeft=-3;spacingRight=-3;labelBackgroundColor=none;rounded=0;html=1;whiteSpace=wrap;fontColor=#000000;" parent="CbIGhx0lqM554FLyAYgv-1" vertex="1">
                    <mxGeometry width="155" height="105" as="geometry"/>
                </mxCell>
                <mxCell id="CbIGhx0lqM554FLyAYgv-47" style="vsdxID=120;fillColor=#ffffff;gradientColor=none;shape=stencil(bU9bDoAgDDvN/skWTuDjHiaiEBUI4uv2gjPRGP/atd06oGLWjVeAYo7BDWozbdRAJSAaq1UwMSGgCqjoXFB9cIttmfsmOzOa3Jo37JxDmSMoDqZSXLRm62jsy3pr/9YEnhPc7q1966QRv0LVCQ==);strokeColor=#5e5e5e;strokeWidth=2;spacingTop=-3;spacingBottom=-3;spacingLeft=-3;spacingRight=-3;labelBackgroundColor=none;rounded=0;html=1;whiteSpace=wrap;fontColor=#000000;" parent="CbIGhx0lqM554FLyAYgv-1" vertex="1">
                    <mxGeometry width="155" height="105" as="geometry"/>
                </mxCell>
                <mxCell id="CbIGhx0lqM554FLyAYgv-48" style="vsdxID=121;fillColor=#ffffff;gradientColor=none;shape=stencil(UzV2Ls5ILEhVNTIoLinKz04tz0wpyVA1dlE1MsrMy0gtyiwBslSNXVWNndPyi1LTi/JL81Ig/IJEkEoQKze/DGRCBUSfqQFIi5FBJQrXDaI0JzMPSam5KR6lQAbCCojrkOXQnQMUgnjF2BUA);strokeColor=#5e5e5e;strokeWidth=2;spacingTop=-3;spacingBottom=-3;spacingLeft=-3;spacingRight=-3;labelBackgroundColor=none;rounded=0;html=1;whiteSpace=wrap;fontColor=#000000;" parent="CbIGhx0lqM554FLyAYgv-1" vertex="1">
                    <mxGeometry width="155" height="105" as="geometry"/>
                </mxCell>
                <mxCell id="CbIGhx0lqM554FLyAYgv-49" style="vsdxID=122;fillColor=#ffffff;gradientColor=none;shape=stencil(fY9LDoAgDERP032lMR4A9R4mohAVDOLv9oJdaFy4m2lf2ymQXHQzKxC4BO8GtZs2aKAShDBWK29CVEAVkOycV713q23Zz00ik5rcljYcPFfkaUTgyTbH29aMjsa+0Azxh43iucHx3r1vnljiX6i6AA==);strokeColor=#5e5e5e;strokeWidth=2;spacingTop=-3;spacingBottom=-3;spacingLeft=-3;spacingRight=-3;labelBackgroundColor=none;rounded=0;html=1;whiteSpace=wrap;fontColor=#000000;" parent="CbIGhx0lqM554FLyAYgv-1" vertex="1">
                    <mxGeometry width="155" height="105" as="geometry"/>
                </mxCell>
                <mxCell id="CbIGhx0lqM554FLyAYgv-50" style="vsdxID=123;fillColor=#ffffff;gradientColor=none;shape=stencil(fY9LDoAgDERP0z1pYzyAn3uQiEJUIIi/2wt2oXHhbqZ9badA1aKlV4BiicGNajdd1EA1IBqrVTAxKaAGqOpdUENwq+3Ye5nJrGa35Q0Hz4k8geJkVxa3bZmcjH2RWPygSTwXONy7902TSvwJNRc=);strokeColor=#5e5e5e;strokeWidth=2;spacingTop=-3;spacingBottom=-3;spacingLeft=-3;spacingRight=-3;labelBackgroundColor=none;rounded=0;html=1;whiteSpace=wrap;fontColor=#000000;" parent="CbIGhx0lqM554FLyAYgv-1" vertex="1">
                    <mxGeometry width="155" height="105" as="geometry"/>
                </mxCell>
                <mxCell id="CbIGhx0lqM554FLyAYgv-51" style="vsdxID=124;fillColor=#ffffff;gradientColor=none;shape=stencil(fY9LDoAgDERP0z228QR+7kEiClGBAP5uL6QLjQt3M+1rOwVqopZeAYqYgpvVYYakgVpANFarYFJWQB1QM7qgpuA2O7D3spBFrW4vG06eE2UCxcWuEux7RhdjXyjWf2wWzw2O9+598+QS/0LdDQ==);strokeColor=#5e5e5e;strokeWidth=2;spacingTop=-3;spacingBottom=-3;spacingLeft=-3;spacingRight=-3;labelBackgroundColor=none;rounded=0;html=1;whiteSpace=wrap;fontColor=#000000;" parent="CbIGhx0lqM554FLyAYgv-1" vertex="1">
                    <mxGeometry width="155" height="105" as="geometry"/>
                </mxCell>
                <mxCell id="CbIGhx0lqM554FLyAYgv-52" style="vsdxID=125;fillColor=#ffffff;gradientColor=none;shape=stencil(fY9LDoAgDERP0z1pQzyAn3uQiEJUIIi/2wvpQuPC3Uz72k6B6tWooAHFmqKf9GH7ZIAaQLTO6GhTVkAtUD34qMfoN9ezD6qQRS1+LxtOnkNZRlBcbCu2HaOzdS9Uih80i+cEp3v3vnFyiV+h9gY=);strokeColor=#5e5e5e;strokeWidth=2;spacingTop=-3;spacingBottom=-3;spacingLeft=-3;spacingRight=-3;labelBackgroundColor=none;rounded=0;html=1;whiteSpace=wrap;fontColor=#000000;" parent="CbIGhx0lqM554FLyAYgv-1" vertex="1">
                    <mxGeometry width="155" height="105" as="geometry"/>
                </mxCell>
                <mxCell id="CbIGhx0lqM554FLyAYgv-53" style="vsdxID=126;fillColor=#ffffff;gradientColor=none;shape=stencil(fY9LDoAwCERPwx4hnsDPPUystlFbU+vv9ray0LhwNwMPGICLRTezAsIleDeo3bRBA5dAZKxW3oSogCvgonNe9d6tthU/N4lManJb2nDIHOVphPAUmyHevhZ2NPbF5vjHRvEckXzv3jdQLMkzXF0=);strokeColor=#5e5e5e;strokeWidth=2;spacingTop=-3;spacingBottom=-3;spacingLeft=-3;spacingRight=-3;labelBackgroundColor=none;rounded=0;html=1;whiteSpace=wrap;fontColor=#000000;" parent="CbIGhx0lqM554FLyAYgv-1" vertex="1">
                    <mxGeometry width="155" height="105" as="geometry"/>
                </mxCell>
                <mxCell id="CbIGhx0lqM554FLyAYgv-54" style="vsdxID=127;fillColor=#ffffff;gradientColor=none;shape=stencil(bU9bDoAgDDvN/gmL8QA+7mECClHBAL5uLzgTifGvXdutA6y86hYJnPng7Ch3LYICrIFzbZR0OkQE2ABWvXVycHY1gvjSJWdCs93ShoNyBUsRzk6iZXHTlqyTNpn10f6tEbwnqF2ufevEEb2CzQU=);strokeColor=#5e5e5e;strokeWidth=2;spacingTop=-3;spacingBottom=-3;spacingLeft=-3;spacingRight=-3;labelBackgroundColor=none;rounded=0;html=1;whiteSpace=wrap;fontColor=#000000;" parent="CbIGhx0lqM554FLyAYgv-1" vertex="1">
                    <mxGeometry width="155" height="105" as="geometry"/>
                </mxCell>
                <mxCell id="CbIGhx0lqM554FLyAYgv-55" style="vsdxID=128;fillColor=#ffffff;gradientColor=none;shape=stencil(fY9LDoAgDERP0z3SGA+AeA8TUIgKBvB3eyFdaFy4m2lf2ymgiKZfNXAWU/CTPqxKBrAFzq0zOtiUFaAEFIMPegx+c4r82heyqMXvZcNJczUrI5xdZCtGviN2tu7FNvUfm8VzhPK9e99AuUTPoLwB);strokeColor=#5e5e5e;strokeWidth=2;spacingTop=-3;spacingBottom=-3;spacingLeft=-3;spacingRight=-3;labelBackgroundColor=none;rounded=0;html=1;whiteSpace=wrap;fontColor=#000000;" parent="CbIGhx0lqM554FLyAYgv-1" vertex="1">
                    <mxGeometry width="155" height="105" as="geometry"/>
                </mxCell>
                <mxCell id="CbIGhx0lqM554FLyAYgv-56" style="vsdxID=129;fillColor=#ffffff;gradientColor=none;shape=stencil(UzV2Ls5ILEhVNTIoLinKz04tz0wpyVA1dlE1MsrMy0gtyiwBslSNXVWNndPyi1LTi/JL81Ig/IJEkEoQKze/DGRCBUSfuSlIi5FBJQrXDaI0JzMPSamhgQEetUAGwg6I85Dl0N0DFIL4xdgVAA==);strokeColor=#5e5e5e;strokeWidth=2;spacingTop=-3;spacingBottom=-3;spacingLeft=-3;spacingRight=-3;labelBackgroundColor=none;rounded=0;html=1;whiteSpace=wrap;fontColor=#000000;" parent="CbIGhx0lqM554FLyAYgv-1" vertex="1">
                    <mxGeometry width="155" height="105" as="geometry"/>
                </mxCell>
                <mxCell id="CbIGhx0lqM554FLyAYgv-57" style="vsdxID=130;fillColor=#ffffff;gradientColor=none;shape=stencil(dU9bDoAgDDvN/pHFeAAf9yARhahAEF+3F1yMxsS/dm23DrCclXASOJuDt4PcdBsUYAWca6Ok1yEiwBqw7KyXvbeLaYk7kZwJTXZNG3bKFXmKcHYQzRi7eEPeUZuX9xZ/zBE8V6jgW/s2iiP6BusT);strokeColor=#5e5e5e;strokeWidth=2;spacingTop=-3;spacingBottom=-3;spacingLeft=-3;spacingRight=-3;labelBackgroundColor=none;rounded=0;html=1;whiteSpace=wrap;fontColor=#000000;" parent="CbIGhx0lqM554FLyAYgv-1" vertex="1">
                    <mxGeometry width="155" height="105" as="geometry"/>
                </mxCell>
                <mxCell id="uuuJedV01FXUV6uYnoM6-1" value="Preprocess &lt;br&gt;Raw Task Data" style="whiteSpace=wrap;html=1;rounded=1;" parent="1" vertex="1">
                    <mxGeometry x="490.0000000000001" y="-110" width="120" height="60" as="geometry"/>
                </mxCell>
                <mxCell id="uuuJedV01FXUV6uYnoM6-34" style="edgeStyle=orthogonalEdgeStyle;rounded=0;orthogonalLoop=1;jettySize=auto;html=1;" parent="1" source="uuuJedV01FXUV6uYnoM6-23" target="uuuJedV01FXUV6uYnoM6-1" edge="1">
                    <mxGeometry relative="1" as="geometry"/>
                </mxCell>
                <mxCell id="uuuJedV01FXUV6uYnoM6-23" value="Task Raw Data" style="swimlane;whiteSpace=wrap;html=1;" parent="1" vertex="1">
                    <mxGeometry x="-230" y="-315" width="560" height="469" as="geometry">
                        <mxRectangle x="-970" y="141" width="140" height="30" as="alternateBounds"/>
                    </mxGeometry>
                </mxCell>
                <mxCell id="uuuJedV01FXUV6uYnoM6-24" value="&lt;b&gt;Data Entry Form&lt;/b&gt;" style="swimlane;fontStyle=0;childLayout=stackLayout;horizontal=1;startSize=30;horizontalStack=0;resizeParent=1;resizeParentMax=0;resizeLast=0;collapsible=1;marginBottom=0;whiteSpace=wrap;html=1;fontSize=12;" parent="uuuJedV01FXUV6uYnoM6-23" vertex="1">
                    <mxGeometry x="270" y="39" width="140" height="120" as="geometry"/>
                </mxCell>
                <mxCell id="uuuJedV01FXUV6uYnoM6-25" value="Task&amp;nbsp;1" style="text;strokeColor=none;fillColor=none;align=left;verticalAlign=middle;spacingLeft=4;spacingRight=4;overflow=hidden;points=[[0,0.5],[1,0.5]];portConstraint=eastwest;rotatable=0;whiteSpace=wrap;html=1;fontSize=12;" parent="uuuJedV01FXUV6uYnoM6-24" vertex="1">
                    <mxGeometry y="30" width="140" height="30" as="geometry"/>
                </mxCell>
                <mxCell id="uuuJedV01FXUV6uYnoM6-26" value="Task 2" style="text;strokeColor=none;fillColor=none;align=left;verticalAlign=middle;spacingLeft=4;spacingRight=4;overflow=hidden;points=[[0,0.5],[1,0.5]];portConstraint=eastwest;rotatable=0;whiteSpace=wrap;html=1;fontSize=12;" parent="uuuJedV01FXUV6uYnoM6-24" vertex="1">
                    <mxGeometry y="60" width="140" height="30" as="geometry"/>
                </mxCell>
                <mxCell id="uuuJedV01FXUV6uYnoM6-27" value="Task 3" style="text;strokeColor=none;fillColor=none;align=left;verticalAlign=middle;spacingLeft=4;spacingRight=4;overflow=hidden;points=[[0,0.5],[1,0.5]];portConstraint=eastwest;rotatable=0;whiteSpace=wrap;html=1;fontSize=12;" parent="uuuJedV01FXUV6uYnoM6-24" vertex="1">
                    <mxGeometry y="90" width="140" height="30" as="geometry"/>
                </mxCell>
                <mxCell id="uuuJedV01FXUV6uYnoM6-5" value="Spreadsheet (CSV, XLSX)" style="shape=table;startSize=30;container=1;collapsible=0;childLayout=tableLayout;strokeColor=default;fontSize=12;fontStyle=1" parent="uuuJedV01FXUV6uYnoM6-23" vertex="1">
                    <mxGeometry x="60" y="278.99999999999994" width="180" height="150" as="geometry"/>
                </mxCell>
                <mxCell id="uuuJedV01FXUV6uYnoM6-6" value="" style="shape=tableRow;horizontal=0;startSize=0;swimlaneHead=0;swimlaneBody=0;strokeColor=inherit;top=0;left=0;bottom=0;right=0;collapsible=0;dropTarget=0;fillColor=none;points=[[0,0.5],[1,0.5]];portConstraint=eastwest;fontSize=16;" parent="uuuJedV01FXUV6uYnoM6-5" vertex="1">
                    <mxGeometry y="30" width="180" height="40" as="geometry"/>
                </mxCell>
                <mxCell id="uuuJedV01FXUV6uYnoM6-7" value="" style="shape=partialRectangle;html=1;whiteSpace=wrap;connectable=0;strokeColor=inherit;overflow=hidden;fillColor=none;top=0;left=0;bottom=0;right=0;pointerEvents=1;fontSize=16;" parent="uuuJedV01FXUV6uYnoM6-6" vertex="1">
                    <mxGeometry width="60" height="40" as="geometry">
                        <mxRectangle width="60" height="40" as="alternateBounds"/>
                    </mxGeometry>
                </mxCell>
                <mxCell id="uuuJedV01FXUV6uYnoM6-8" value="" style="shape=partialRectangle;html=1;whiteSpace=wrap;connectable=0;strokeColor=inherit;overflow=hidden;fillColor=none;top=0;left=0;bottom=0;right=0;pointerEvents=1;fontSize=16;" parent="uuuJedV01FXUV6uYnoM6-6" vertex="1">
                    <mxGeometry x="60" width="60" height="40" as="geometry">
                        <mxRectangle width="60" height="40" as="alternateBounds"/>
                    </mxGeometry>
                </mxCell>
                <mxCell id="uuuJedV01FXUV6uYnoM6-9" value="" style="shape=partialRectangle;html=1;whiteSpace=wrap;connectable=0;strokeColor=inherit;overflow=hidden;fillColor=none;top=0;left=0;bottom=0;right=0;pointerEvents=1;fontSize=16;" parent="uuuJedV01FXUV6uYnoM6-6" vertex="1">
                    <mxGeometry x="120" width="60" height="40" as="geometry">
                        <mxRectangle width="60" height="40" as="alternateBounds"/>
                    </mxGeometry>
                </mxCell>
                <mxCell id="uuuJedV01FXUV6uYnoM6-10" value="" style="shape=tableRow;horizontal=0;startSize=0;swimlaneHead=0;swimlaneBody=0;strokeColor=inherit;top=0;left=0;bottom=0;right=0;collapsible=0;dropTarget=0;fillColor=none;points=[[0,0.5],[1,0.5]];portConstraint=eastwest;fontSize=16;" parent="uuuJedV01FXUV6uYnoM6-5" vertex="1">
                    <mxGeometry y="70" width="180" height="40" as="geometry"/>
                </mxCell>
                <mxCell id="uuuJedV01FXUV6uYnoM6-11" value="" style="shape=partialRectangle;html=1;whiteSpace=wrap;connectable=0;strokeColor=inherit;overflow=hidden;fillColor=none;top=0;left=0;bottom=0;right=0;pointerEvents=1;fontSize=16;" parent="uuuJedV01FXUV6uYnoM6-10" vertex="1">
                    <mxGeometry width="60" height="40" as="geometry">
                        <mxRectangle width="60" height="40" as="alternateBounds"/>
                    </mxGeometry>
                </mxCell>
                <mxCell id="uuuJedV01FXUV6uYnoM6-12" value="" style="shape=partialRectangle;html=1;whiteSpace=wrap;connectable=0;strokeColor=inherit;overflow=hidden;fillColor=none;top=0;left=0;bottom=0;right=0;pointerEvents=1;fontSize=16;" parent="uuuJedV01FXUV6uYnoM6-10" vertex="1">
                    <mxGeometry x="60" width="60" height="40" as="geometry">
                        <mxRectangle width="60" height="40" as="alternateBounds"/>
                    </mxGeometry>
                </mxCell>
                <mxCell id="uuuJedV01FXUV6uYnoM6-13" value="" style="shape=partialRectangle;html=1;whiteSpace=wrap;connectable=0;strokeColor=inherit;overflow=hidden;fillColor=none;top=0;left=0;bottom=0;right=0;pointerEvents=1;fontSize=16;" parent="uuuJedV01FXUV6uYnoM6-10" vertex="1">
                    <mxGeometry x="120" width="60" height="40" as="geometry">
                        <mxRectangle width="60" height="40" as="alternateBounds"/>
                    </mxGeometry>
                </mxCell>
                <mxCell id="uuuJedV01FXUV6uYnoM6-14" value="" style="shape=tableRow;horizontal=0;startSize=0;swimlaneHead=0;swimlaneBody=0;strokeColor=inherit;top=0;left=0;bottom=0;right=0;collapsible=0;dropTarget=0;fillColor=none;points=[[0,0.5],[1,0.5]];portConstraint=eastwest;fontSize=16;" parent="uuuJedV01FXUV6uYnoM6-5" vertex="1">
                    <mxGeometry y="110" width="180" height="40" as="geometry"/>
                </mxCell>
                <mxCell id="uuuJedV01FXUV6uYnoM6-15" value="" style="shape=partialRectangle;html=1;whiteSpace=wrap;connectable=0;strokeColor=inherit;overflow=hidden;fillColor=none;top=0;left=0;bottom=0;right=0;pointerEvents=1;fontSize=16;" parent="uuuJedV01FXUV6uYnoM6-14" vertex="1">
                    <mxGeometry width="60" height="40" as="geometry">
                        <mxRectangle width="60" height="40" as="alternateBounds"/>
                    </mxGeometry>
                </mxCell>
                <mxCell id="uuuJedV01FXUV6uYnoM6-16" value="" style="shape=partialRectangle;html=1;whiteSpace=wrap;connectable=0;strokeColor=inherit;overflow=hidden;fillColor=none;top=0;left=0;bottom=0;right=0;pointerEvents=1;fontSize=16;" parent="uuuJedV01FXUV6uYnoM6-14" vertex="1">
                    <mxGeometry x="60" width="60" height="40" as="geometry">
                        <mxRectangle width="60" height="40" as="alternateBounds"/>
                    </mxGeometry>
                </mxCell>
                <mxCell id="uuuJedV01FXUV6uYnoM6-17" value="" style="shape=partialRectangle;html=1;whiteSpace=wrap;connectable=0;strokeColor=inherit;overflow=hidden;fillColor=none;top=0;left=0;bottom=0;right=0;pointerEvents=1;fontSize=16;" parent="uuuJedV01FXUV6uYnoM6-14" vertex="1">
                    <mxGeometry x="120" width="60" height="40" as="geometry">
                        <mxRectangle width="60" height="40" as="alternateBounds"/>
                    </mxGeometry>
                </mxCell>
                <mxCell id="uuuJedV01FXUV6uYnoM6-4" value="Text Notes&lt;br&gt;(File)" style="shape=document;whiteSpace=wrap;html=1;boundedLbl=1;" parent="uuuJedV01FXUV6uYnoM6-23" vertex="1">
                    <mxGeometry x="410" y="199" width="120" height="80" as="geometry"/>
                </mxCell>
                <mxCell id="uuuJedV01FXUV6uYnoM6-18" value="&lt;b&gt;Data Entry Form&lt;/b&gt;" style="swimlane;fontStyle=0;childLayout=stackLayout;horizontal=1;startSize=30;horizontalStack=0;resizeParent=1;resizeParentMax=0;resizeLast=0;collapsible=1;marginBottom=0;whiteSpace=wrap;html=1;fontSize=12;" parent="uuuJedV01FXUV6uYnoM6-23" vertex="1">
                    <mxGeometry x="360" y="309" width="140" height="120" as="geometry"/>
                </mxCell>
                <mxCell id="uuuJedV01FXUV6uYnoM6-19" value="Task&amp;nbsp;1" style="text;strokeColor=none;fillColor=none;align=left;verticalAlign=middle;spacingLeft=4;spacingRight=4;overflow=hidden;points=[[0,0.5],[1,0.5]];portConstraint=eastwest;rotatable=0;whiteSpace=wrap;html=1;fontSize=12;" parent="uuuJedV01FXUV6uYnoM6-18" vertex="1">
                    <mxGeometry y="30" width="140" height="30" as="geometry"/>
                </mxCell>
                <mxCell id="uuuJedV01FXUV6uYnoM6-20" value="Task 2" style="text;strokeColor=none;fillColor=none;align=left;verticalAlign=middle;spacingLeft=4;spacingRight=4;overflow=hidden;points=[[0,0.5],[1,0.5]];portConstraint=eastwest;rotatable=0;whiteSpace=wrap;html=1;fontSize=12;" parent="uuuJedV01FXUV6uYnoM6-18" vertex="1">
                    <mxGeometry y="60" width="140" height="30" as="geometry"/>
                </mxCell>
                <mxCell id="uuuJedV01FXUV6uYnoM6-21" value="Task 3" style="text;strokeColor=none;fillColor=none;align=left;verticalAlign=middle;spacingLeft=4;spacingRight=4;overflow=hidden;points=[[0,0.5],[1,0.5]];portConstraint=eastwest;rotatable=0;whiteSpace=wrap;html=1;fontSize=12;" parent="uuuJedV01FXUV6uYnoM6-18" vertex="1">
                    <mxGeometry y="90" width="140" height="30" as="geometry"/>
                </mxCell>
                <mxCell id="uuuJedV01FXUV6uYnoM6-33" value="" style="group" parent="uuuJedV01FXUV6uYnoM6-23" vertex="1" connectable="0">
                    <mxGeometry y="14" width="250" height="240" as="geometry"/>
                </mxCell>
                <mxCell id="uuuJedV01FXUV6uYnoM6-28" value="" style="ellipse;shape=cloud;whiteSpace=wrap;html=1;" parent="uuuJedV01FXUV6uYnoM6-33" vertex="1">
                    <mxGeometry width="249.99999999999997" height="240" as="geometry"/>
                </mxCell>
                <mxCell id="uuuJedV01FXUV6uYnoM6-29" value="&lt;b&gt;Data Entry Form&lt;/b&gt;" style="swimlane;fontStyle=0;childLayout=stackLayout;horizontal=1;startSize=30;horizontalStack=0;resizeParent=1;resizeParentMax=0;resizeLast=0;collapsible=1;marginBottom=0;whiteSpace=wrap;html=1;fontSize=12;" parent="uuuJedV01FXUV6uYnoM6-33" vertex="1">
                    <mxGeometry x="86.1111111111111" y="91.91489361702128" width="77.77777777777777" height="75.95744680851062" as="geometry"/>
                </mxCell>
                <mxCell id="uuuJedV01FXUV6uYnoM6-30" value="Task&amp;nbsp;1" style="text;strokeColor=none;fillColor=none;align=left;verticalAlign=middle;spacingLeft=4;spacingRight=4;overflow=hidden;points=[[0,0.5],[1,0.5]];portConstraint=eastwest;rotatable=0;whiteSpace=wrap;html=1;fontSize=12;" parent="uuuJedV01FXUV6uYnoM6-29" vertex="1">
                    <mxGeometry y="30" width="77.77777777777777" height="15.319148936170212" as="geometry"/>
                </mxCell>
                <mxCell id="uuuJedV01FXUV6uYnoM6-31" value="Task 2" style="text;strokeColor=none;fillColor=none;align=left;verticalAlign=middle;spacingLeft=4;spacingRight=4;overflow=hidden;points=[[0,0.5],[1,0.5]];portConstraint=eastwest;rotatable=0;whiteSpace=wrap;html=1;fontSize=12;" parent="uuuJedV01FXUV6uYnoM6-29" vertex="1">
                    <mxGeometry y="45.31914893617021" width="77.77777777777777" height="15.319148936170212" as="geometry"/>
                </mxCell>
                <mxCell id="uuuJedV01FXUV6uYnoM6-32" value="Task 3" style="text;strokeColor=none;fillColor=none;align=left;verticalAlign=middle;spacingLeft=4;spacingRight=4;overflow=hidden;points=[[0,0.5],[1,0.5]];portConstraint=eastwest;rotatable=0;whiteSpace=wrap;html=1;fontSize=12;" parent="uuuJedV01FXUV6uYnoM6-29" vertex="1">
                    <mxGeometry y="60.63829787234042" width="77.77777777777777" height="15.319148936170212" as="geometry"/>
                </mxCell>
                <mxCell id="uuuJedV01FXUV6uYnoM6-35" value="Visualize&lt;br&gt;Value/Effort Ranked Tasks" style="rounded=1;whiteSpace=wrap;html=1;fontSize=12;" parent="1" vertex="1">
                    <mxGeometry x="1445.0000000000002" y="-110" width="120" height="60" as="geometry"/>
                </mxCell>
                <mxCell id="uuuJedV01FXUV6uYnoM6-38" value="Task Raw Data&lt;br style=&quot;border-color: var(--border-color);&quot;&gt;&lt;span style=&quot;&quot;&gt;+ Cust Value&lt;/span&gt;&lt;br style=&quot;border-color: var(--border-color);&quot;&gt;&lt;span style=&quot;&quot;&gt;+ Est. Effort&lt;/span&gt;&lt;br&gt;(File)" style="shape=document;whiteSpace=wrap;html=1;boundedLbl=1;size=0.2;" parent="1" vertex="1">
                    <mxGeometry x="785" y="20" width="120" height="100" as="geometry"/>
                </mxCell>
                <mxCell id="uuuJedV01FXUV6uYnoM6-39" style="vsdxID=33;fillColor=none;gradientColor=none;strokeColor=none;strokeWidth=2;spacingTop=-3;spacingBottom=-3;spacingLeft=-3;spacingRight=-3;labelBackgroundColor=none;rounded=1;html=1;whiteSpace=wrap;fontColor=#000000;" parent="1" vertex="1">
                    <mxGeometry x="1280" y="204.8" width="70" height="76" as="geometry"/>
                </mxCell>
                <mxCell id="uuuJedV01FXUV6uYnoM6-40" style="vsdxID=34;fillColor=#FFFFFF;gradientColor=none;shape=stencil(fZNbEoIwDEVX018mNOODT8fHBlwBA1U6IjgVFVy9hbTSFvSvaW4mJ7cNw+29SG+Ccbg3qr6Il8ybguGOcS6rQijZ6BPDPcPtqVbirOpHlVN8S7WSw3AjcqqJezWHVGVH+RZ0BxHGqwUlqPJaP/uOrclTqqOIhAcSZg9FytiXmpBHRg4tN/2jZWI03CtpkUKMLEqHrmBoCBvds5SVA5csvz26iX4KmKz1sD4kBIQAPqAzBIYSnHgygzjKDcNfC0e1RV59LbGM7hQhtoV0jQm4f4E63s8UzKCOjxnCt/7rWkp3FvQVODVnBvHPX9SH4cfTLsiypIVx8+GG6CvaLtx/AA==);strokeColor=#5e5e5e;strokeWidth=2;spacingTop=-3;spacingBottom=-3;spacingLeft=-3;spacingRight=-3;labelBackgroundColor=none;rounded=1;html=1;whiteSpace=wrap;fontColor=#000000;" parent="uuuJedV01FXUV6uYnoM6-39" vertex="1">
                    <mxGeometry width="70" height="76" as="geometry"/>
                </mxCell>
                <mxCell id="uuuJedV01FXUV6uYnoM6-41" value="&lt;div style=&quot;&quot;&gt;&lt;p style=&quot;margin: 0px; text-indent: 0px; direction: ltr;&quot;&gt;&lt;font face=&quot;Arial&quot;&gt;&lt;span style=&quot;font-size: 11.29px;&quot;&gt;Retrieve&amp;nbsp;&lt;/span&gt;&lt;/font&gt;&lt;/p&gt;&lt;p style=&quot;margin: 0px; text-indent: 0px; direction: ltr;&quot;&gt;&lt;font face=&quot;Arial&quot;&gt;&lt;span style=&quot;font-size: 11.29px;&quot;&gt;Data&lt;/span&gt;&lt;/font&gt;&lt;/p&gt;&lt;p style=&quot;margin: 0px; text-indent: 0px; direction: ltr;&quot;&gt;&lt;font face=&quot;Arial&quot;&gt;&lt;span style=&quot;font-size: 11.29px;&quot;&gt;from Datastore&lt;/span&gt;&lt;/font&gt;&lt;/p&gt;&lt;/div&gt;" style="text;vsdxID=33;fillColor=none;gradientColor=none;strokeColor=none;strokeWidth=2;spacingTop=-3;spacingBottom=-3;spacingLeft=-3;spacingRight=-3;labelBackgroundColor=none;rounded=1;html=1;whiteSpace=wrap;verticalAlign=middle;align=center;;html=1;fontColor=#000000;" parent="uuuJedV01FXUV6uYnoM6-39" vertex="1">
                    <mxGeometry y="-0.2" width="70" height="76.2" as="geometry"/>
                </mxCell>
                <mxCell id="uuuJedV01FXUV6uYnoM6-43" value="" style="edgeStyle=orthogonalEdgeStyle;rounded=0;orthogonalLoop=1;jettySize=auto;html=1;" parent="1" source="yc3m5w_ezIkJ8CxKZsT--36" target="uuuJedV01FXUV6uYnoM6-41" edge="1">
                    <mxGeometry relative="1" as="geometry"/>
                </mxCell>
                <mxCell id="uuuJedV01FXUV6uYnoM6-44" value="" style="edgeStyle=orthogonalEdgeStyle;rounded=0;orthogonalLoop=1;jettySize=auto;html=1;" parent="1" source="uuuJedV01FXUV6uYnoM6-41" target="yc3m5w_ezIkJ8CxKZsT--16" edge="1">
                    <mxGeometry relative="1" as="geometry"/>
                </mxCell>
            </root>
        </mxGraphModel>
    </diagram>
    <diagram id="9OtjnZMJ12iVx7tIOraa" name="Task Object Model">
        <mxGraphModel dx="629" dy="647" grid="1" gridSize="10" guides="1" tooltips="1" connect="1" arrows="1" fold="1" page="1" pageScale="1" pageWidth="1100" pageHeight="850" math="0" shadow="0">
            <root>
                <mxCell id="0"/>
                <mxCell id="1" parent="0"/>
                <mxCell id="aDpvarYF5oO2Mg7HslSM-1" value="&lt;h1&gt;The task object&lt;/h1&gt;&lt;h1&gt;Attributes&lt;/h1&gt;&lt;h3&gt;&lt;code&gt;id&amp;nbsp;&lt;/code&gt;&lt;em style=&quot;background-color: initial; font-size: 12px; font-weight: normal;&quot;&gt;UUID&amp;nbsp;&amp;nbsp;&lt;/em&gt;The unique id of the task&lt;/h3&gt;&lt;h2&gt;&lt;code&gt;model&amp;nbsp;&lt;/code&gt;&lt;em style=&quot;background-color: initial; font-size: 12px; font-weight: normal;&quot;&gt;string&amp;nbsp;&amp;nbsp;&lt;/em&gt;The model is always&amp;nbsp;&lt;/h2&gt;&lt;h2&gt;&lt;code style=&quot;background-color: initial; font-size: 12px; font-weight: normal;&quot;&gt;task&lt;/code&gt;&lt;/h2&gt;&lt;br&gt;&lt;h2&gt;&lt;code&gt;index&amp;nbsp;&lt;/code&gt;&lt;em style=&quot;background-color: initial; font-size: 12px; font-weight: normal;&quot;&gt;number&amp;nbsp;&amp;nbsp;&lt;/em&gt;The task index. For example, if the task is &lt;em style=&quot;background-color: initial; font-size: 12px; font-weight: normal;&quot;&gt;&lt;strong&gt;T-123&lt;/strong&gt;&lt;/em&gt;&lt;span style=&quot;background-color: initial; font-size: 12px; font-weight: normal;&quot;&gt;, its index is &lt;/span&gt;&lt;em style=&quot;background-color: initial; font-size: 12px; font-weight: normal;&quot;&gt;&lt;strong&gt;123&lt;/strong&gt;&lt;/em&gt;&lt;span style=&quot;background-color: initial; font-size: 12px; font-weight: normal;&quot;&gt;.&lt;/span&gt;&lt;/h2&gt;&lt;br&gt;&lt;h2&gt;&lt;code&gt;listIds&lt;/code&gt;&lt;/h2&gt;&lt;br&gt;&lt;p&gt;&lt;em&gt;Array of UUID&lt;/em&gt;&lt;/p&gt;&lt;br&gt;&lt;p&gt;Tasks belong to one or more lists. To create tasks, it's necessary to know in which list you want to create them.&lt;/p&gt;&lt;br&gt;&lt;p&gt;&lt;a href=&quot;https://www.notion.so/List-all-lists-4c0b34cbc33e49cf9fd8a77deb12d43b?pvs=21&quot;&gt;List all lists&lt;/a&gt;&lt;/p&gt;&lt;br&gt;&lt;h2&gt;&lt;code&gt;name&lt;/code&gt;&lt;/h2&gt;&lt;br&gt;&lt;p&gt;&lt;em&gt;string&lt;/em&gt;&lt;/p&gt;&lt;br&gt;&lt;p&gt;The name of the task.&lt;/p&gt;&lt;br&gt;&lt;h2&gt;&lt;code&gt;description&lt;/code&gt;&lt;/h2&gt;&lt;br&gt;&lt;p&gt;&lt;em&gt;string&lt;/em&gt;&lt;/p&gt;&lt;br&gt;&lt;p&gt;The description of the task. It's only retrieved if you use &lt;code&gt;include&lt;/code&gt;. See &quot;Get a task&quot;:&lt;/p&gt;&lt;br&gt;&lt;p&gt;&lt;a href=&quot;https://www.notion.so/Get-a-task-8afda1c08e7f4f07a5c53720710cf24e?pvs=21&quot;&gt;Get a task&lt;/a&gt;&lt;/p&gt;&lt;br&gt;&lt;h2&gt;&lt;code&gt;status&lt;/code&gt;&lt;/h2&gt;&lt;br&gt;&lt;p&gt;&lt;em&gt;string or UUID&lt;/em&gt;&lt;/p&gt;&lt;br&gt;&lt;p&gt;The status of the task.&lt;/p&gt;&lt;br&gt;&lt;ul&gt;&lt;br&gt;&lt;li&gt;&lt;code&gt;backLog&lt;/code&gt;&lt;/li&gt;&lt;br&gt;&lt;li&gt;&lt;code&gt;inProgress&lt;/code&gt;&lt;/li&gt;&lt;br&gt;&lt;li&gt;&lt;code&gt;done&lt;/code&gt;&lt;/li&gt;&lt;br&gt;&lt;li&gt;and any &lt;em&gt;UUID&lt;/em&gt; of available statuses. You can find the &lt;em&gt;UUIDs&lt;/em&gt; through the field template API.&lt;/li&gt;&lt;br&gt;&lt;/ul&gt;&lt;br&gt;&lt;h2&gt;&lt;code&gt;assigneesIds&lt;/code&gt;&lt;/h2&gt;&lt;br&gt;&lt;p&gt;&lt;em&gt;Array of UUID&lt;/em&gt;&lt;/p&gt;&lt;br&gt;&lt;p&gt;The assignees of the task. You can find the &lt;em&gt;UUIDs&lt;/em&gt; of users through the users API.&lt;/p&gt;&lt;br&gt;&lt;p&gt;&lt;a href=&quot;https://www.notion.so/List-all-users-ea66d04e48534b32927903c4deee58e8?pvs=21&quot;&gt;List all users&lt;/a&gt;&lt;/p&gt;&lt;br&gt;&lt;h2&gt;&lt;code&gt;parentTaskId&lt;/code&gt;&lt;/h2&gt;&lt;br&gt;&lt;p&gt;&lt;em&gt;UUID (optional)&lt;/em&gt;&lt;/p&gt;&lt;br&gt;&lt;p&gt;If the task is a subtask of another task, &lt;code&gt;parentTaskId&lt;/code&gt; will be the id of the parent task.&lt;/p&gt;&lt;br&gt;&lt;h2&gt;&lt;code&gt;fields&lt;/code&gt;&lt;/h2&gt;&lt;br&gt;&lt;p&gt;&lt;em&gt;Array of task fields&lt;/em&gt;&lt;/p&gt;&lt;br&gt;&lt;p&gt;For every attribute other than name, status, and assignees.&lt;/p&gt;&lt;br&gt;&lt;ul&gt;&lt;br&gt;&lt;li&gt;&lt;code&gt;fieldTemplateId&lt;/code&gt; &lt;em&gt;UUID&lt;/em&gt;: the id of the appropriate field template&lt;/li&gt;&lt;br&gt;&lt;li&gt;&lt;code&gt;value&lt;/code&gt; &lt;em&gt;string (optional)&lt;/em&gt;&lt;br&gt;&lt;ul&gt;&lt;br&gt;&lt;li&gt;for &lt;code&gt;text&lt;/code&gt; fields: the text value of the field&lt;/li&gt;&lt;br&gt;&lt;li&gt;for &lt;code&gt;select&lt;/code&gt; fields: the id of the selected option&lt;/li&gt;&lt;br&gt;&lt;/ul&gt;&lt;br&gt;&lt;/li&gt;&lt;br&gt;&lt;li&gt;&lt;code&gt;date&lt;/code&gt; &lt;em&gt;Date (see &lt;a href=&quot;https://www.notion.so/API-documentation-643aea5bf01742de9232e5971cb4afda?pvs=21&quot;&gt;Date formats&lt;/a&gt;) (optional)&lt;/em&gt;&lt;br&gt;&lt;ul&gt;&lt;br&gt;&lt;li&gt;for &lt;code&gt;date&lt;/code&gt; fields: the date value of the field&lt;/li&gt;&lt;br&gt;&lt;/ul&gt;&lt;br&gt;&lt;/li&gt;&lt;br&gt;&lt;li&gt;&lt;code&gt;labels&lt;/code&gt; &lt;em&gt;Array of labels (optional)&lt;/em&gt;&lt;br&gt;&lt;ul&gt;&lt;br&gt;&lt;li&gt;for &lt;code&gt;labels&lt;/code&gt; fields: the labels of the field&lt;/li&gt;&lt;br&gt;&lt;/ul&gt;&lt;br&gt;&lt;/li&gt;&lt;br&gt;&lt;li&gt;&lt;code&gt;linkedTasks&lt;/code&gt; &lt;em&gt;Array of tasks (optional)&lt;/em&gt;&lt;br&gt;&lt;ul&gt;&lt;br&gt;&lt;li&gt;for &lt;code&gt;linkedTasks&lt;/code&gt; fields:&lt;br&gt;the tasks to be linked, in the format:&lt;br&gt;&lt;code&gt;{ “id”: “*UUID*”, “index”: *number*, }&lt;/code&gt;&lt;/li&gt;&lt;br&gt;&lt;/ul&gt;&lt;br&gt;&lt;/li&gt;&lt;br&gt;&lt;li&gt;&lt;/li&gt;&lt;br&gt;&lt;/ul&gt;&lt;br&gt;&lt;h2&gt;&lt;code&gt;deleted&lt;/code&gt;&lt;/h2&gt;&lt;br&gt;&lt;p&gt;&lt;em&gt;boolean&lt;/em&gt;&lt;/p&gt;&lt;br&gt;&lt;p&gt;If the task was deleted.&lt;/p&gt;&lt;br&gt;&lt;h2&gt;&lt;code&gt;deletedAt&lt;/code&gt;&lt;/h2&gt;&lt;br&gt;&lt;p&gt;&lt;em&gt;Date (see &lt;a href=&quot;https://www.notion.so/API-documentation-643aea5bf01742de9232e5971cb4afda?pvs=21&quot;&gt;Date formats&lt;/a&gt;)&lt;/em&gt;&lt;/p&gt;&lt;br&gt;&lt;p&gt;The date at which the task was deleted.&lt;/p&gt;&lt;br&gt;&lt;h2&gt;&lt;code&gt;deletedByUserId&lt;/code&gt;&lt;/h2&gt;&lt;br&gt;&lt;p&gt;&lt;em&gt;UUID&lt;/em&gt;&lt;/p&gt;&lt;br&gt;&lt;p&gt;The user that deleted the task.&lt;/p&gt;&lt;br&gt;&lt;h2&gt;&lt;code&gt;completed&lt;/code&gt;&lt;/h2&gt;&lt;br&gt;&lt;p&gt;&lt;em&gt;boolean&lt;/em&gt;&lt;/p&gt;&lt;br&gt;&lt;p&gt;If the status is considered as completed (i.e. &lt;code&gt;done&lt;/code&gt;), the value will be &lt;code&gt;true&lt;/code&gt;.&lt;/p&gt;&lt;br&gt;&lt;h2&gt;&lt;code&gt;completedAt&lt;/code&gt;&lt;/h2&gt;&lt;br&gt;&lt;p&gt;&lt;em&gt;Date (see &lt;a href=&quot;https://www.notion.so/API-documentation-643aea5bf01742de9232e5971cb4afda?pvs=21&quot;&gt;Date formats&lt;/a&gt;)&lt;/em&gt;&lt;/p&gt;&lt;br&gt;&lt;h2&gt;&lt;code&gt;createdAt&lt;/code&gt;&lt;/h2&gt;&lt;br&gt;&lt;p&gt;&lt;em&gt;Date (see &lt;a href=&quot;https://www.notion.so/API-documentation-643aea5bf01742de9232e5971cb4afda?pvs=21&quot;&gt;Date formats&lt;/a&gt;)&lt;/em&gt;&lt;/p&gt;&lt;br&gt;&lt;h2&gt;&lt;code&gt;createdUserId&lt;/code&gt;&lt;/h2&gt;&lt;br&gt;&lt;p&gt;&lt;em&gt;UUID&lt;/em&gt;&lt;/p&gt;&lt;br&gt;&lt;p&gt;The user that created the task.&lt;/p&gt;&lt;br&gt;&lt;h2&gt;&lt;code&gt;lastActivityAt&lt;/code&gt;&lt;/h2&gt;&lt;br&gt;&lt;p&gt;&lt;em&gt;Date (see &lt;a href=&quot;https://www.notion.so/API-documentation-643aea5bf01742de9232e5971cb4afda?pvs=21&quot;&gt;Date formats&lt;/a&gt;)&lt;/em&gt;&lt;/p&gt;&lt;br&gt;&lt;h2&gt;&lt;code&gt;url&lt;/code&gt;&lt;/h2&gt;&lt;br&gt;&lt;p&gt;&lt;em&gt;string&lt;/em&gt;&lt;/p&gt;&lt;br&gt;&lt;p&gt;The url of the task.&lt;/p&gt;&lt;br&gt;&lt;h2&gt;&lt;code&gt;trashedAt&lt;/code&gt;&lt;/h2&gt;&lt;br&gt;&lt;p&gt;&lt;em&gt;Date (see &lt;a href=&quot;https://www.notion.so/API-documentation-643aea5bf01742de9232e5971cb4afda?pvs=21&quot;&gt;Date formats&lt;/a&gt;)&lt;/em&gt;&lt;/p&gt;&lt;br&gt;&lt;p&gt;A timestamp when the task was moved to the trash. Tasks are deleted after 30 days in the trash. This will be null unless the task is currently in the trash or deleted.&lt;/p&gt;&lt;br&gt;&lt;h2&gt;&lt;code&gt;trashedByUserId&lt;/code&gt;&lt;/h2&gt;&lt;br&gt;&lt;p&gt;&lt;em&gt;UUID&lt;/em&gt;&lt;/p&gt;&lt;br&gt;&lt;p&gt;The id of the user that moved the task to the trash&lt;/p&gt;" style="text;whiteSpace=wrap;html=1;fontSize=12;" parent="1" vertex="1">
                    <mxGeometry x="180" y="350" width="880" height="4510" as="geometry"/>
                </mxCell>
            </root>
        </mxGraphModel>
    </diagram>
</mxfile>